<?xml version="1.0" encoding="utf-8"?>
<!-- Generator: Adobe Illustrator 24.0.0, SVG Export Plug-In . SVG Version: 6.00 Build 0)  -->
<svg version="1.1" id="Layer_1" xmlns="http://www.w3.org/2000/svg" xmlns:xlink="http://www.w3.org/1999/xlink" x="0px" y="0px"
	 viewBox="0 0 1000 1000" style="enable-background:new 0 0 1000 1000;" xml:space="preserve">
<g id="Layer_1_1_">
	<g>
		<path style="fill:#2F495E;" d="M239.5,469.2c164-94.7,527-322.5,527-322.5c15.1-8.7,20.3-28,11.6-43.1l-31.6-77.8
			c-8.7-15.1-28-20.3-43.1-11.5l-597.2,363c-15.1,8.7-20.3,28-11.6,43.1l57.2,62v2.5h65.5L239.5,469.2z M652.8,88.9l97.8,30.4
			l-109.4,63.1L543.4,152L652.8,88.9z M138.5,404.1L247,341.5l97.8,30.4L233.7,436L138.5,404.1z"/>
	</g>
</g>
<g id="Layer_2_1_">
	<g id="Layer_3">
		<path style="fill:#2F495E;" d="M878.2,482.9H217.3h-65.5l0.4,424.74c0,15.61,14.1,28.35,31.6,28.35h694.5
			c17.4,0,31.6-12.65,31.6-28.35V511.25C909.7,495.55,895.6,482.9,878.2,482.9z M276.4,596.19l-91.7-90.33H310l94.7,90.33H276.4z
			 M751.9,590.81l-94.7-79.57l126.3-2.69l94.7,82.26H751.9z"/>
	</g>
	<g>
		<g>
			<path id="SVGID_1_" style="fill:#2F495E;" d="M571.7,268.55c57.39-25.42-24.55-10.23-45.42-34.45
				C475.16,174.76,366.3,379.66,354.9,454.12c-35.62,231.56,122.37,244.02,184.71,368.71C604.62,692.8,774.02,685.5,717.73,422.77
				c-1.96-10.72,2.36-21.78,0-32.42c-13.53-60.99-4.97-43.44-7.3-68.26l-62.66-81.33c3.03,35.62,81.37,287.63-110.11,299.75
				C346.18,552.61,502.71,299.11,571.7,268.55z"/>
		</g>
		<g>
			<path style="fill:#7C55AD;" d="M539.61,832.83c-3.79,0-7.25-2.14-8.94-5.53c-20.07-40.15-50.08-67.83-81.85-97.14
				c-63.07-58.18-128.29-118.34-103.8-277.56c4.96-32.42,26.94-86.82,54.67-135.36c19.2-33.59,56.88-91.52,93.55-102.05
				c15.7-4.51,29.75-0.23,40.61,12.39c6.8,7.89,26.87,10.71,40.15,12.58c5.62,0.79,10.47,1.47,14.36,2.42
				c12.06,2.95,12.97,9.48,13.27,11.62c1.47,10.52-9.8,16.37-25.89,23.5c-22.34,9.9-56.15,47.07-82.21,90.39
				c-29.51,49.06-42.9,95.61-35.82,124.53c3.2,13.09,10.29,22.55,21.68,28.91c13.48,7.54,32.87,10.57,57.63,9.01
				c40.47-2.56,70.92-16.78,90.5-42.25c19.88-25.86,29.5-64.11,28.58-113.68c-0.78-42.21-8.78-82.33-14.08-108.89
				c-2.2-11.05-3.8-19.04-4.23-24.11c-0.38-4.42,2.21-8.56,6.34-10.17c4.14-1.61,8.84-0.3,11.54,3.22l62.66,81.33
				c1.15,1.5,1.86,3.29,2.03,5.17c0.89,9.45,0.35,13.71-0.13,17.46c-0.67,5.31-1.37,10.8,7.23,49.57
				c1.56,7.04,0.89,13.84,0.29,19.83c-0.46,4.65-0.9,9.04-0.24,12.82c39.35,183.89-30.09,247.8-97.25,309.6
				c-31.73,29.2-61.7,56.78-81.74,96.86C546.86,830.69,543.4,832.83,539.61,832.83z M504.91,233.46c-1.93,0-3.97,0.32-6.15,0.94
				c-21.5,6.17-52.05,40.85-81.71,92.75c-26.22,45.89-47.72,98.72-52.27,128.47c-22.87,148.7,35.64,202.68,97.59,259.83
				c27.6,25.46,56.02,51.68,77.24,86.7c21.19-34.95,49.57-61.07,77.14-86.44c65.94-60.69,128.23-118.01,91.2-290.86
				c-0.02-0.1-0.04-0.2-0.06-0.3c-1.2-6.58-0.57-12.93-0.01-18.54c0.49-4.94,0.96-9.6,0.09-13.52c-9.35-42.16-8.52-48.76-7.55-56.41
				c0.33-2.57,0.64-5.02,0.29-10.26l-35.56-46.15c4.8,25.42,10.31,59.62,10.96,94.54c1,54.22-10,96.69-32.72,126.24
				c-23.25,30.25-58.61,47.08-105.09,50.02c-70.79,4.47-93.46-26.42-99.99-53.12c-4.57-18.69-2.83-41.54,5.2-67.94
				c6.81-22.4,18.19-47.17,32.91-71.65c28.39-47.21,65.02-86.71,91.17-98.34c-16.77-2.41-37.96-6.15-48.87-18.81
				C514.54,235.79,510.13,233.46,504.91,233.46z"/>
		</g>
	</g>
	<path style="fill:none;stroke:#4550E5;stroke-linecap:round;stroke-linejoin:round;stroke-miterlimit:10;" d="M361.32,322.48
		v-44.53c0-98.37,79.75-178.12,178.12-178.12s178.12,79.75,178.12,178.12v44.53c19.67,0,35.62,15.95,35.62,35.62
		c0,19.67-15.95,35.62-35.62,35.62h-2.14c-13.55,86.7-88.23,150.61-175.98,150.61s-162.43-63.91-175.98-150.61h-2.14
		c-19.67,0-35.62-15.95-35.62-35.62C325.69,338.43,341.64,322.48,361.32,322.48z"/>
	<g>
		<path style="fill:#FFFFFF;" d="M539.44,554.34c-44.82,0-88.26-16.05-122.32-45.19c-31.99-27.37-53.84-64.72-62.11-105.85
			c-22.18-3.08-39.31-22.17-39.31-45.19c0-21.72,15.26-39.95,35.62-44.52v-35.63c0-103.73,84.39-188.12,188.12-188.12
			s188.12,84.39,188.12,188.12v35.63c20.36,4.57,35.62,22.8,35.62,44.52c0,23.02-17.13,42.11-39.31,45.19
			c-8.27,41.13-30.12,78.47-62.11,105.85C627.7,538.29,584.26,554.34,539.44,554.34z"/>
		<path style="fill:#2F495E;" d="M539.44,99.83c98.37,0,178.12,79.75,178.12,178.12v44.53c19.67,0,35.62,15.95,35.62,35.62
			c0,19.67-15.95,35.62-35.62,35.62h-2.14c-13.55,86.7-88.23,150.61-175.98,150.61s-162.43-63.91-175.98-150.61h-2.14
			c-19.67,0-35.62-15.95-35.62-35.62c0-19.67,15.95-35.62,35.62-35.62v-44.53C361.32,179.58,441.07,99.83,539.44,99.83
			 M539.44,79.83c-26.74,0-52.69,5.24-77.12,15.58c-23.59,9.98-44.78,24.26-62.97,42.45s-32.47,39.37-42.45,62.97
			c-10.34,24.44-15.58,50.39-15.58,77.12v28.25c-20.82,8.05-35.62,28.28-35.62,51.91c0,25.59,17.37,47.19,40.93,53.65
			c9.63,40.75,32,77.6,63.99,104.98c35.86,30.69,81.61,47.6,128.82,47.6s92.95-16.9,128.82-47.6c32-27.38,54.36-64.23,63.99-104.98
			c23.56-6.46,40.93-28.07,40.93-53.65c0-23.62-14.8-43.86-35.62-51.91v-28.25c0-26.74-5.24-52.69-15.58-77.12
			c-9.98-23.59-24.26-44.78-42.45-62.97s-39.37-32.47-62.97-42.45C592.12,85.07,566.18,79.83,539.44,79.83L539.44,79.83z"/>
	</g>
	<g>
		<g>
			<defs>
				<path id="SVGID_2_" d="M641.86,420.27c12.3,0,22.26-9.97,22.26-22.26c0-12.3-9.97-22.27-22.26-22.27s-22.26,9.97-22.26,22.27
					C619.59,410.3,629.56,420.27,641.86,420.27z"/>
			</defs>
			<clipPath id="SVGID_3_">
				<use xlink:href="#SVGID_2_"  style="overflow:visible;"/>
			</clipPath>
		</g>
	</g>
	<g>
		<g>
			<defs>
				<path id="SVGID_4_" d="M437.02,420.27c12.3,0,22.27-9.97,22.27-22.26c0-12.3-9.97-22.27-22.27-22.27s-22.27,9.97-22.27,22.27
					C414.75,410.3,424.72,420.27,437.02,420.27z"/>
			</defs>
			<clipPath id="SVGID_5_">
				<use xlink:href="#SVGID_4_"  style="overflow:visible;"/>
			</clipPath>
		</g>
	</g>
	<path style="fill:none;stroke:#4550E5;stroke-linecap:round;stroke-linejoin:round;stroke-miterlimit:10;" d="M593.05,443.25
		c-29.96,28.41-76.91,28.41-106.87,0"/>
	<path style="fill:#2F495E;" d="M441.47,347.29c-0.91,0-1.84-0.18-2.74-0.56c-3.56-1.51-5.21-5.62-3.7-9.18
		c5.67-13.32,18.68-21.93,33.16-21.93c14.47,0,27.49,8.61,33.16,21.93c1.51,3.56-0.14,7.67-3.7,9.18c-3.56,1.52-7.67-0.14-9.18-3.7
		c-3.47-8.15-11.43-13.41-20.28-13.41c-8.85,0-16.81,5.26-20.28,13.41C446.78,345.69,444.19,347.29,441.47,347.29z M583.97,347.29
		c-0.91,0-1.84-0.18-2.74-0.56c-3.56-1.51-5.21-5.62-3.7-9.18c5.67-13.32,18.68-21.93,33.16-21.93c14.47,0,27.49,8.61,33.16,21.93
		c1.51,3.56-0.14,7.67-3.7,9.18c-3.56,1.51-7.67-0.14-9.18-3.7c-3.47-8.15-11.43-13.41-20.28-13.41c-8.85,0-16.81,5.26-20.28,13.41
		C589.28,345.69,586.69,347.29,583.97,347.29z"/>
	<g>
		<path style="fill:#7C55AD;" d="M728.95,560.47c-2.71,0-5.49-0.06-8.26-0.18c-39.62-1.71-78.17-10.84-111.48-26.38
			c-28.95-13.51-53.4-31.61-71.44-52.79c-38.28,45.88-106.99,75.87-183.13,79.17c-2.78,0.12-5.56,0.18-8.26,0.18
			c-31.55,0-57.8-8.54-75.9-24.7c-15.33-13.68-24.42-32.77-24.93-52.38c-0.75-28.48,15.91-50.06,39.61-51.38
			c0.53-0.04,1.06-0.06,1.59-0.06c8.16,0,15.55,4.5,19.31,11.74c4.04,7.79,3.02,17.18-2.59,23.93l-0.29,0.35l-0.33,0.33
			c-3.48,3.48-4.59,8.69-2.81,13.28c1.77,4.59,6.09,7.71,11.01,7.95l0.65,0.03l0.64,0.11c1.88,0.34,3.96,0.51,6.19,0.51
			c0,0,0,0,0.01,0c23.15,0,59.08-17.72,93.82-34.86c39.27-19.37,76.36-37.66,105.24-37.66c7.5,0,14.22,1.28,20.08,3.8
			c5.85-2.53,12.58-3.8,20.06-3.8c28.74,0,65.64,18.2,104.71,37.47c34.93,17.23,71.05,35.05,94.61,35.05c2.28,0,4.41-0.17,6.34-0.51
			l0.62-0.11l0.63-0.03c4.92-0.24,9.24-3.36,11.01-7.95c1.77-4.59,0.67-9.81-2.81-13.28l-0.34-0.34l-0.3-0.37
			c-5.49-6.63-6.55-15.9-2.7-23.6c3.71-7.42,11.17-12.03,19.46-12.03c0.35,0,0.69,0.01,1.04,0.02c23.82,1.25,40.54,22.86,39.79,51.4
			c-0.51,19.61-9.6,38.7-24.93,52.38c-18.1,16.15-44.35,24.69-75.9,24.69C728.95,560.47,728.95,560.47,728.95,560.47z"/>
		<path style="fill:#2F495E;" d="M557.72,427.68c52.65,0.01,147.37,72.52,199.32,72.52c2.82,0,5.52-0.21,8.08-0.67
			c8.87-0.43,16.66-6.05,19.86-14.33c3.2-8.29,1.21-17.68-5.08-23.96c-2.97-3.59-3.54-8.59-1.46-12.75c2-4,6.08-6.5,10.51-6.5
			c0.19,0,0.38,0,0.56,0.01c46.48,2.44,48.91,108.47-60.57,108.47c-2.54,0-5.16-0.06-7.82-0.17
			c-78.19-3.38-147.84-35.98-183.46-85.5c-34.73,49.87-105.27,82.11-183.46,85.5c-2.67,0.12-5.27,0.17-7.82,0.17
			c-109.46,0-107.05-106.04-60.57-108.47c0.31-0.03,0.63-0.04,0.94-0.04c4.36,0,8.4,2.43,10.43,6.34c2.18,4.2,1.63,9.29-1.4,12.93
			c-6.29,6.28-8.28,15.67-5.08,23.96c3.2,8.29,10.99,13.91,19.86,14.33c2.52,0.45,5.17,0.67,7.97,0.67
			c51.32,0,146.33-72.52,199.06-72.52c7.68,0,14.46,1.54,20.08,5.06C543.28,429.21,550.05,427.68,557.72,427.68 M557.72,407.68
			L557.72,407.68h-0.01c-7.26,0-13.96,1.04-20.05,3.1c-6.09-2.06-12.81-3.1-20.08-3.1c-31.21,0-69.31,18.79-109.65,38.69
			c-32.15,15.86-68.58,33.83-89.41,33.83c-1.64,0-3.13-0.12-4.43-0.35l-1.28-0.23l-1.3-0.06c-0.97-0.05-1.81-0.66-2.16-1.56
			s-0.13-1.93,0.55-2.61l0.65-0.65l0.59-0.71c8.19-9.85,9.67-23.56,3.78-34.93c-5.48-10.57-16.28-17.14-28.19-17.14
			c-0.74,0-1.49,0.03-2.23,0.08c-15.2,0.87-28.55,8.44-37.61,21.34c-7.72,10.99-11.75,25.3-11.36,40.28
			c0.59,22.36,10.89,44.07,28.27,59.58c19.97,17.82,48.52,27.23,82.56,27.23c2.85,0,5.78-0.07,8.7-0.19
			c41.12-1.78,81.08-11.17,115.56-27.15c26.6-12.33,49.43-28.36,67.2-47.06c17.98,18.63,40.8,34.61,67.14,46.9
			c34.49,16.09,74.36,25.53,115.29,27.31c2.91,0.13,5.84,0.19,8.69,0.19c34.05,0,62.6-9.42,82.57-27.23
			c17.38-15.51,27.68-37.22,28.27-59.58c0.39-14.98-3.64-29.28-11.36-40.28c-9.1-12.97-22.55-20.55-37.85-21.36h-0.05h-0.05
			c-0.5-0.02-1.02-0.04-1.52-0.04c-12.1,0-22.99,6.73-28.4,17.55c-5.62,11.24-4.08,24.76,3.94,34.45l0.6,0.73l0.67,0.67
			c0.68,0.68,0.9,1.71,0.55,2.61c-0.35,0.9-1.2,1.51-2.16,1.56l-1.27,0.06l-1.25,0.22c-1.36,0.24-2.9,0.36-4.6,0.36
			c-21.23,0-57.87-18.07-90.19-34.02C626.71,426.38,588.79,407.68,557.72,407.68L557.72,407.68z"/>
	</g>
</g>
<circle style="fill:#DAE1E9;" cx="641.86" cy="398.01" r="19.65"/>
<circle style="fill:#DAE1E9;" cx="436.35" cy="398.01" r="19.65"/>
</svg>
