<?xml version="1.0" encoding="utf-8"?>
<!-- Generator: Adobe Illustrator 24.0.0, SVG Export Plug-In . SVG Version: 6.00 Build 0)  -->
<svg version="1.1" xmlns="http://www.w3.org/2000/svg" xmlns:xlink="http://www.w3.org/1999/xlink" x="0px" y="0px"
	 viewBox="0 0 792.64 319.26" style="enable-background:new 0 0 792.64 319.26;" xml:space="preserve">
<g id="Layer_1">
</g>
<g id="Layer_2">
	<g id="Layer_3">
	</g>
	<g>
		<path style="fill:#FFFFFF;" d="M69.77,135.88H43.62V88.09H26.15v47.79H0V13.97h26.15v47.96h17.46V13.97h26.15V135.88z"/>
		<path style="fill:#FFFFFF;" d="M153.52,104.7l-17.46,17.46h-34.84L83.74,104.7V17.46L101.21,0h34.84l17.46,17.46V104.7z
			 M127.36,95.93V26.15H109.9v69.77H127.36z"/>
		<path style="fill:#FFFFFF;" d="M228.57,123.87h-61.08V1.7h26.15v96.01h34.93V123.87z"/>
		<path style="fill:#FFFFFF;" d="M298.34,123.87h-61.08V1.7h26.15v96.01h34.93V123.87z"/>
		<path style="fill:#FFFFFF;" d="M380.3,12.18l-26.15,64.58v57.42h-26.15V76.76l-26.24-64.58h26.24l13.03,34.08l13.12-34.08H380.3z"
			/>
		<path style="fill:#FFFFFF;" d="M494.63,15.68l-22.66,122h-27.94l-6.99-40.47l-6.99,40.47h-27.86l-22.58-122h25.98l13.97,67.56
			l10.48-67.56h13.97l10.48,67.56l13.97-67.56H494.63z"/>
		<path style="fill:#FFFFFF;" d="M568.74,104.7l-17.46,17.46h-34.84l-17.46-17.46V17.46L516.44,0h34.84l17.46,17.46V104.7z
			 M542.59,95.93V26.15h-17.46v69.77H542.59z"/>
		<path style="fill:#FFFFFF;" d="M652.49,104.7l-17.46,17.46h-34.84l-17.46-17.46V17.46L600.18,0h34.84l17.46,17.46V104.7z
			 M626.33,95.93V26.15h-17.46v69.77H626.33z"/>
		<path style="fill:#FFFFFF;" d="M736.23,115.18l-17.46,17.21h-52.31V10.48h52.31l17.46,17.46V115.18z M710.08,106.41V36.63h-17.46
			v69.77H710.08z"/>
		<path style="fill:#FFFFFF;" d="M536,225.94c0.08,0.83,0.31,1.95,0.69,3.37c0.37,1.41,0.64,3.05,0.81,4.92
			c0.17,1.87,0.14,3.86-0.06,5.98c-0.21,2.12-0.85,4.3-1.93,6.54c-0.58,0.83-1.33,1.54-2.24,2.12c-0.92,0.58-1.95,0.96-3.12,1.12
			c-2.08,0.33-3.78,0.11-5.11-0.69c-1.33-0.79-2.39-1.87-3.18-3.24c-0.79-1.37-1.35-2.91-1.68-4.61c-0.33-1.7-0.5-3.34-0.5-4.92
			c0.08-3.9,0.56-7.79,1.43-11.65c0.87-3.86,1.81-7.79,2.8-11.78c1.25-4.82,2.49-9.64,3.74-14.46c1.25-4.82,2.49-9.64,3.74-14.46
			v-0.12c-6.65,2.49-13.17,5.65-19.57,9.47c-2.66,1.58-5.34,3.3-8.04,5.17c-2.7,1.87-4.88,4.13-6.54,6.79
			c-0.92,1.41-1.58,2.89-1.99,4.42c-0.42,1.54-0.79,3.1-1.12,4.67c-1.08,4.98-2.08,9.95-2.99,14.89c-0.92,4.94-1.74,9.91-2.49,14.89
			c-0.17,1.33-0.39,3.05-0.69,5.17c-0.29,2.12-0.69,4.32-1.18,6.6c-0.5,2.28-1.12,4.53-1.87,6.73c-0.75,2.2-1.72,3.99-2.93,5.36
			c-1.2,1.37-2.64,2.2-4.3,2.49c-1.66,0.29-3.7-0.27-6.11-1.68c-1.91-1.16-3.45-2.45-4.61-3.86c-1.16-1.41-2.12-2.95-2.87-4.61
			c0.33-2.82,0.95-6.5,1.87-11.03c0.91-4.53,1.99-9.45,3.24-14.77c1.25-5.32,2.6-10.82,4.05-16.51c1.45-5.69,2.8-11.11,4.05-16.26
			c1.25-5.15,2.37-9.8,3.37-13.96c1-4.15,1.7-7.39,2.12-9.72c0.66-3.99,1-7.89,1-11.71c0-3.82-0.21-7.23-0.62-10.22
			c-0.42-3.49-1-6.77-1.75-9.85c0-0.5-0.04-1-0.12-1.49c-0.08-0.5-0.17-1-0.25-1.5c0-0.83,0.02-1.64,0.06-2.43
			c0.04-0.79,0.21-1.54,0.5-2.24c0.29-0.7,0.73-1.29,1.31-1.75c0.58-0.46,1.45-0.77,2.62-0.93c1.83-0.25,3.51,0.02,5.05,0.81
			c1.54,0.79,2.93,1.83,4.17,3.12c1.25,1.29,2.32,2.7,3.24,4.24c0.91,1.54,1.66,2.93,2.24,4.18c1.41,3.41,2.35,7.02,2.8,10.84
			c0.46,3.82,0.35,7.73-0.31,11.71c-0.5,3.16-1.21,6.36-2.12,9.6c-0.92,3.24-1.5,6.44-1.75,9.6c0,0.67,0.06,1.29,0.19,1.87
			c0.12,0.58,0.52,0.83,1.18,0.75c0.41,0,0.91-0.25,1.49-0.75c2.33-1.83,4.78-3.53,7.35-5.11c2.57-1.58,5.19-3.07,7.85-4.49
			c1.41-0.75,2.8-1.45,4.18-2.12c1.37-0.66,2.84-1.29,4.42-1.87c1.08-0.42,2.43-0.85,4.05-1.31c1.62-0.46,2.89-1.1,3.8-1.93
			c0.42-0.42,0.7-0.83,0.87-1.25c0.17-0.42,0.33-0.83,0.5-1.25c1.75-4.98,3.28-9.99,4.61-15.02c1.33-5.03,2.41-10.03,3.24-15.02
			c0.17-1.41,0.54-2.8,1.12-4.17c0.58-1.37,1.54-2.31,2.87-2.8c0.66-0.33,1.33-0.46,1.99-0.37c0.66,0.08,1.29,0.25,1.87,0.5
			c0.66,0.25,1.27,0.58,1.81,1c0.54,0.42,1.06,0.83,1.56,1.25c0.5,1.91,0.93,4.09,1.31,6.54c0.37,2.45,0.39,4.8,0.06,7.04
			c-0.33,1.99-0.75,4.45-1.25,7.35c-0.5,2.91-1.06,5.92-1.68,9.04s-1.29,6.19-1.99,9.22c-0.71,3.03-1.43,5.63-2.18,7.79
			c-0.42,1.5-1.04,3.45-1.87,5.86c-0.83,2.41-1.68,5.03-2.55,7.85c-0.87,2.83-1.79,5.73-2.74,8.72c-0.96,2.99-1.79,5.75-2.49,8.29
			c-0.71,2.54-1.31,4.72-1.81,6.54C536.12,224.28,535.92,225.45,536,225.94z"/>
		<path style="fill:#FFFFFF;" d="M558.43,256.85c-1.83,0.66-3.47,0.95-4.92,0.87c-1.46-0.08-2.74-0.48-3.86-1.18
			c-1.12-0.71-2.04-1.68-2.74-2.93c-0.71-1.25-1.14-2.66-1.31-4.24c-0.25-2.24-0.19-4.67,0.19-7.29c0.37-2.62,0.91-5.25,1.62-7.91
			c0.7-2.66,1.5-5.3,2.37-7.91c0.87-2.62,1.64-5.09,2.31-7.42c0.66-2.32,1.29-4.65,1.87-6.98c0.58-2.32,1.04-4.65,1.37-6.98
			c0.08-1,0.06-2.08-0.06-3.24c-0.12-1.16-0.23-2.32-0.31-3.49c-0.08-1.16-0.1-2.28-0.06-3.37c0.04-1.08,0.23-2.12,0.56-3.12
			c1.08-0.66,2.01-0.87,2.8-0.62c0.79,0.25,1.47,0.67,2.06,1.25c2.66,2.49,4.34,5.69,5.05,9.6c0.7,3.91,0.81,7.85,0.31,11.84
			c-0.58,4.32-1.5,8.75-2.74,13.27c-1.25,4.53-2.58,8.99-3.99,13.4c-0.75,2.41-1.25,4.8-1.5,7.17c-0.25,2.37,0,4.67,0.75,6.92
			c0.08,0.33,0.12,0.69,0.12,1.06S558.35,256.35,558.43,256.85z M558.06,177.47c0.58-2.16,1.54-4.2,2.87-6.11
			c1.33-1.91,3.2-3.32,5.61-4.24c1.58-0.66,3.05-0.66,4.43,0c1.37,0.67,2.01,1.79,1.93,3.37c0,1.91-0.02,3.84-0.06,5.8
			c-0.04,1.95-0.36,3.88-0.93,5.79c-0.42,1-0.93,1.95-1.56,2.87c-0.62,0.92-1.39,1.7-2.31,2.37c-0.83,0.5-1.72,0.83-2.68,1
			c-0.96,0.17-1.93,0.19-2.93,0.06c-1-0.13-1.91-0.35-2.74-0.69c-0.83-0.33-1.41-0.83-1.74-1.49c-0.33-0.5-0.52-1.08-0.56-1.75
			c-0.04-0.66-0.06-1.33-0.06-1.99C557.39,180.87,557.64,179.21,558.06,177.47z"/>
		<path style="fill:#FFFFFF;" d="M586.84,206.25c1.08-1,2.08-2.03,2.99-3.12c0.91-1.08,1.91-2.08,2.99-2.99
			c2.82-2.49,5.75-4.05,8.79-4.67c3.03-0.62,5.88-0.54,8.54,0.25c2.66,0.79,4.98,2.16,6.98,4.11c1.99,1.95,3.41,4.3,4.24,7.04
			c0.75,2.74,1.1,5.63,1.06,8.66c-0.04,3.03-0.52,6.11-1.43,9.22c-0.92,3.12-2.16,6.17-3.74,9.16c-1.58,2.99-3.45,5.73-5.61,8.22
			c-1.58,1.83-3.35,3.51-5.3,5.05c-1.95,1.54-4.05,2.76-6.29,3.68c-4.41,1.91-8.29,2.58-11.65,1.99c-3.37-0.58-6.67-1.91-9.91-3.99
			c-0.08,0-0.42,0.81-1,2.43c-0.58,1.62-1.2,3.43-1.87,5.42c-0.67,1.99-1.27,3.88-1.81,5.67c-0.54,1.79-0.85,2.85-0.93,3.18
			c1.08,0.33,2.16,0.79,3.24,1.37c0.91,0.5,1.83,1.14,2.74,1.93c0.91,0.79,1.7,1.76,2.37,2.93c0.5,1,0.79,2.18,0.87,3.55
			c0.08,1.37,0.04,2.78-0.12,4.24c-0.17,1.45-0.46,2.91-0.87,4.36c-0.42,1.45-0.83,2.76-1.25,3.93c-1.99,5.23-4.72,10.43-8.16,15.58
			c-3.45,5.15-7.46,9.68-12.03,13.58c-1.91,1.66-3.55,2.39-4.92,2.18c-1.37-0.21-2.47-0.92-3.3-2.12c-0.83-1.21-1.37-2.7-1.62-4.49
			c-0.25-1.79-0.25-3.47,0-5.05c0.75-4.82,1.68-9.66,2.8-14.52c1.12-4.86,2.26-9.7,3.43-14.52l1.25-5.48
			c-0.58,0.08-1.04,0.21-1.37,0.37c-0.91,0.33-1.54,0.58-1.87,0.75c-1.25,0.66-2.35,1.41-3.3,2.24c-0.95,0.83-1.81,1.64-2.55,2.43
			c-0.75,0.79-1.43,1.5-2.06,2.12c-0.62,0.62-1.14,0.97-1.56,1.06c-1,0.33-1.72,0.25-2.18-0.25c-0.46-0.5-0.52-1.25-0.19-2.24
			c1.41-3.82,3.76-6.9,7.04-9.22c3.28-2.33,6.75-4.2,10.41-5.61c0.41-1.91,0.83-3.74,1.25-5.48c0.33-1.5,0.69-2.99,1.06-4.49
			c0.37-1.5,0.64-2.66,0.81-3.49c1.5-6.48,3.24-12.88,5.23-19.19c1.99-6.31,3.86-12.71,5.61-19.19c0.75-2.66,1.54-5.42,2.37-8.29
			c0.83-2.87,1.04-5.5,0.62-7.91c-0.33-1.33,0.13-2.66,1.37-3.99c0.58-0.66,1.2-0.81,1.87-0.44c0.66,0.37,1.27,0.96,1.81,1.75
			c0.54,0.79,1,1.6,1.37,2.43c0.37,0.83,0.64,1.41,0.81,1.75c0.17,0.25,0.41,0.81,0.75,1.68c0.33,0.87,0.66,1.77,1,2.68
			c0.33,0.92,0.66,1.75,1,2.49C586.93,205.75,587.01,206.17,586.84,206.25z M564.91,300.22c2.41-2.91,4.4-6.15,5.98-9.72
			c1.58-3.57,2.49-7.06,2.74-10.47c0-1.33-0.21-2.43-0.62-3.3c-0.42-0.87-1.16-1.6-2.24-2.18c-0.42,0.91-0.93,2.33-1.56,4.24
			c-0.62,1.91-1.21,4.07-1.75,6.48c-0.54,2.41-1.06,4.92-1.56,7.54C565.41,295.42,565.08,297.89,564.91,300.22z M584.23,243.39
			c0.75-0.08,1.52-0.23,2.31-0.44c0.79-0.21,1.56-0.48,2.31-0.81c0.75-0.33,1.45-0.7,2.12-1.12c0.66-0.41,1.33-0.87,1.99-1.37
			c2.41-1.91,4.59-4.09,6.54-6.54c1.95-2.45,3.59-5.03,4.92-7.73c1.33-2.7,2.37-5.48,3.12-8.35c0.75-2.87,1.2-5.63,1.37-8.29
			c0-0.75,0-1.56,0-2.43c0-0.87-0.17-1.68-0.5-2.43c-0.33-0.75-0.77-1.35-1.31-1.81c-0.54-0.46-1.35-0.6-2.43-0.44
			c-2.58,0.33-4.86,1.29-6.85,2.87c-1.99,1.58-3.78,3.37-5.36,5.36c-2.49,3.16-4.53,6.21-6.11,9.16c-1.58,2.95-2.66,6.25-3.24,9.91
			c-0.08,0.33-0.31,1.23-0.69,2.68c-0.37,1.46-0.73,3.01-1.06,4.67c-0.33,1.66-0.79,3.86-1.37,6.61
			C581.4,243.47,582.81,243.64,584.23,243.39z"/>
		<path style="fill:#FFFFFF;" d="M645.92,212.23c-0.67,1.16-0.98,2.41-0.93,3.74c0.04,1.33,0.19,2.54,0.44,3.61
			c0.33,2.66,0.89,5.19,1.68,7.6c0.79,2.41,1.6,4.82,2.43,7.23c0.91,2.33,1.45,4.92,1.62,7.79c0.17,2.87-0.54,5.63-2.12,8.29
			c-1.41,2.33-3.41,4.13-5.98,5.42c-2.58,1.29-5.07,1.97-7.48,2.06c-2.74,0.17-5.28-0.19-7.6-1.06c-2.33-0.87-4.11-2.43-5.36-4.67
			c-0.75-1.08-1.04-2.2-0.87-3.37c0.08-0.66,0.31-1.45,0.69-2.37c0.37-0.91,0.83-1.83,1.37-2.74c0.54-0.91,1.06-1.79,1.56-2.62
			c0.5-0.83,1-1.54,1.5-2.12c0.41-0.58,0.89-1.08,1.43-1.5c0.54-0.41,1.14-0.58,1.81-0.5c0.75,0.17,1.25,0.62,1.5,1.37
			c0.25,0.75,0.25,1.52,0,2.31c-0.25,0.79-0.37,1.6-0.37,2.43c-0.08,0.75-0.06,1.54,0.06,2.37c0.12,0.83,0.39,1.5,0.81,1.99
			c0.5,0.58,0.97,0.85,1.43,0.81c0.46-0.04,0.93-0.23,1.43-0.56c0.5-0.33,0.93-0.77,1.31-1.31c0.37-0.54,0.73-1.06,1.06-1.56
			c1.33-2.16,1.93-4.15,1.81-5.98c-0.12-1.83-0.56-3.7-1.31-5.61c-0.5-1.41-0.98-2.87-1.43-4.36c-0.46-1.5-1.02-2.95-1.68-4.36
			c-0.58-1.58-1.1-3.28-1.56-5.11c-0.46-1.83-0.79-3.69-1-5.61c-0.21-1.91-0.17-3.82,0.12-5.73c0.29-1.91,0.89-3.82,1.81-5.73
			c1.16-2.33,2.68-4.28,4.55-5.86c1.87-1.58,3.92-2.8,6.17-3.68c2.24-0.87,4.49-1.37,6.73-1.5c2.24-0.12,4.4,0.11,6.48,0.69
			c1.33,0.42,2.7,0.98,4.11,1.68c1.41,0.71,2.68,1.56,3.8,2.55c1.12,1,1.99,2.16,2.62,3.49c0.62,1.33,0.81,2.83,0.56,4.49
			c-0.75,3.74-2.35,6.88-4.8,9.41c-2.45,2.54-5.71,3.84-9.78,3.92c-2.41,0-4.16-0.5-5.23-1.49
			C648.2,215.1,647.08,213.81,645.92,212.23z M646.91,209.74c0.58,0.83,1.29,1.25,2.12,1.25c0.83,0,1.68-0.21,2.55-0.62
			c0.87-0.42,1.66-1.02,2.37-1.81c0.7-0.79,1.31-1.6,1.81-2.43c0.58-1,1.08-2.31,1.49-3.93c0.42-1.62,0.29-2.89-0.37-3.8
			c-0.33-0.66-0.92-0.93-1.74-0.81c-0.83,0.13-1.7,0.44-2.62,0.93c-0.92,0.5-1.74,1.08-2.49,1.75c-0.75,0.67-1.29,1.25-1.62,1.74
			c-0.75,1-1.35,2.29-1.81,3.86c-0.46,1.58-0.4,2.78,0.19,3.61C646.87,209.58,646.91,209.66,646.91,209.74z"/>
		<path style="fill:#FFFFFF;" d="M694.14,238.9c0.5,0.42,0.71,1.16,0.62,2.24c-0.08,1-0.39,1.99-0.93,2.99
			c-0.54,1-1.18,1.97-1.93,2.93c-0.75,0.96-1.58,1.83-2.49,2.62c-0.92,0.79-1.74,1.52-2.49,2.18c-1.74,1.41-4.36,2.66-7.85,3.74
			c-3.32,1.08-5.94,1.25-7.85,0.5c-1-0.5-1.81-1.16-2.43-1.99c-0.62-0.83-1.1-1.79-1.43-2.87c-0.33-1.08-0.54-2.2-0.62-3.36
			s-0.12-2.33-0.12-3.49c0.42-3.74,1.25-7.43,2.49-11.09c1.25-3.65,2.41-7.35,3.49-11.09c0.75-2.08,1.56-4.65,2.43-7.73
			c0.87-3.07,1.79-6.23,2.74-9.47c0.95-3.24,1.89-6.37,2.8-9.41c0.91-3.03,1.79-5.59,2.62-7.66c-3.16,0-5.86-0.42-8.1-1.25
			c-3.82-1.33-6.48-2.95-7.98-4.86c-1.5-1.91-2.24-3.78-2.24-5.61c0-1.83,0.5-3.38,1.5-4.67c1-1.29,2.03-2.01,3.12-2.18
			c1.08-0.08,1.83,0,2.24,0.25c0.41,0.25,0.64,0.56,0.69,0.93c0.04,0.37-0.02,0.79-0.19,1.25c-0.17,0.46-0.25,0.81-0.25,1.06
			c-0.08,0.5-0.04,1.1,0.13,1.81c0.17,0.71,0.5,1.39,1,2.06c0.5,0.67,1.16,1.25,1.99,1.75c0.83,0.5,1.83,0.79,2.99,0.87
			c1.16,0.08,2.39,0.1,3.68,0.06c1.29-0.04,2.55-0.14,3.8-0.31c0.83-1.99,1.6-3.63,2.31-4.92c0.7-1.29,1.35-2.49,1.93-3.61
			c0.58-1.12,1.18-2.32,1.81-3.61c0.62-1.29,1.31-2.93,2.06-4.92c0.17-0.5,0.44-1.06,0.81-1.68c0.37-0.62,0.79-1.18,1.25-1.68
			c0.46-0.5,0.91-0.87,1.37-1.12c0.46-0.25,0.89-0.25,1.31,0c0.5,0.25,0.89,0.73,1.18,1.43c0.29,0.71,0.52,1.48,0.69,2.31
			c0.17,0.83,0.27,1.68,0.31,2.55c0.04,0.87,0.06,1.6,0.06,2.18c0.08,1.33,0.17,2.41,0.25,3.24c0.08,0.83,0.1,1.62,0.06,2.37
			c-0.04,0.75-0.17,1.58-0.37,2.49c-0.21,0.92-0.56,2.04-1.06,3.37c3.32-1,6.54-2.06,9.66-3.18c3.12-1.12,6.02-2.14,8.72-3.05
			c2.7-0.91,5.07-1.66,7.1-2.24c2.03-0.58,3.63-0.83,4.8-0.75c2.49,0.33,4.28,0.89,5.36,1.68c1.08,0.79,1.66,1.7,1.75,2.74
			c0.08,1.04-0.19,2.12-0.81,3.24c-0.62,1.12-1.35,2.16-2.18,3.12c-0.83,0.96-1.66,1.77-2.49,2.43c-0.83,0.67-1.37,1-1.62,1
			c-0.67,0.08-1.1-0.17-1.31-0.75c-0.21-0.58-0.36-1.2-0.44-1.87c-0.08-0.66-0.21-1.31-0.37-1.93c-0.17-0.62-0.54-0.93-1.12-0.93
			c-0.42,0-1.45,0.31-3.12,0.93c-1.66,0.62-3.74,1.37-6.23,2.24c-2.49,0.87-5.3,1.81-8.41,2.8s-6.34,1.91-9.66,2.74
			c-0.25,0.67-0.62,1.77-1.12,3.3c-0.5,1.54-1.02,3.24-1.56,5.11c-0.54,1.87-1.1,3.82-1.68,5.86c-0.58,2.04-1.12,3.91-1.62,5.61
			c-0.5,1.7-0.92,3.14-1.25,4.3c-0.33,1.16-0.54,1.83-0.62,1.99l-4.24,12.71c-0.67,2.16-1.35,4.3-2.06,6.42
			c-0.71,2.12-1.43,4.26-2.18,6.42c-0.42,1.33-0.92,2.66-1.5,3.99c-0.58,1.33-0.96,2.7-1.12,4.11c-0.08,0.58-0.11,1.12-0.06,1.62
			c0.04,0.5,0.1,1,0.19,1.5c0.25,0.75,0.48,1.1,0.69,1.06c0.21-0.04,0.69-0.31,1.43-0.81c1.08-0.75,2.03-1.58,2.87-2.49
			c0.83-0.91,1.7-1.83,2.62-2.74c0.25-0.33,0.64-0.83,1.18-1.5c0.54-0.66,1.1-1.29,1.68-1.87c0.58-0.58,1.16-1.04,1.74-1.37
			C693.11,238.57,693.65,238.57,694.14,238.9z"/>
		<path style="fill:#FFFFFF;" d="M716.95,232.05c-0.58,0.92-0.89,2.33-0.93,4.24c-0.04,1.91,0.17,3.74,0.62,5.48
			c0.46,1.75,1.2,3.12,2.24,4.11c1.04,1,2.35,1,3.93,0c2.49-1.66,4.57-3.65,6.23-5.98c1.41-1.83,2.95-3.7,4.61-5.61
			c1.08-1.25,2.28-1.54,3.61-0.87c1.41,0.67,2.45,1.64,3.12,2.93c0.66,1.29,1.08,2.72,1.25,4.3c0.08,0.42,0.04,0.81-0.12,1.18
			c-0.17,0.37-0.37,0.73-0.62,1.06c-0.58,0.83-1.16,1.66-1.75,2.49c-0.58,0.83-1.25,1.58-1.99,2.24c-2.58,2.41-5.32,4.36-8.23,5.86
			c-2.91,1.49-5.98,2.28-9.22,2.37c-1.41,0-2.78-0.1-4.11-0.31c-1.33-0.21-2.49-0.64-3.49-1.31c-2.66-1.75-4.97-3.63-6.92-5.67
			c-1.95-2.03-3.35-4.63-4.17-7.79c-0.42-1.25-0.6-2.53-0.56-3.86c0.04-1.33,0.1-2.7,0.19-4.11c0.25-3.74,1-7.42,2.24-11.03
			c1.25-3.61,2.7-7.25,4.36-10.9c1.99-4.74,4.9-9.1,8.72-13.09c1.66-1.66,3.45-2.82,5.36-3.49c1.91-0.66,3.86-0.95,5.86-0.87
			c1.16,0.08,2.35,0.25,3.55,0.5c1.2,0.25,2.35,0.58,3.43,1c4.65,1.58,7.43,4.94,8.35,10.09c0.33,1.99,0.27,4.11-0.19,6.36
			c-0.46,2.24-1.27,4.43-2.43,6.54c-1.16,2.12-2.62,4.11-4.36,5.98c-1.74,1.87-3.78,3.47-6.11,4.8c-1.33,0.67-2.62,1.16-3.86,1.5
			c-1.25,0.33-2.58,0.62-3.99,0.87c-0.75,0.17-1.52,0.33-2.31,0.5C718.46,231.72,717.7,231.88,716.95,232.05z M718.32,225.94
			c0.66-0.08,1.18-0.1,1.56-0.06c0.37,0.04,0.69-0.02,0.93-0.19c1.58-0.83,3.09-1.7,4.55-2.62c1.45-0.91,2.47-2.32,3.05-4.24
			c0-0.17,0.06-0.35,0.19-0.56c0.13-0.21,0.27-0.39,0.44-0.56c1.33-2.41,2.08-4.78,2.24-7.1c0.17-2.32-0.08-4.61-0.75-6.85
			l-0.62-0.5c-1.91,1.16-3.41,2.66-4.49,4.49c-1.25,2.16-2.41,4.36-3.49,6.6c-1.08,2.24-1.95,4.57-2.62,6.98L718.32,225.94z"/>
		<path style="fill:#FFFFFF;" d="M776.27,181.08l0.25,0.75c0.25,0.58,0.56,1.06,0.93,1.43c0.37,0.37,0.73,0.77,1.06,1.18
			c3.07,2.83,5.65,5.86,7.73,9.1c0.91,1.41,1.7,2.85,2.37,4.3c0.66,1.45,1.04,3.05,1.12,4.8c0.08,1.91-0.4,4.49-1.43,7.73
			c-1.04,3.24-2.26,6.6-3.68,10.1c-1.41,3.49-2.85,6.83-4.3,10.03c-1.45,3.2-2.55,5.71-3.3,7.54c-0.67,1.5-1.23,2.91-1.68,4.24
			c-0.46,1.33-0.85,2.74-1.18,4.24c0,0.25,0,0.65,0,1.18c0,0.54,0.08,0.85,0.25,0.93c0.25,0,0.77-0.23,1.56-0.69
			c0.79-0.46,1.85-1.52,3.18-3.18c1.08-1.33,2.16-2.7,3.24-4.11c1.08-1.41,2.1-2.78,3.05-4.11c0.95-1.33,1.81-2.53,2.56-3.61
			c0.75-1.08,1.25-1.95,1.49-2.62c0.83,0.5,1.64,1.27,2.43,2.31c0.79,1.04,0.93,2.18,0.44,3.43c-0.17,0.25-0.5,0.89-1,1.93
			c-0.5,1.04-1.16,2.33-1.99,3.86c-0.83,1.54-1.83,3.22-2.99,5.05c-1.16,1.83-2.37,3.61-3.61,5.36c-1.25,1.66-2.43,3.03-3.55,4.11
			c-1.12,1.08-2.68,1.83-4.67,2.24c-1,0.25-2.02,0.29-3.05,0.12c-1.04-0.17-2.02-0.46-2.93-0.87c-2.24-1.08-4.05-2.68-5.42-4.8
			c-1.37-2.12-2.22-4.51-2.55-7.17c-0.33-2.66-0.17-5.36,0.5-8.1c0.66-2.74,1.66-5.44,2.99-8.1c0.58-1,1.41-2.7,2.49-5.11
			c1.08-2.41,2.22-4.98,3.43-7.73c1.2-2.74,2.35-5.32,3.43-7.73c1.08-2.41,1.79-4.11,2.12-5.11c0.91-2.08,1.33-4.18,1.25-6.29
			c-0.08-2.12-0.83-3.76-2.24-4.92c-0.42-0.33-0.71-0.46-0.87-0.37c-0.5,0.17-0.83,0.58-1,1.25c-0.75,1.99-1.97,4.78-3.68,8.35
			c-1.7,3.57-3.76,7.46-6.17,11.65c-2.41,4.2-5.05,8.5-7.91,12.9c-2.87,4.4-5.86,8.37-8.97,11.9c-3.12,3.53-6.21,6.44-9.28,8.72
			c-3.08,2.29-5.94,3.43-8.6,3.43c-0.91,0-1.68-0.29-2.31-0.87c-0.62-0.58-1.1-1.23-1.43-1.93c-0.33-0.7-0.44-1.39-0.31-2.06
			c0.13-0.66,0.52-1.12,1.18-1.37c3.99-1.25,7.71-3.22,11.15-5.92c3.45-2.7,6.62-5.75,9.53-9.16c2.91-3.41,5.5-7,7.79-10.78
			c2.28-3.78,4.3-7.41,6.04-10.9c1.74-3.49,3.14-6.62,4.17-9.41c1.04-2.78,1.81-4.92,2.31-6.42c0.33-0.91,0.62-1.89,0.87-2.93
			c0.25-1.04,0.29-2.01,0.13-2.93c-0.17-1.58-0.75-2.95-1.75-4.11s-2.04-2.33-3.12-3.49c-1.74-1.91-2.99-4.15-3.74-6.73
			c-0.42-1.99-0.15-3.97,0.81-5.92c0.95-1.95,2.24-3.55,3.86-4.8s3.38-1.97,5.3-2.18c1.91-0.21,3.59,0.37,5.05,1.75
			c1.45,1.37,2.49,3.7,3.12,6.98C777.33,170.72,777.18,175.26,776.27,181.08z"/>
	</g>
	<g>
		<defs>
			
				<ellipse id="SVGID_1_" transform="matrix(0.982 -0.1891 0.1891 0.982 6.6065 97.9566)" cx="516.62" cy="14.36" rx="10.87" ry="10.87"/>
		</defs>
		<use xlink:href="#SVGID_1_"  style="overflow:visible;fill:#FFFFFF;"/>
		<clipPath id="SVGID_2_">
			<use xlink:href="#SVGID_1_"  style="overflow:visible;"/>
		</clipPath>
	</g>
</g>
</svg>
