<?xml version="1.0" encoding="utf-8"?>
<!-- Generator: Adobe Illustrator 24.0.0, SVG Export Plug-In . SVG Version: 6.00 Build 0)  -->
<svg version="1.1" xmlns="http://www.w3.org/2000/svg" xmlns:xlink="http://www.w3.org/1999/xlink" x="0px" y="0px"
	 viewBox="0 0 1000 1000" style="enable-background:new 0 0 1000 1000;" xml:space="preserve">
<g id="Layer_1">
	<g>
		<path style="fill:#2F495E;" d="M239.5,469.2c164-94.7,527-322.5,527-322.5c15.1-8.7,20.3-28,11.6-43.1l-31.6-77.8
			c-8.7-15.1-28-20.3-43.1-11.5l-597.2,363c-15.1,8.7-20.3,28-11.6,43.1l57.2,62l0,2.5h65.5L239.5,469.2z M652.8,88.9l97.8,30.4
			l-109.4,63.1L543.4,152L652.8,88.9z M434.1,215.2l97.8,30.4l-109.4,63.1l-97.8-30.4L434.1,215.2z M138.5,404.1L247,341.5
			l97.8,30.4L233.7,436L138.5,404.1z"/>
	</g>
</g>
<g id="Layer_2">
	<g id="Layer_3">
		<path style="fill:#2F495E;" d="M878.2,482.9H217.3h-65.5l0.4,473.5c0,17.4,14.1,31.6,31.6,31.6h694.5c17.4,0,31.6-14.1,31.6-31.6
			V514.5C909.7,497,895.6,482.9,878.2,482.9z M276.4,609.2l-91.7-100.7H310l94.7,100.7H276.4z M751.9,603.2l-94.7-88.7l126.3-3
			l94.7,91.7H751.9z"/>
	</g>
	<g>
		<path style="fill:#FFFFFF;" d="M291.46,831.08h-20.99v-38.35h-14.01v38.35h-20.99v-97.82h20.99v38.49h14.01v-38.49h20.99V831.08z"
			/>
		<path style="fill:#FFFFFF;" d="M358.65,806.06l-14.01,14.01h-27.96l-14.01-14.01v-70l14.01-14.01h27.96l14.01,14.01V806.06z
			 M337.67,799.02v-55.99h-14.01v55.99H337.67z"/>
		<path style="fill:#FFFFFF;" d="M418.88,821.44h-49.01v-98.03h20.99v77.04h28.03V821.44z"/>
		<path style="fill:#FFFFFF;" d="M474.86,821.44h-49.01v-98.03h20.99v77.04h28.03V821.44z"/>
		<path style="fill:#FFFFFF;" d="M540.63,731.82l-20.99,51.82v46.07h-20.99v-46.07l-21.05-51.82h21.05l10.46,27.34l10.53-27.34
			H540.63z"/>
		<path style="fill:#FFFFFF;" d="M632.36,734.62l-18.18,97.89h-22.42l-5.61-32.47l-5.61,32.47h-22.35l-18.12-97.89h20.85
			l11.21,54.21l8.41-54.21h11.21l8.41,54.21l11.21-54.21H632.36z"/>
		<path style="fill:#FFFFFF;" d="M691.84,806.06l-14.01,14.01h-27.96l-14.01-14.01v-70l14.01-14.01h27.96l14.01,14.01V806.06z
			 M670.85,799.02v-55.99h-14.01v55.99H670.85z"/>
		<path style="fill:#FFFFFF;" d="M759.03,806.06l-14.01,14.01h-27.96l-14.01-14.01v-70l14.01-14.01h27.96l14.01,14.01V806.06z
			 M738.05,799.02v-55.99h-14.01v55.99H738.05z"/>
		<path style="fill:#FFFFFF;" d="M826.23,814.47l-14.01,13.81h-41.97v-97.82h41.97l14.01,14.01V814.47z M805.25,807.43v-55.99
			h-14.01v55.99H805.25z"/>
		<path style="fill:#FFFFFF;" d="M665.56,903.35c0.07,0.67,0.25,1.57,0.55,2.7c0.3,1.13,0.52,2.45,0.65,3.95
			c0.13,1.5,0.12,3.1-0.05,4.8c-0.17,1.7-0.68,3.45-1.55,5.25c-0.47,0.67-1.07,1.23-1.8,1.7c-0.73,0.47-1.57,0.77-2.5,0.9
			c-1.67,0.27-3.04,0.08-4.1-0.55c-1.07-0.63-1.92-1.5-2.55-2.6c-0.63-1.1-1.08-2.33-1.35-3.7c-0.27-1.37-0.4-2.68-0.4-3.95
			c0.07-3.13,0.45-6.25,1.15-9.35c0.7-3.1,1.45-6.25,2.25-9.45c1-3.87,2-7.73,3-11.6c1-3.87,2-7.73,3-11.6v-0.1
			c-5.33,2-10.57,4.53-15.7,7.6c-2.13,1.27-4.28,2.65-6.45,4.15c-2.17,1.5-3.92,3.32-5.25,5.45c-0.73,1.13-1.27,2.32-1.6,3.55
			c-0.33,1.23-0.63,2.48-0.9,3.75c-0.87,4-1.67,7.98-2.4,11.95c-0.73,3.97-1.4,7.95-2,11.95c-0.13,1.07-0.32,2.45-0.55,4.15
			c-0.23,1.7-0.55,3.47-0.95,5.3c-0.4,1.83-0.9,3.63-1.5,5.4c-0.6,1.77-1.38,3.2-2.35,4.3c-0.97,1.1-2.12,1.77-3.45,2
			c-1.33,0.23-2.97-0.22-4.9-1.35c-1.54-0.93-2.77-1.97-3.7-3.1c-0.93-1.13-1.7-2.37-2.3-3.7c0.27-2.27,0.77-5.21,1.5-8.85
			c0.73-3.63,1.6-7.58,2.6-11.85c1-4.27,2.08-8.68,3.25-13.25c1.17-4.57,2.25-8.92,3.25-13.05c1-4.13,1.9-7.87,2.7-11.2
			c0.8-3.33,1.37-5.93,1.7-7.8c0.53-3.2,0.8-6.33,0.8-9.4c0-3.07-0.17-5.8-0.5-8.2c-0.33-2.8-0.8-5.43-1.4-7.9
			c0-0.4-0.03-0.8-0.1-1.2c-0.07-0.4-0.13-0.8-0.2-1.2c0-0.67,0.02-1.32,0.05-1.95c0.03-0.63,0.17-1.23,0.4-1.8
			c0.23-0.57,0.58-1.03,1.05-1.4c0.47-0.37,1.17-0.62,2.1-0.75c1.47-0.2,2.82,0.02,4.05,0.65c1.23,0.63,2.35,1.47,3.35,2.5
			c1,1.03,1.87,2.17,2.6,3.4c0.73,1.23,1.33,2.35,1.8,3.35c1.13,2.73,1.88,5.63,2.25,8.7c0.37,3.07,0.28,6.2-0.25,9.4
			c-0.4,2.53-0.97,5.1-1.7,7.7c-0.73,2.6-1.2,5.17-1.4,7.7c0,0.53,0.05,1.03,0.15,1.5c0.1,0.47,0.42,0.67,0.95,0.6
			c0.33,0,0.73-0.2,1.2-0.6c1.87-1.47,3.83-2.83,5.9-4.1c2.07-1.27,4.17-2.46,6.3-3.6c1.13-0.6,2.25-1.17,3.35-1.7
			c1.1-0.53,2.28-1.03,3.55-1.5c0.87-0.33,1.95-0.68,3.25-1.05c1.3-0.37,2.32-0.88,3.05-1.55c0.33-0.33,0.57-0.67,0.7-1
			c0.13-0.33,0.27-0.67,0.4-1c1.4-4,2.63-8.02,3.7-12.05c1.07-4.03,1.93-8.05,2.6-12.05c0.13-1.13,0.43-2.25,0.9-3.35
			c0.47-1.1,1.23-1.85,2.3-2.25c0.53-0.27,1.07-0.37,1.6-0.3c0.53,0.07,1.03,0.2,1.5,0.4c0.53,0.2,1.02,0.47,1.45,0.8
			c0.43,0.33,0.85,0.67,1.25,1c0.4,1.53,0.75,3.28,1.05,5.25c0.3,1.97,0.32,3.85,0.05,5.65c-0.27,1.6-0.6,3.57-1,5.9
			c-0.4,2.33-0.85,4.75-1.35,7.25s-1.04,4.97-1.6,7.4c-0.57,2.43-1.15,4.52-1.75,6.25c-0.33,1.2-0.83,2.77-1.5,4.7
			c-0.67,1.93-1.35,4.03-2.05,6.3c-0.7,2.27-1.43,4.6-2.2,7c-0.77,2.4-1.43,4.62-2,6.65c-0.57,2.03-1.05,3.78-1.45,5.25
			C665.66,902.01,665.5,902.95,665.56,903.35z"/>
		<path style="fill:#FFFFFF;" d="M683.56,928.15c-1.47,0.53-2.78,0.77-3.95,0.7c-1.17-0.07-2.2-0.38-3.1-0.95
			c-0.9-0.57-1.63-1.35-2.2-2.35s-0.92-2.13-1.05-3.4c-0.2-1.8-0.15-3.75,0.15-5.85s0.73-4.22,1.3-6.35c0.57-2.13,1.2-4.25,1.9-6.35
			c0.7-2.1,1.32-4.08,1.85-5.95c0.53-1.87,1.03-3.73,1.5-5.6c0.47-1.87,0.83-3.73,1.1-5.6c0.07-0.8,0.05-1.67-0.05-2.6
			c-0.1-0.93-0.18-1.87-0.25-2.8c-0.07-0.93-0.08-1.83-0.05-2.7c0.03-0.87,0.18-1.7,0.45-2.5c0.87-0.53,1.62-0.7,2.25-0.5
			c0.63,0.2,1.18,0.53,1.65,1c2.13,2,3.48,4.57,4.05,7.7c0.57,3.13,0.65,6.3,0.25,9.5c-0.47,3.47-1.2,7.02-2.2,10.65
			c-1,3.63-2.07,7.22-3.2,10.75c-0.6,1.93-1,3.85-1.2,5.75c-0.2,1.9,0,3.75,0.6,5.55c0.07,0.27,0.1,0.55,0.1,0.85
			S683.5,927.75,683.56,928.15z M683.26,864.45c0.47-1.73,1.23-3.37,2.3-4.9c1.07-1.53,2.57-2.67,4.5-3.4
			c1.27-0.53,2.45-0.53,3.55,0c1.1,0.54,1.62,1.43,1.55,2.7c0,1.53-0.02,3.08-0.05,4.65c-0.04,1.57-0.29,3.12-0.75,4.65
			c-0.33,0.8-0.75,1.57-1.25,2.3c-0.5,0.73-1.12,1.37-1.85,1.9c-0.67,0.4-1.38,0.67-2.15,0.8c-0.77,0.13-1.55,0.15-2.35,0.05
			c-0.8-0.1-1.53-0.28-2.2-0.55c-0.67-0.27-1.13-0.67-1.4-1.2c-0.27-0.4-0.42-0.87-0.45-1.4c-0.03-0.53-0.05-1.07-0.05-1.6
			C682.73,867.18,682.93,865.85,683.26,864.45z"/>
		<path style="fill:#FFFFFF;" d="M706.36,887.55c0.87-0.8,1.67-1.63,2.4-2.5c0.73-0.87,1.53-1.67,2.4-2.4
			c2.27-2,4.62-3.25,7.05-3.75c2.43-0.5,4.71-0.43,6.85,0.2c2.13,0.63,4,1.73,5.6,3.3c1.6,1.57,2.73,3.45,3.4,5.65
			c0.6,2.2,0.88,4.52,0.85,6.95c-0.03,2.43-0.42,4.9-1.15,7.4c-0.73,2.5-1.73,4.95-3,7.35c-1.27,2.4-2.77,4.6-4.5,6.6
			c-1.27,1.47-2.68,2.82-4.25,4.05c-1.57,1.23-3.25,2.22-5.05,2.95c-3.54,1.53-6.65,2.07-9.35,1.6c-2.7-0.47-5.35-1.53-7.95-3.2
			c-0.07,0-0.33,0.65-0.8,1.95c-0.47,1.3-0.97,2.75-1.5,4.35c-0.53,1.6-1.02,3.12-1.45,4.55c-0.43,1.43-0.68,2.28-0.75,2.55
			c0.87,0.27,1.73,0.63,2.6,1.1c0.73,0.4,1.47,0.92,2.2,1.55c0.73,0.63,1.37,1.42,1.9,2.35c0.4,0.8,0.63,1.75,0.7,2.85
			c0.07,1.1,0.03,2.23-0.1,3.4c-0.13,1.17-0.37,2.33-0.7,3.5c-0.33,1.17-0.67,2.22-1,3.15c-1.6,4.2-3.78,8.37-6.55,12.5
			c-2.77,4.13-5.98,7.77-9.65,10.9c-1.53,1.33-2.85,1.92-3.95,1.75c-1.1-0.17-1.98-0.73-2.65-1.7c-0.67-0.97-1.1-2.17-1.3-3.6
			c-0.2-1.43-0.2-2.78,0-4.05c0.6-3.87,1.35-7.75,2.25-11.65c0.9-3.9,1.82-7.79,2.75-11.65l1-4.4c-0.46,0.07-0.83,0.17-1.1,0.3
			c-0.73,0.27-1.23,0.46-1.5,0.6c-1,0.53-1.88,1.13-2.65,1.8c-0.77,0.67-1.45,1.32-2.05,1.95c-0.6,0.63-1.15,1.2-1.65,1.7
			s-0.92,0.78-1.25,0.85c-0.8,0.27-1.38,0.2-1.75-0.2c-0.37-0.4-0.42-1-0.15-1.8c1.13-3.07,3.02-5.53,5.65-7.4
			c2.63-1.87,5.42-3.37,8.35-4.5c0.33-1.54,0.67-3,1-4.4c0.27-1.2,0.55-2.4,0.85-3.6c0.3-1.2,0.52-2.13,0.65-2.8
			c1.2-5.2,2.6-10.33,4.2-15.4c1.6-5.07,3.1-10.2,4.5-15.4c0.6-2.13,1.23-4.35,1.9-6.65c0.67-2.3,0.83-4.42,0.5-6.35
			c-0.27-1.07,0.1-2.13,1.1-3.2c0.47-0.53,0.97-0.65,1.5-0.35c0.53,0.3,1.02,0.77,1.45,1.4c0.43,0.63,0.8,1.28,1.1,1.95
			c0.3,0.67,0.52,1.13,0.65,1.4c0.13,0.2,0.33,0.65,0.6,1.35c0.27,0.7,0.53,1.42,0.8,2.15c0.27,0.73,0.53,1.4,0.8,2
			C706.43,887.15,706.49,887.48,706.36,887.55z M688.76,962.95c1.93-2.33,3.53-4.93,4.8-7.8c1.27-2.87,2-5.67,2.2-8.4
			c0-1.07-0.17-1.95-0.5-2.65c-0.33-0.7-0.93-1.28-1.8-1.75c-0.33,0.73-0.75,1.87-1.25,3.4c-0.5,1.53-0.97,3.27-1.4,5.2
			c-0.43,1.93-0.85,3.95-1.25,6.05C689.16,959.1,688.89,961.08,688.76,962.95z M704.26,917.35c0.6-0.07,1.22-0.18,1.85-0.35
			c0.63-0.17,1.25-0.38,1.85-0.65c0.6-0.27,1.17-0.57,1.7-0.9c0.53-0.33,1.07-0.7,1.6-1.1c1.93-1.53,3.68-3.28,5.25-5.25
			c1.57-1.97,2.88-4.03,3.95-6.2c1.07-2.17,1.9-4.4,2.5-6.7c0.6-2.3,0.96-4.52,1.1-6.65c0-0.6,0-1.25,0-1.95s-0.13-1.35-0.4-1.95
			c-0.27-0.6-0.62-1.08-1.05-1.45c-0.43-0.37-1.08-0.48-1.95-0.35c-2.07,0.27-3.9,1.03-5.5,2.3c-1.6,1.27-3.03,2.7-4.3,4.3
			c-2,2.53-3.63,4.98-4.9,7.35c-1.27,2.37-2.13,5.02-2.6,7.95c-0.07,0.27-0.25,0.98-0.55,2.15c-0.3,1.17-0.58,2.42-0.85,3.75
			c-0.27,1.33-0.63,3.1-1.1,5.3C701.99,917.41,703.13,917.55,704.26,917.35z"/>
		<path style="fill:#FFFFFF;" d="M753.76,892.35c-0.53,0.93-0.78,1.93-0.75,3c0.03,1.07,0.15,2.03,0.35,2.9
			c0.27,2.13,0.72,4.17,1.35,6.1c0.63,1.93,1.28,3.87,1.95,5.8c0.73,1.87,1.17,3.95,1.3,6.25c0.13,2.3-0.43,4.52-1.7,6.65
			c-1.13,1.87-2.73,3.32-4.8,4.35c-2.07,1.03-4.07,1.58-6,1.65c-2.2,0.13-4.23-0.15-6.1-0.85c-1.87-0.7-3.3-1.95-4.3-3.75
			c-0.6-0.87-0.83-1.77-0.7-2.7c0.07-0.53,0.25-1.17,0.55-1.9c0.3-0.73,0.67-1.47,1.1-2.2c0.43-0.73,0.85-1.43,1.25-2.1
			c0.4-0.67,0.8-1.23,1.2-1.7c0.33-0.47,0.72-0.87,1.15-1.2c0.43-0.33,0.92-0.46,1.45-0.4c0.6,0.13,1,0.5,1.2,1.1
			c0.2,0.6,0.2,1.22,0,1.85c-0.2,0.63-0.3,1.28-0.3,1.95c-0.07,0.6-0.05,1.23,0.05,1.9c0.1,0.67,0.32,1.2,0.65,1.6
			c0.4,0.47,0.78,0.68,1.15,0.65c0.37-0.03,0.75-0.18,1.15-0.45c0.4-0.27,0.75-0.62,1.05-1.05c0.3-0.43,0.58-0.85,0.85-1.25
			c1.07-1.73,1.55-3.33,1.45-4.8c-0.1-1.47-0.45-2.97-1.05-4.5c-0.4-1.13-0.78-2.3-1.15-3.5c-0.37-1.2-0.82-2.37-1.35-3.5
			c-0.47-1.27-0.88-2.63-1.25-4.1c-0.37-1.46-0.63-2.96-0.8-4.5c-0.17-1.53-0.13-3.07,0.1-4.6c0.23-1.53,0.72-3.07,1.45-4.6
			c0.93-1.87,2.15-3.43,3.65-4.7c1.5-1.27,3.15-2.25,4.95-2.95c1.8-0.7,3.6-1.1,5.4-1.2c1.8-0.1,3.53,0.08,5.2,0.55
			c1.07,0.33,2.17,0.79,3.3,1.35c1.13,0.57,2.15,1.25,3.05,2.05c0.9,0.8,1.6,1.73,2.1,2.8c0.5,1.07,0.65,2.27,0.45,3.6
			c-0.6,3-1.88,5.52-3.85,7.55c-1.97,2.03-4.58,3.08-7.85,3.15c-1.93,0-3.33-0.4-4.2-1.2C755.59,894.65,754.69,893.61,753.76,892.35
			z M754.56,890.35c0.47,0.67,1.03,1,1.7,1c0.67,0,1.35-0.17,2.05-0.5c0.7-0.33,1.33-0.82,1.9-1.45c0.57-0.63,1.05-1.28,1.45-1.95
			c0.46-0.8,0.87-1.85,1.2-3.15c0.33-1.3,0.23-2.32-0.3-3.05c-0.27-0.53-0.73-0.75-1.4-0.65c-0.67,0.1-1.37,0.35-2.1,0.75
			c-0.73,0.4-1.4,0.87-2,1.4c-0.6,0.53-1.03,1-1.3,1.4c-0.6,0.8-1.08,1.83-1.45,3.1c-0.37,1.27-0.32,2.23,0.15,2.9
			C754.53,890.21,754.56,890.28,754.56,890.35z"/>
		<path style="fill:#FFFFFF;" d="M792.46,913.75c0.4,0.33,0.57,0.93,0.5,1.8c-0.07,0.8-0.32,1.6-0.75,2.4
			c-0.43,0.8-0.95,1.58-1.55,2.35c-0.6,0.77-1.27,1.47-2,2.1c-0.73,0.63-1.4,1.22-2,1.75c-1.4,1.13-3.5,2.13-6.3,3
			c-2.67,0.87-4.77,1-6.3,0.4c-0.8-0.4-1.45-0.93-1.95-1.6c-0.5-0.67-0.88-1.43-1.15-2.3c-0.27-0.87-0.43-1.77-0.5-2.7
			s-0.1-1.87-0.1-2.8c0.33-3,1-5.96,2-8.9c1-2.93,1.93-5.9,2.8-8.9c0.6-1.67,1.25-3.73,1.95-6.2c0.7-2.46,1.43-5,2.2-7.6
			c0.77-2.6,1.52-5.12,2.25-7.55c0.73-2.43,1.43-4.48,2.1-6.15c-2.53,0-4.7-0.33-6.5-1c-3.07-1.07-5.2-2.37-6.4-3.9
			c-1.2-1.53-1.8-3.03-1.8-4.5c0-1.47,0.4-2.72,1.2-3.75c0.8-1.03,1.63-1.62,2.5-1.75c0.87-0.07,1.47,0,1.8,0.2
			c0.33,0.2,0.52,0.45,0.55,0.75c0.03,0.3-0.02,0.63-0.15,1c-0.13,0.37-0.2,0.65-0.2,0.85c-0.07,0.4-0.03,0.88,0.1,1.45
			c0.13,0.57,0.4,1.12,0.8,1.65c0.4,0.53,0.93,1,1.6,1.4c0.67,0.4,1.47,0.63,2.4,0.7c0.93,0.07,1.92,0.08,2.95,0.05
			c1.03-0.03,2.05-0.12,3.05-0.25c0.67-1.6,1.28-2.92,1.85-3.95c0.57-1.03,1.08-2,1.55-2.9c0.47-0.9,0.95-1.87,1.45-2.9
			c0.5-1.03,1.05-2.35,1.65-3.95c0.13-0.4,0.35-0.85,0.65-1.35c0.3-0.5,0.63-0.95,1-1.35c0.37-0.4,0.73-0.7,1.1-0.9
			c0.37-0.2,0.72-0.2,1.05,0c0.4,0.2,0.72,0.58,0.95,1.15c0.23,0.57,0.42,1.18,0.55,1.85c0.13,0.67,0.22,1.35,0.25,2.05
			c0.03,0.7,0.05,1.28,0.05,1.75c0.07,1.07,0.13,1.93,0.2,2.6c0.07,0.67,0.08,1.3,0.05,1.9c-0.03,0.6-0.13,1.27-0.3,2
			c-0.17,0.73-0.45,1.63-0.85,2.7c2.67-0.8,5.25-1.65,7.75-2.55c2.5-0.9,4.83-1.71,7-2.45c2.17-0.73,4.07-1.33,5.7-1.8
			c1.63-0.46,2.92-0.67,3.85-0.6c2,0.27,3.43,0.72,4.3,1.35c0.87,0.63,1.33,1.37,1.4,2.2c0.07,0.83-0.15,1.7-0.65,2.6
			c-0.5,0.9-1.08,1.73-1.75,2.5c-0.67,0.77-1.33,1.42-2,1.95c-0.67,0.54-1.1,0.8-1.3,0.8c-0.53,0.07-0.88-0.13-1.05-0.6
			c-0.17-0.47-0.29-0.97-0.35-1.5c-0.07-0.53-0.17-1.05-0.3-1.55c-0.13-0.5-0.43-0.75-0.9-0.75c-0.33,0-1.17,0.25-2.5,0.75
			c-1.33,0.5-3,1.1-5,1.8s-4.25,1.45-6.75,2.25s-5.08,1.53-7.75,2.2c-0.2,0.53-0.5,1.42-0.9,2.65c-0.4,1.23-0.82,2.6-1.25,4.1
			c-0.43,1.5-0.88,3.07-1.35,4.7c-0.47,1.63-0.9,3.13-1.3,4.5c-0.4,1.37-0.73,2.52-1,3.45c-0.27,0.93-0.43,1.47-0.5,1.6l-3.4,10.2
			c-0.54,1.73-1.08,3.45-1.65,5.15c-0.57,1.7-1.15,3.42-1.75,5.15c-0.33,1.07-0.73,2.13-1.2,3.2c-0.47,1.07-0.77,2.17-0.9,3.3
			c-0.07,0.47-0.08,0.9-0.05,1.3c0.03,0.4,0.08,0.8,0.15,1.2c0.2,0.6,0.38,0.88,0.55,0.85c0.17-0.03,0.55-0.25,1.15-0.65
			c0.87-0.6,1.63-1.27,2.3-2c0.67-0.73,1.37-1.47,2.1-2.2c0.2-0.27,0.52-0.67,0.95-1.2c0.43-0.53,0.88-1.03,1.35-1.5
			c0.46-0.47,0.93-0.83,1.4-1.1C791.63,913.48,792.06,913.48,792.46,913.75z"/>
		<path style="fill:#FFFFFF;" d="M810.76,908.25c-0.47,0.73-0.72,1.87-0.75,3.4c-0.03,1.54,0.13,3,0.5,4.4
			c0.37,1.4,0.97,2.5,1.8,3.3c0.83,0.8,1.88,0.8,3.15,0c2-1.33,3.67-2.93,5-4.8c1.13-1.47,2.37-2.97,3.7-4.5
			c0.87-1,1.83-1.23,2.9-0.7c1.13,0.53,1.97,1.32,2.5,2.35c0.53,1.03,0.87,2.18,1,3.45c0.07,0.33,0.03,0.65-0.1,0.95
			c-0.13,0.3-0.3,0.58-0.5,0.85c-0.47,0.67-0.93,1.33-1.4,2c-0.47,0.67-1,1.27-1.6,1.8c-2.07,1.93-4.27,3.5-6.6,4.7
			c-2.33,1.2-4.8,1.83-7.4,1.9c-1.13,0-2.23-0.08-3.3-0.25c-1.07-0.17-2-0.52-2.8-1.05c-2.13-1.4-3.98-2.92-5.55-4.55
			c-1.57-1.63-2.68-3.72-3.35-6.25c-0.33-1-0.48-2.03-0.45-3.1c0.03-1.07,0.08-2.17,0.15-3.3c0.2-3,0.8-5.95,1.8-8.85
			c1-2.9,2.17-5.82,3.5-8.75c1.6-3.8,3.93-7.3,7-10.5c1.33-1.33,2.77-2.27,4.3-2.8c1.53-0.53,3.1-0.77,4.7-0.7
			c0.93,0.07,1.88,0.2,2.85,0.4c0.97,0.2,1.88,0.47,2.75,0.8c3.73,1.27,5.97,3.97,6.7,8.1c0.27,1.6,0.22,3.3-0.15,5.1
			c-0.37,1.8-1.02,3.55-1.95,5.25c-0.93,1.7-2.1,3.3-3.5,4.8c-1.4,1.5-3.03,2.78-4.9,3.85c-1.07,0.53-2.1,0.93-3.1,1.2
			c-1,0.27-2.07,0.5-3.2,0.7c-0.6,0.13-1.22,0.27-1.85,0.4C811.98,907.98,811.36,908.11,810.76,908.25z M811.86,903.35
			c0.53-0.07,0.95-0.08,1.25-0.05c0.3,0.03,0.55-0.02,0.75-0.15c1.27-0.67,2.48-1.37,3.65-2.1c1.17-0.73,1.98-1.87,2.45-3.4
			c0-0.13,0.05-0.28,0.15-0.45c0.1-0.17,0.22-0.32,0.35-0.45c1.07-1.93,1.67-3.83,1.8-5.7c0.13-1.87-0.07-3.7-0.6-5.5l-0.5-0.4
			c-1.53,0.93-2.73,2.13-3.6,3.6c-1,1.73-1.93,3.5-2.8,5.3c-0.87,1.8-1.57,3.67-2.1,5.6L811.86,903.35z"/>
		<path style="fill:#FFFFFF;" d="M858.36,867.35l0.2,0.6c0.2,0.47,0.45,0.85,0.75,1.15s0.58,0.62,0.85,0.95
			c2.47,2.27,4.53,4.7,6.2,7.3c0.73,1.13,1.37,2.28,1.9,3.45c0.53,1.17,0.83,2.45,0.9,3.85c0.07,1.54-0.32,3.6-1.15,6.2
			c-0.83,2.6-1.82,5.3-2.95,8.1c-1.13,2.8-2.28,5.48-3.45,8.05c-1.17,2.57-2.05,4.58-2.65,6.05c-0.53,1.2-0.98,2.33-1.35,3.4
			c-0.37,1.07-0.68,2.2-0.95,3.4c0,0.2,0,0.52,0,0.95c0,0.43,0.07,0.68,0.2,0.75c0.2,0,0.62-0.18,1.25-0.55
			c0.63-0.37,1.48-1.22,2.55-2.55c0.87-1.07,1.73-2.17,2.6-3.3c0.87-1.13,1.68-2.23,2.45-3.3c0.77-1.07,1.45-2.03,2.05-2.9
			c0.6-0.87,1-1.57,1.2-2.1c0.67,0.4,1.32,1.02,1.95,1.85c0.63,0.83,0.75,1.75,0.35,2.75c-0.13,0.2-0.4,0.72-0.8,1.55
			c-0.4,0.83-0.93,1.87-1.6,3.1c-0.67,1.23-1.47,2.58-2.4,4.05c-0.93,1.47-1.9,2.9-2.9,4.3c-1,1.33-1.95,2.43-2.85,3.3
			c-0.9,0.87-2.15,1.47-3.75,1.8c-0.8,0.2-1.62,0.23-2.45,0.1c-0.83-0.13-1.62-0.37-2.35-0.7c-1.8-0.87-3.25-2.15-4.35-3.85
			c-1.1-1.7-1.78-3.62-2.05-5.75c-0.27-2.13-0.13-4.3,0.4-6.5c0.53-2.2,1.33-4.37,2.4-6.5c0.47-0.8,1.13-2.17,2-4.1
			c0.87-1.93,1.78-4,2.75-6.2c0.97-2.2,1.88-4.27,2.75-6.2c0.87-1.93,1.43-3.3,1.7-4.1c0.73-1.67,1.07-3.35,1-5.05
			c-0.07-1.7-0.67-3.02-1.8-3.95c-0.33-0.27-0.57-0.37-0.7-0.3c-0.4,0.13-0.67,0.47-0.8,1c-0.6,1.6-1.58,3.83-2.95,6.7
			c-1.37,2.87-3.02,5.98-4.95,9.35c-1.93,3.37-4.05,6.82-6.35,10.35c-2.3,3.53-4.7,6.72-7.2,9.55c-2.5,2.83-4.98,5.17-7.45,7
			c-2.47,1.83-4.77,2.75-6.9,2.75c-0.73,0-1.35-0.23-1.85-0.7c-0.5-0.47-0.88-0.98-1.15-1.55c-0.27-0.57-0.35-1.12-0.25-1.65
			c0.1-0.53,0.42-0.9,0.95-1.1c3.2-1,6.18-2.58,8.95-4.75c2.77-2.17,5.32-4.62,7.65-7.35c2.33-2.73,4.42-5.62,6.25-8.65
			c1.83-3.03,3.45-5.95,4.85-8.75c1.4-2.8,2.52-5.32,3.35-7.55c0.83-2.23,1.45-3.95,1.85-5.15c0.27-0.73,0.5-1.52,0.7-2.35
			c0.2-0.83,0.23-1.62,0.1-2.35c-0.13-1.27-0.6-2.37-1.4-3.3s-1.63-1.87-2.5-2.8c-1.4-1.53-2.4-3.33-3-5.4
			c-0.33-1.6-0.12-3.18,0.65-4.75c0.77-1.57,1.8-2.85,3.1-3.85s2.72-1.58,4.25-1.75c1.53-0.17,2.88,0.3,4.05,1.4
			c1.17,1.1,2,2.97,2.5,5.6C859.21,859.03,859.09,862.68,858.36,867.35z"/>
	</g>
	<g>
		<defs>
			<path id="SVGID_1_" d="M565.44,272.54c46.83-20.75-20.03-8.35-37.06-28.11C486.66,196,397.83,363.21,388.53,423.97
				c-29.07,188.96,99.86,199.13,150.73,300.88c53.05-106.11,191.28-112.07,145.35-326.46c-1.6-8.75,1.92-17.77,0-26.45
				c-11.04-49.77-4.06-35.45-5.96-55.7l-51.14-66.37c2.47,29.07,66.4,234.72-89.86,244.6C381.4,504.35,509.14,297.48,565.44,272.54z
				"/>
		</defs>
		<use xlink:href="#SVGID_1_"  style="overflow:visible;fill:#2F495E;"/>
		<clipPath id="SVGID_2_">
			<use xlink:href="#SVGID_1_"  style="overflow:visible;"/>
		</clipPath>
		
			<use xlink:href="#SVGID_1_"  style="overflow:visible;fill:none;stroke:#7C55AD;stroke-width:20;stroke-linecap:round;stroke-linejoin:round;stroke-miterlimit:10;"/>
	</g>
	<g>
		<defs>
			<path id="SVGID_3_" d="M393.76,316.55v-36.34c0-80.28,65.08-145.35,145.35-145.35c80.28,0,145.35,65.08,145.35,145.35v36.34
				c16.05,0,29.07,13.02,29.07,29.07c0,16.06-13.02,29.07-29.07,29.07h-1.74c-11.06,70.75-72,122.9-143.61,122.9
				c-71.61,0-132.55-52.15-143.61-122.9h-1.74c-16.06,0-29.07-13.02-29.07-29.07C364.69,329.57,377.7,316.55,393.76,316.55z"/>
		</defs>
		<clipPath id="SVGID_4_">
			<use xlink:href="#SVGID_3_"  style="overflow:visible;"/>
		</clipPath>
		<rect x="332.31" y="102.48" style="clip-path:url(#SVGID_4_);fill:#FFFFFF;" width="413.6" height="427.49"/>
	</g>
	<path style="fill:none;stroke:#4550E5;stroke-linecap:round;stroke-linejoin:round;stroke-miterlimit:10;" d="M393.76,316.55
		v-36.34c0-80.28,65.08-145.35,145.35-145.35c80.28,0,145.35,65.08,145.35,145.35v36.34c16.06,0,29.07,13.02,29.07,29.07
		c0,16.06-13.02,29.07-29.07,29.07h-1.74c-11.06,70.75-72,122.9-143.61,122.9c-71.61,0-132.55-52.15-143.61-122.9h-1.74
		c-16.06,0-29.07-13.02-29.07-29.07C364.69,329.57,377.7,316.55,393.76,316.55z"/>
	<g>
		<path style="fill:#FFFFFF;" d="M539.11,507.59c-37.02,0-72.89-13.25-101.01-37.32c-26.09-22.33-44.01-52.68-51.04-86.15
			c-18.37-3.18-32.38-19.23-32.38-38.5c0-18.09,12.36-33.34,29.07-37.77v-27.64c0-85.66,69.69-155.35,155.35-155.35
			s155.35,69.69,155.35,155.35v27.64c16.71,4.43,29.07,19.69,29.07,37.77c0,19.26-14.01,35.31-32.38,38.5
			c-7.02,33.47-24.95,63.83-51.04,86.15C612,494.34,576.13,507.59,539.11,507.59z"/>
		<path style="fill:#2F495E;" d="M539.11,134.86c80.28,0,145.35,65.08,145.35,145.35v36.34c16.06,0,29.07,13.02,29.07,29.07
			c0,16.06-13.02,29.07-29.07,29.07h-1.74c-11.06,70.75-72,122.9-143.61,122.9c-71.61,0-132.55-52.15-143.61-122.9h-1.74
			c-16.06,0-29.07-13.02-29.07-29.07c0-16.06,13.02-29.07,29.07-29.07v-36.34C393.76,199.94,458.83,134.86,539.11,134.86
			 M539.11,114.86c-22.31,0-43.97,4.37-64.37,13c-19.69,8.33-37.37,20.25-52.55,35.43c-15.18,15.18-27.1,32.86-35.43,52.55
			c-8.63,20.4-13,42.06-13,64.37v20.6c-17.12,7.67-29.07,24.87-29.07,44.81c0,21.8,14.29,40.33,34,46.71
			c8.3,33.18,26.74,63.15,52.91,85.54c29.93,25.62,68.12,39.73,107.51,39.73c39.4,0,77.58-14.11,107.51-39.73
			c26.16-22.39,44.61-52.36,52.91-85.54c19.71-6.37,34-24.9,34-46.7c0-19.94-11.95-37.14-29.07-44.81v-20.6
			c0-22.31-4.37-43.97-13-64.37c-8.33-19.69-20.25-37.37-35.43-52.55c-15.18-15.18-32.86-27.1-52.55-35.43
			C583.08,119.23,561.42,114.86,539.11,114.86L539.11,114.86z"/>
	</g>
	<g>
		<defs>
			<path id="SVGID_5_" d="M622.69,396.35c10.03,0,18.17-8.13,18.17-18.17c0-10.03-8.13-18.17-18.17-18.17s-18.17,8.14-18.17,18.17
				C604.52,388.22,612.65,396.35,622.69,396.35z"/>
		</defs>
		<clipPath id="SVGID_6_">
			<use xlink:href="#SVGID_5_"  style="overflow:visible;"/>
		</clipPath>
		<rect x="572.14" y="327.63" style="clip-path:url(#SVGID_6_);fill:#DAE1E9;" width="101.09" height="101.09"/>
	</g>
	<g>
		<defs>
			<path id="SVGID_7_" d="M455.53,396.35c10.03,0,18.17-8.13,18.17-18.17c0-10.03-8.13-18.17-18.17-18.17
				c-10.03,0-18.17,8.14-18.17,18.17C437.36,388.22,445.5,396.35,455.53,396.35z"/>
		</defs>
		<clipPath id="SVGID_8_">
			<use xlink:href="#SVGID_7_"  style="overflow:visible;"/>
		</clipPath>
		<rect x="404.99" y="327.63" style="clip-path:url(#SVGID_8_);fill:#DAE1E9;" width="101.09" height="101.09"/>
	</g>
	<path style="fill:none;stroke:#4550E5;stroke-linecap:round;stroke-linejoin:round;stroke-miterlimit:10;" d="M582.86,415.1
		c-24.45,23.18-62.76,23.18-87.21,0"/>
	<path style="fill:none;stroke:#2F495E;stroke-width:14;stroke-linecap:round;stroke-linejoin:round;stroke-miterlimit:10;" d="
		M575.45,331.09c3.72-8.74,12.3-14.42,21.8-14.42s18.08,5.68,21.8,14.42 M459.17,331.09c3.72-8.74,12.3-14.42,21.8-14.42
		s18.08,5.68,21.8,14.42"/>
	<g>
		<defs>
			
				<ellipse id="SVGID_9_" transform="matrix(0.982 -0.1891 0.1891 0.982 -126.9949 136.1593)" cx="650.02" cy="733.57" rx="8.72" ry="8.72"/>
		</defs>
		<clipPath id="SVGID_10_">
			<use xlink:href="#SVGID_9_"  style="overflow:visible;"/>
		</clipPath>
	</g>
	<g>
		<defs>
			
				<ellipse id="SVGID_11_" transform="matrix(0.9903 -0.1387 0.1387 0.9903 -103.9399 66.9731)" cx="428.56" cy="779.25" rx="8.72" ry="8.72"/>
		</defs>
		<clipPath id="SVGID_12_">
			<use xlink:href="#SVGID_11_"  style="overflow:visible;"/>
		</clipPath>
	</g>
	<g>
		<defs>
			<path id="SVGID_13_" d="M743.19,414.08c-3.79-0.18-7.34,1.89-9.04,5.29c-1.7,3.4-1.23,7.48,1.19,10.41
				c5.13,5.12,6.75,12.79,4.14,19.55c-2.61,6.76-8.97,11.35-16.21,11.7c-46.08,8.14-147.82-78.2-185.62-54.51
				c-37.79-23.69-139.97,62.65-185.32,54.51c-7.24-0.35-13.6-4.93-16.21-11.7c-2.61-6.76-0.99-14.43,4.14-19.55
				c2.47-2.97,2.92-7.12,1.14-10.55c-1.78-3.43-5.43-5.45-9.28-5.15c-38.81,2.04-39.97,92.59,55.82,88.37
				c63.81-2.76,121.37-29.07,149.71-69.77c29.07,40.41,85.9,67.01,149.71,69.77C783.16,506.67,782,416.12,743.19,414.08z"/>
		</defs>
		<clipPath id="SVGID_14_">
			<use xlink:href="#SVGID_13_"  style="overflow:visible;"/>
		</clipPath>
	</g>
	<g>
		<path style="fill:#7C55AD;" d="M693.76,512.6c-2.23,0-4.53-0.05-6.82-0.15c-32.57-1.41-64.27-8.91-91.67-21.69
			c-23.12-10.78-42.76-25.14-57.5-41.92c-31.82,36.9-87.66,60.94-149.38,63.61c-2.29,0.1-4.59,0.15-6.82,0.15
			c-26.21,0-48.05-7.13-63.16-20.62c-12.89-11.5-20.52-27.56-20.96-44.07c-0.64-24.27,13.67-42.67,34.04-43.81
			c0.47-0.03,0.95-0.05,1.42-0.05c7.35,0,14.01,4.05,17.39,10.57c3.64,7.02,2.72,15.48-2.33,21.55l-0.29,0.35l-0.33,0.32
			c-2.33,2.32-3.06,5.81-1.88,8.88c1.18,3.07,4.07,5.15,7.36,5.31l0.65,0.03l0.64,0.11c1.43,0.26,3.02,0.39,4.73,0.39c0,0,0,0,0,0
			c18.46,0,47.59-14.37,75.75-28.26c32.24-15.9,62.7-30.92,86.69-30.92c6.06,0,11.55,0.99,16.38,2.95
			c4.83-1.96,10.31-2.95,16.37-2.95c23.89,0,54.18,14.95,86.26,30.77c28.32,13.97,57.6,28.41,76.39,28.41
			c1.75,0,3.38-0.13,4.85-0.39l0.62-0.11l0.63-0.03c3.29-0.16,6.17-2.24,7.36-5.31c1.18-3.07,0.45-6.55-1.88-8.88l-0.33-0.33
			l-0.3-0.37c-4.94-5.97-5.9-14.32-2.43-21.25c3.34-6.68,10.05-10.83,17.52-10.83c0.31,0,0.62,0.01,0.94,0.02
			c20.48,1.07,34.86,19.5,34.22,43.83c-0.43,16.51-8.07,32.57-20.96,44.07c-15.11,13.48-36.96,20.61-63.16,20.61
			C693.76,512.6,693.76,512.6,693.76,512.6z"/>
		<path style="fill:#2F495E;" d="M554.03,402.39c42.96,0.01,120.26,59.18,162.65,59.18c2.3,0,4.51-0.17,6.59-0.54
			c7.24-0.35,13.6-4.93,16.21-11.7c2.61-6.76,0.99-14.43-4.14-19.55c-2.42-2.93-2.89-7.01-1.19-10.41c1.63-3.26,4.96-5.3,8.58-5.3
			c0.15,0,0.31,0,0.46,0.01c37.93,1.99,39.91,88.52-49.43,88.52c-2.08,0-4.21-0.05-6.38-0.14c-63.81-2.76-120.64-29.36-149.71-69.77
			c-28.34,40.7-85.9,67.01-149.71,69.77c-2.18,0.1-4.3,0.14-6.38,0.14c-89.32,0-87.36-86.53-49.43-88.52
			c0.26-0.02,0.51-0.03,0.77-0.03c3.56,0,6.86,1.98,8.51,5.18c1.78,3.43,1.33,7.58-1.14,10.55c-5.13,5.12-6.75,12.79-4.14,19.55
			c2.61,6.76,8.97,11.35,16.21,11.7c2.06,0.37,4.22,0.54,6.5,0.54c41.88,0,119.41-59.18,162.44-59.18c6.27,0,11.8,1.26,16.39,4.13
			C542.25,403.65,547.77,402.39,554.03,402.39 M554.03,382.39L554.03,382.39h-0.01c-5.87,0-11.34,0.78-16.36,2.34
			c-5.03-1.56-10.51-2.34-16.38-2.34c-26.32,0-57.79,15.52-91.11,31.95c-25.87,12.76-55.2,27.23-71.33,27.23
			c-0.84,0-1.61-0.04-2.3-0.13c6.84-9.08,7.9-21.25,2.63-31.42c-5.11-9.85-15.17-15.97-26.27-15.97c-0.68,0-1.37,0.02-2.05,0.07
			c-13.55,0.78-25.43,7.51-33.47,18.97c-6.75,9.61-10.28,22.07-9.94,35.08c0.94,35.85,30.79,74.43,94.12,74.43
			c2.38,0,4.82-0.05,7.26-0.16c34.03-1.47,67.12-9.25,95.69-22.49c20.83-9.65,38.9-22.06,53.31-36.49
			c14.55,14.38,32.59,26.74,53.21,36.36c28.58,13.33,61.59,21.16,95.48,22.62c2.43,0.11,4.87,0.16,7.25,0.16
			c63.33,0,93.19-38.58,94.12-74.42c0.34-13.01-3.19-25.47-9.94-35.08c-8.09-11.53-20.06-18.27-33.71-18.99l-0.05,0l-0.05,0
			c-0.47-0.02-0.94-0.03-1.41-0.03c-11.28,0-21.42,6.27-26.47,16.36c-5.03,10.06-3.9,22.08,2.81,31.01
			c-0.72,0.09-1.52,0.13-2.39,0.13c-16.46,0-45.95-14.55-71.97-27.38C611.56,397.84,580.24,382.4,554.03,382.39L554.03,382.39z"/>
	</g>
</g>
</svg>
