<?xml version="1.0" encoding="utf-8"?>
<!-- Generator: Adobe Illustrator 24.0.0, SVG Export Plug-In . SVG Version: 6.00 Build 0)  -->
<svg version="1.1" xmlns="http://www.w3.org/2000/svg" xmlns:xlink="http://www.w3.org/1999/xlink" x="0px" y="0px"
	 viewBox="0 0 369.3 295.44" style="enable-background:new 0 0 369.3 295.44;" xml:space="preserve">
<g id="Layer_4">
	<g>
		<path style="fill:#231F20;" d="M163.53,227.61l-0.48-0.05c2.29-21.51,7.91-28.73,10.22-30.84l0.32,0.36
			C171.33,199.15,165.81,206.26,163.53,227.61z"/>
		<path style="fill:#231F20;" d="M182.17,189.92l0.13,0.06c-0.25,0.37-0.69,0.7-0.77,1.15c0.17-0.2,0.46-0.33,0.71-0.19
			c-0.09,0.32-0.41,0.55-0.65,0.75c-0.29,0.24-0.49,0.46-0.74,0.73c0.04-0.01,0.33-0.01,0.44-0.01c-0.25,0.09-0.49,0.31-0.74,0.44
			c-0.18,0.09-0.49,0.24-0.61,0.39c0.25-0.12,0.52-0.16,0.81-0.17c-0.28,0.18-0.94,0.3-1.1,0.56c0.19-0.06,0.4-0.13,0.52,0.08
			c-0.24,0.15-0.58,0.24-0.81,0.42l0.24,0.1c-0.27,0.21-0.71,0.26-1.02,0.38c0.12,0.05,0.27,0.07,0.38,0.16
			c-0.59,0.36-1.43,0.47-2.1,0.58c0.33-0.01,0.64-0.01,0.97,0.05c-0.34,0.43-1.01,0.24-1.45,0.44c0.15,0.03,0.29,0.03,0.41,0.1
			c-0.3,0.11-0.77,0.31-1.09,0.27c0.25,0.06,0.56,0.04,0.79,0.18c-0.23,0.33-1.05,0.49-1.42,0.62c-0.41,0.15-0.74,0.24-1.12,0.45
			c-0.3,0.17-0.62,0.36-0.92,0.56c-0.28,0.19-0.85,0.92-1.28,0.7c-0.33-0.17,0.05-0.77,0.19-0.99c0.5-0.76,1.19-1.39,1.68-2.15
			c0.22-0.35,0.44-1.74,0.96-1.69c0.23,0.02,0.12,0.33,0.32,0.34c0.34,0.01,0.04-0.75,0.35-0.88c0.02,0.11,0.08,0.22,0.1,0.32
			c0.22-0.32,0.44-0.65,0.64-0.98c0.02,0.06,0.09,0.13,0.1,0.23c0.17-0.19,0.38-0.33,0.57-0.5c0.24-0.22,0.35-0.51,0.55-0.75
			c-0.03,0.16-0.17,0.34-0.02,0.47c0.36-0.16,0.88-1.42,1.14-0.54c0.15-0.1,0.28-0.29,0.47-0.33c0.03,0.11,0.09,0.11,0.14,0.17
			c0.14-0.12,0.43-1.12,0.65-0.55c0.21-0.27,0.4-0.85,0.72-0.99c0.05,0.19-0.02,0.48-0.05,0.67c0.28-0.21,1.24-1.05,1.59-0.83
			c-0.08,0.2-0.3,0.41-0.37,0.62C181.69,190.3,181.92,189.89,182.17,189.92z"/>
		<path style="fill:#231F20;" d="M162.89,230.02c-9.6-30.71-8.8-35.23-8.45-37.16c0.03-0.16,0.06-0.31,0.07-0.45l0.4,0.04
			c-0.02,0.15-0.04,0.3-0.07,0.48c-0.34,1.9-1.13,6.35,8.44,36.97L162.89,230.02z"/>
		<path style="fill:#231F20;" d="M156.25,183.07l0.08,0.04c0.09,0.1,0.05,0.38,0.05,0.5c0.01,0.18,0.04,0.4,0.13,0.56
			c-0.01-0.22,0.11-0.47,0.34-0.52c0.12,0.25,0.05,0.58,0.01,0.84c-0.04,0.28-0.1,0.58-0.08,0.85c0.1,0.04,0.13,0.28,0.13,0.37
			c0,0.13-0.08,0.24-0.13,0.35c-0.05,0.11-0.05,0.23-0.09,0.34c0.09-0.22,0.24-0.39,0.42-0.56c-0.07,0.27-0.43,0.72-0.38,0.97
			c0.09-0.14,0.18-0.3,0.38-0.23c-0.07,0.23-0.23,0.48-0.28,0.72l0.21-0.07l-0.18,0.41c-0.05,0.1-0.07,0.2-0.07,0.32
			c0,0.13,0.03,0.28,0,0.41c-0.03,0.14-0.13,0.19-0.22,0.29c-0.23,0.25-0.42,0.56-0.64,0.82c0.2-0.19,0.4-0.37,0.64-0.51
			c0.03,0.49-0.61,0.67-0.48,1.18c0.04,0.17,0.05,0.28,0,0.44c-0.06,0.18-0.13,0.36-0.2,0.53c-0.2,0.45-0.48,0.87-0.63,1.33
			c-0.1,0.28-0.19,0.57-0.27,0.87c-0.07,0.27-0.03,1.06-0.42,1.16c-0.31,0.08-0.4-0.52-0.43-0.74c-0.05-0.37-0.06-0.75-0.06-1.13
			c0-0.17,0-0.33,0-0.5c0.01-0.15-0.06-0.27-0.05-0.42l-0.01-0.25c-0.06-0.28-0.16-0.53-0.19-0.82c-0.01-0.11-0.19-0.81,0.02-0.77
			c0.02-0.07,0.01-0.17,0.1-0.19c-0.02-0.1-0.06-0.22-0.1-0.31l-0.06-0.26l0.24,0.15c-0.04-0.32-0.09-0.66-0.14-0.98l0.19,0.09
			c0.01-0.21,0.06-0.42,0.08-0.64c0.03-0.27-0.06-0.52-0.07-0.79c0.07,0.12,0.08,0.31,0.25,0.31c0.14-0.31-0.24-1.4,0.42-0.98
			c0.04-0.12,0-0.33,0.06-0.43c0.06-0.1,0.17,0,0.24-0.04c-0.01-0.15,0-0.3-0.03-0.44c-0.03-0.18,0.03-0.2,0.15-0.32
			c0.08-0.07,0.2-0.17,0.23-0.28l-0.02-0.2l0.04-0.16l0.07-0.19l0.13-0.08c0.06-0.1,0.02-0.25,0.09-0.35
			c0.09-0.12,0.13-0.02,0.24-0.04c0.11-0.02,0.17-0.15,0.18-0.25L156.25,183.07z"/>
		<path style="fill:#231F20;" d="M161.3,235.81c-10.31-21.97-18.09-28.25-21.02-30.61c-0.54-0.43-0.9-0.72-1.08-0.96l0.32-0.25
			c0.16,0.2,0.52,0.49,1.02,0.9c2.95,2.38,10.79,8.7,21.14,30.75L161.3,235.81z"/>
		<path style="fill:#231F20;" d="M130.94,199.56l-0.02,0.08c0.02,0.14,0.26,0.28,0.35,0.36c0.13,0.12,0.29,0.29,0.35,0.46
			c-0.17-0.15-0.43-0.22-0.62-0.07c0.12,0.25,0.41,0.41,0.64,0.54c0.24,0.15,0.51,0.29,0.71,0.48c-0.03,0.1,0.13,0.29,0.2,0.34
			c0.1,0.08,0.23,0.09,0.35,0.12c0.12,0.03,0.21,0.11,0.32,0.15c-0.22-0.07-0.46-0.07-0.7-0.04c0.26,0.12,0.83,0.13,0.99,0.33
			c-0.17-0.02-0.35-0.06-0.42,0.14c0.22,0.09,0.51,0.13,0.73,0.24l-0.18,0.12l0.44,0.12c0.11,0.03,0.2,0.07,0.29,0.15
			c0.1,0.09,0.19,0.2,0.32,0.26c0.13,0.07,0.23,0.02,0.36,0.02c0.34-0.01,0.7,0.04,1.04,0.04c-0.27,0.03-0.54,0.07-0.8,0.16
			c0.36,0.34,0.9-0.04,1.21,0.39c0.1,0.14,0.18,0.22,0.34,0.28c0.17,0.07,0.36,0.14,0.53,0.19c0.47,0.14,0.97,0.19,1.42,0.37
			c0.28,0.11,0.56,0.22,0.84,0.35c0.26,0.12,0.83,0.66,1.16,0.42c0.26-0.18-0.14-0.64-0.29-0.8c-0.25-0.28-0.54-0.53-0.82-0.77
			c-0.13-0.11-0.25-0.22-0.39-0.32c-0.11-0.09-0.17-0.22-0.29-0.31l-0.18-0.17c-0.17-0.23-0.3-0.46-0.5-0.67
			c-0.07-0.08-0.5-0.67-0.6-0.48l-0.21-0.04l-0.18-0.28l-0.16-0.21l-0.04,0.28c-0.22-0.24-0.45-0.49-0.66-0.74l-0.06,0.2
			c-0.17-0.14-0.36-0.23-0.54-0.35c-0.23-0.16-0.36-0.38-0.56-0.56c0.05,0.13,0.18,0.26,0.08,0.39c-0.32-0.09-0.92-1.08-1.02-0.31
			c-0.12-0.05-0.25-0.21-0.37-0.23c-0.12-0.02-0.11,0.13-0.18,0.15c-0.11-0.1-0.22-0.19-0.32-0.3c-0.11-0.13-0.17-0.11-0.34-0.09
			c-0.11,0.01-0.26,0.04-0.36,0l-0.14-0.14l-0.15-0.07l-0.19-0.07l-0.15,0.04c-0.12-0.01-0.2-0.15-0.33-0.15
			c-0.15-0.01-0.1,0.09-0.19,0.16l-0.31-0.02L130.94,199.56z"/>
		<path style="fill:#231F20;" d="M163.56,233.64c-0.25-2.05-0.37-3.48-0.07-5.95c-0.13-2.82,4.35-15.49,4.48-15.42
			c-0.58-0.19,5.66-12.34,8.5-13.57c1.81-1.71,3.01-2.46,4.78-3.54c-1.47,1.46-2.5,2.39-4.26,4.08c-2.78,1.23-8.84,13.01-8.31,13.29
			c-0.14-0.05-4.57,12.53-4.44,15.26C163.93,230.21,163.8,231.58,163.56,233.64z"/>
		<path style="fill:#231F20;" d="M156.92,235.09c-0.47-2.32-0.65-3.87-1.36-6.57c0.11-3.27-7.4-16.46-8.04-16.05
			c0.42-0.36-10.13-11.24-12.8-12.79c-2.25-1.61-3.56-2.43-5.77-3.27c2.32,0.36,3.91,1.03,6.22,2.67
			c2.72,1.56,13.36,12.56,12.95,12.94c0.63-0.45,8.29,12.98,8.17,16.33C157,231.1,156.93,232.75,156.92,235.09z"/>
		<path style="fill:#231F20;" d="M156.51,233.21c-0.57-1.22-0.92-2.05-1.33-3.55c-0.26-1.74-4.18-9.26-4.36-9.16
			c0.14-0.1-5.18-6.72-6.57-7.78c-1.14-1.08-1.71-1.78-2.51-2.86c1.12,0.72,1.88,1.24,3.04,2.32c1.4,1.05,6.81,7.79,6.67,7.9
			c0.19-0.1,4.21,7.57,4.45,9.34C156.31,230.97,156.4,231.89,156.51,233.21z"/>
		<path style="fill:#231F20;" d="M159.22,237.38c-0.41-1.06-0.57-1.76-0.85-3.01c-0.02-1.46-3.1-7.75-3.25-7.68
			c0.1-0.07-3.98-5.77-5.07-6.7c-0.88-0.95-1.31-1.55-1.9-2.5c0.92,0.61,1.56,1.04,2.46,2c1.11,0.93,5.26,6.75,5.16,6.82
			c0.15-0.08,3.32,6.36,3.34,7.9C159.39,235.49,159.29,236.29,159.22,237.38z"/>
		<path style="fill:#231F20;" d="M156.07,234.95c-0.48-1.11-0.54-1.85-1-3.1c-0.06-1.58-4.55-7.46-4.66-7.37
			c0.06-0.06-5.16-5.28-6.39-6.15c-1.03-0.9-1.55-1.48-2.27-2.41c1.03,0.55,1.72,0.94,2.76,1.84c1.24,0.85,6.52,6.15,6.46,6.22
			c0.1-0.1,4.71,5.9,4.81,7.62C156.25,232.93,156.07,233.83,156.07,234.95z"/>
		<path style="fill:#231F20;" d="M156.47,236.01c-0.55-0.96-0.6-1.61-1.17-2.65c-0.17-1.41-4.85-6.11-4.91-6.03
			c0.04-0.05-5.1-4.21-6.22-4.94c-0.98-0.74-1.46-1.28-2.12-2.08c0.97,0.43,1.59,0.75,2.57,1.48c1.12,0.71,6.31,4.94,6.27,4.99
			c0.06-0.08,4.86,4.71,5.09,6.28C156.57,234.16,156.41,235.03,156.47,236.01z"/>
		<path style="fill:#231F20;" d="M156.81,236.1c1.69-0.83,0.55-2.29-0.24-3.87c-0.46-2.46-9.11-9.19-9.34-8.86
			c0.2-0.38-9.85-4.75-12.18-4.29c-1.99-0.33-3.09-0.12-4.82-0.29c1.65-0.3,2.84-0.78,4.89-0.46c2.44-0.47,12.71,4.02,12.5,4.4
			c0.21-0.36,9.12,6.56,9.6,9.13C158.14,233.32,158.9,235.77,156.81,236.1z"/>
		<path style="fill:#231F20;" d="M159.65,236.3c-0.21-1.39-0.36-2.26-0.78-3.8c0.21-2.08-5.89-8.51-6.18-8.2
			c0.15-0.21-7.38-4.82-9.1-5.38c-1.47-0.71-2.27-1.2-3.42-1.98c1.35,0.34,2.26,0.6,3.75,1.3c1.72,0.55,9.38,5.25,9.24,5.47
			c0.27-0.34,6.62,6.32,6.44,8.59C160.03,233.94,159.91,234.95,159.65,236.3z"/>
		<path style="fill:#231F20;" d="M165.37,230.62c-0.69-1.31-1.11-2.28-1.31-4.06c-0.75-1.99,0.98-11.51,1.26-11.44
			c-0.2-0.07,3.15-9.07,4.29-10.66c0.82-1.57,1.45-2.37,2.41-3.5c-0.56,1.38-0.95,2.29-1.75,3.85c-1.11,1.58-4.43,10.46-4.23,10.52
			c-0.27-0.06-1.95,9.27-1.23,11.16C164.98,228.2,165.13,229.15,165.37,230.62z"/>
		<path style="fill:#231F20;" d="M164.67,234.22c0.32-1.64-0.33-2.62-0.49-4.63c-0.52-2.22,1.16-12.8,1.43-12.75
			c-0.18-0.05,2.93-10.28,3.87-12.2c0.69-1.84,1.26-2.81,2.08-4.25c-0.38,1.61-0.7,2.68-1.38,4.52c-0.93,1.92-4.02,12.06-3.84,12.1
			c-0.26-0.06-1.91,10.43-1.41,12.51C165.07,231.39,165.48,232.69,164.67,234.22z"/>
		<path style="fill:#231F20;" d="M163.89,234.39c-0.22-1.54-0.33-2.59-0.3-4.43c-0.15-2.01,0.65-12,0.64-12
			c0.01,0,1.14-9.96,1.61-11.91c0.31-1.82,0.61-2.83,1.1-4.31c-0.02,1.56-0.06,2.62-0.35,4.43c-0.46,1.95-1.6,11.86-1.6,11.86
			c0.01,0-0.77,9.95-0.63,11.94C164.3,231.81,164.16,232.85,163.89,234.39z"/>
		<path style="fill:#231F20;" d="M164.8,232.55c-1.38-1.27-1.25-2.85-1.5-4.86c-0.45-2.31-0.62-13.97-0.36-13.98
			c-0.23,0,0.99-11.65,1.92-13.84c0.51-2.09,0.92-3.25,1.57-4.92c-0.19,1.81-0.35,3.01-0.84,5.09c-0.91,2.17-2.13,13.71-1.9,13.71
			c-0.26,0-0.08,11.56,0.36,13.86C164.3,229.74,163.86,231.05,164.8,232.55z"/>
		<path style="fill:#231F20;" d="M156.16,234.6c-0.65-1.39-1.1-2.36-1.59-4.13c-0.77-1.89-1.94-11.82-1.75-11.84
			c-0.21-0.01,0.29-10,0.98-11.93c0.42-1.8,0.82-2.78,1.41-4.2c-0.13,1.55-0.27,2.58-0.67,4.35c-0.67,1.91-1.17,11.75-0.97,11.76
			c-0.19,0.02,0.97,9.81,1.72,11.69C155.77,232.04,155.96,233.06,156.16,234.6z"/>
		<path style="fill:#231F20;" d="M164.69,233.56c-0.16-1.26-0.19-2.08-0.15-3.54c0.23-1.59-0.62-9.48-0.72-9.47
			c0.07-0.01-1.52-7.8-2.04-9.31c-0.38-1.41-0.5-2.25-0.6-3.5c0.57,1.11,0.93,1.88,1.33,3.3c0.54,1.51,2.13,9.37,2.05,9.39
			c0.1-0.02,0.97,7.97,0.73,9.6C165.24,231.53,165.01,232.36,164.69,233.56z"/>
		<path style="fill:#231F20;" d="M164.57,233.75c0.44-1.88-0.48-2.95-1.07-5.1c-1.02-2.33-2.44-14.45-2.2-14.48
			c-0.24,0,0.01-12.22,0.74-14.61c0.3-2.23,0.75-3.45,1.3-5.25c-0.08,1.89-0.28,3.14-0.56,5.36c-0.71,2.37-0.96,14.47-0.73,14.46
			c-0.25,0.01,1.19,12.07,2.16,14.29C164.78,230.49,165.5,231.98,164.57,233.75z"/>
		<path style="fill:#231F20;" d="M166.09,232.43c0.73-1.52,0.44-2.65,0.25-4.59c-0.07-2.23-2.5-12.67-2.84-12.59
			c0.26-0.11-4.4-9.83-5.96-11.42c-1.09-1.67-1.74-2.59-2.53-4.09c1.17,1.2,2.04,1.98,3.15,3.67c1.59,1.6,6.31,11.48,6.05,11.59
			c0.34-0.1,2.84,10.58,2.88,12.75C167.29,229.71,167.26,231.16,166.09,232.43z"/>
		<path style="fill:#231F20;" d="M157.94,232.25c0.32-2.03-0.36-3.32-0.98-5.66c-0.36-2.71-5.21-14.98-5.53-14.86
			c0.25-0.14-6.8-11.35-8.93-13.07c-1.56-1.88-2.51-2.88-3.73-4.56c1.56,1.33,2.71,2.18,4.29,4.07c2.15,1.73,9.28,13.07,9.03,13.22
			c0.31-0.14,5.25,12.32,5.58,14.99C158.29,228.71,158.75,230.29,157.94,232.25z"/>
		<path style="fill:#231F20;" d="M164.78,233.21c-0.62-1.82-1.03-3.06-1.49-5.29c-0.61-2.41-2.57-14.66-2.49-14.67
			c-0.1,0.01-1.3-12.35-1.14-14.85c-0.01-2.29,0.17-3.59,0.42-5.49c0.22,1.92,0.31,3.2,0.33,5.48c-0.14,2.48,1.03,14.78,1.13,14.77
			c-0.08,0.01,1.89,12.22,2.48,14.62C164.47,230,164.62,231.3,164.78,233.21z"/>
		<path style="fill:#231F20;" d="M163.58,236.42c-0.68-2.17-1.15-3.66-1.66-6.33c-0.69-2.87-2.84-17.47-2.78-17.48
			c-0.07,0.01-1.64-14.67-1.51-17.65c-0.1-2.72,0.12-4.28,0.35-6.54c0.26,2.28,0.29,3.81,0.4,6.51c-0.12,2.95,1.43,17.59,1.51,17.58
			c-0.06,0.01,2.09,14.57,2.77,17.44C163.15,232.62,163.37,234.14,163.58,236.42z"/>
		<path style="fill:#231F20;" d="M165.33,235.72c-0.12-1.7,0.08-2.87,0.61-4.82c0.31-2.25,5.28-12.04,5.64-11.83
			c-0.26-0.2,6.71-8.67,8.57-9.91c1.46-1.38,2.44-2,3.84-2.94c-1.09,1.3-1.88,2.11-3.33,3.49c-1.84,1.25-8.72,9.59-8.45,9.78
			c-0.36-0.21-5.24,9.43-5.55,11.63C166.12,233.03,165.69,234.07,165.33,235.72z"/>
		<path style="fill:#231F20;" d="M165.49,234.21c-0.04-1.43-0.11-2.44,0.18-4.15c-0.03-2.02,4.05-10.49,4.29-10.36
			c-0.17-0.13,5.61-7.51,7.24-8.55c1.29-1.14,2.16-1.64,3.39-2.38c-0.94,1.12-1.62,1.8-2.88,2.93c-1.6,1.04-7.29,8.27-7.12,8.4
			c-0.23-0.12-4.21,8.17-4.19,10.12C166.12,231.87,165.93,232.8,165.49,234.21z"/>
		<path style="fill:#231F20;" d="M165.71,235.96c0.12-1.41,0.13-2.33,0.5-3.98c-0.46-2.37,5.97-9.24,6.41-8.7
			c-0.22-0.48,8.32-3.8,10.18-3.79c1.63-0.37,2.58-0.39,3.98-0.44c-1.31,0.52-2.22,0.79-3.82,1.17c-1.88,0.03-10.17,3.24-9.93,3.69
			c-0.43-0.51-6.54,6.04-6.1,8.25C166.57,233.74,166.29,234.68,165.71,235.96z"/>
		<path style="fill:#231F20;" d="M165.76,233.16c-0.47-1.05-0.76-1.76-1.06-3.08c-0.73-1.65,1.22-8.85,1.54-8.73
			c-0.17-0.09,3.3-6.58,4.17-7.75c0.71-1.15,1.21-1.73,2-2.57c-0.38,1.08-0.66,1.81-1.36,2.96c-0.87,1.19-4.29,7.57-4.12,7.65
			c-0.33-0.12-2.16,6.92-1.5,8.28C165.71,231.24,165.75,232.02,165.76,233.16z"/>
		<path style="fill:#231F20;" d="M156.47,236.01c-0.58-1.21-1.05-1.87-2.09-2.99c-0.86-1.54-8.39-5.5-8.51-5.16
			c0.14-0.64-8.27-1.57-9.64,0.09c-1.4,0.61-2.08,1.12-3.3,1.72c0.9-0.95,1.49-1.74,2.98-2.4c1.5-1.78,10.4-0.77,10.2-0.11
			c0.15-0.33,7.83,3.67,8.8,5.36C156.03,233.7,156.36,234.71,156.47,236.01z"/>
		<path style="fill:#231F20;" d="M157.1,238.17c-0.08-1.18-0.63-1.67-1.58-2.51c-1.09-1.01-7.44-4.66-7.58-4.31
			c0,0.05-1.73-0.71-3.67-0.49c-1.93,0.2-3.56,1.78-4.04,2.3c-0.93,0.96-1.52,1.49-2.46,2.18c0.58-1.01,0.97-1.69,1.92-2.7
			c0.48-0.52,2.23-2.28,4.49-2.53c2.18-0.24,3.99,0.58,3.99,0.52c0.19-0.33,6.71,3.39,7.82,4.44
			C157.07,235.97,157.55,237.07,157.1,238.17z"/>
		<path style="fill:#231F20;" d="M157.14,238.33c-0.01-0.71,0.01-1.08-0.28-1.61c0.03-0.97-4.19-1.94-4.18-1.79
			c0.02-0.11-4.14-0.31-4.96-0.14c-0.76,0.08-1.18-0.02-1.86-0.06c0.55-0.42,1.02-0.6,1.8-0.69c0.86-0.2,5.13,0.03,5.12,0.14
			c-0.05-0.11,4.41,0.71,4.74,2.19C157.97,237.25,157.55,237.85,157.14,238.33z"/>
		<path style="fill:#231F20;" d="M157.5,237.75c-0.35-1.07-0.57-1.74-1.04-2.91c-0.04-1.61-5.12-6.46-5.33-6.22
			c0.12-0.19-6.06-3.54-7.48-3.8c-1.22-0.45-1.88-0.77-2.87-1.3c1.12,0.07,1.88,0.15,3.13,0.59c1.45,0.25,7.78,3.69,7.66,3.89
			c0.19-0.27,5.53,4.78,5.6,6.55C157.65,235.83,157.63,236.65,157.5,237.75z"/>
		<path style="fill:#231F20;" d="M157.58,235.11c0.35-1.99-0.07-3.3-0.91-5.44c-0.39-2.77-9.37-12.17-9.73-11.75
			c0.36-0.54-10.87-6.92-13.61-7.03c-2.26-0.74-3.58-0.95-5.51-1.6c1.99,0.17,3.41,0.14,5.71,0.88c2.79,0.1,14.24,6.62,13.87,7.17
			c0.37-0.42,9.51,9.1,9.95,12.03C158.25,231.62,158.41,233.26,157.58,235.11z"/>
		<path style="fill:#231F20;" d="M167.14,233.52c0.39-1.9,0.98-3.22,2.4-5.06c0.77-0.97,2.93-4.12,5.52-6.53
			c2.54-2.47,5.51-3.8,5.44-3.89c-0.17-0.48,11.89-4.51,14.48-4.48c2.29-0.44,3.61-0.51,5.56-0.62c-1.87,0.58-3.15,0.9-5.42,1.35
			c-2.62,0-14.46,3.95-14.27,4.41c0.07,0.09-2.82,1.38-5.28,3.78c-2.48,2.31-4.65,5.44-5.43,6.42
			C168.72,230.73,168.01,231.75,167.14,233.52z"/>
		<path style="fill:#231F20;" d="M165.15,232.64c-0.01-1.61,0.06-2.77,0.83-4.59c0.19-2.54,8.15-9.67,8.43-9.28
			c-0.15-0.28,9.2-5.08,11.3-5.48c1.82-0.64,2.91-0.84,4.51-1.06c-1.47,0.69-2.47,1.12-4.26,1.77c-2.09,0.41-11.3,5.12-11.13,5.39
			c-0.29-0.37-8.01,6.57-8.16,8.96C165.93,230.07,165.62,231.08,165.15,232.64z"/>
		<path style="fill:#231F20;" d="M157.55,238.73c0.22-1.73-0.13-2.83-0.85-4.68c-0.1-2.62-8.52-9.96-8.84-9.54
			c0.2-0.37-9.95-4.91-12.25-5.07c-1.97-0.57-3.1-0.85-4.74-1.47c1.73,0.15,2.93,0.18,4.93,0.74c2.33,0.14,12.65,4.77,12.46,5.15
			c0.3-0.45,9,7.1,9.13,9.88C158.17,235.71,158.25,237.13,157.55,238.73z"/>
		<path style="fill:#231F20;" d="M159.21,231.31c-0.16-1.75-0.66-2.79-1.58-4.58c-0.8-2.11-8.08-10.69-8.34-10.43
			c0.22-0.24-8.55-7.23-10.59-8.22c-1.73-1.14-2.7-1.8-4.06-2.91c1.6,0.69,2.72,1.13,4.46,2.27c2.07,0.98,10.93,8.06,10.71,8.31
			c0.27-0.24,7.63,8.38,8.47,10.61C159.25,228.24,159.55,229.59,159.21,231.31z"/>
		<path style="fill:#231F20;" d="M157.4,237.29c-1-1.47-1.55-2.65-1.93-4.76c-0.45-2.24-2.23-13.67-2.06-13.68
			c-0.1,0.01-1.04-11.5-0.97-13.8c-0.05-2.13,0.05-3.33,0.24-5.11c0.29,1.77,0.45,2.97,0.51,5.09c-0.07,2.3,0.86,13.76,0.96,13.75
			c-0.17,0.03,1.61,11.36,2.05,13.63C156.58,234.47,156.82,235.57,157.4,237.29z"/>
		<path style="fill:#231F20;" d="M164.52,233.81c-0.5-2.15-0.89-3.57-1.27-6.17c-0.89-2.88,0.12-17.11,0.4-17.09
			c-0.6-0.1,3.29-14.02,5.77-16.04c1.36-2.28,2.65-3.19,4.14-4.78c-1.14,1.91-2.19,2.95-3.52,5.18c-2.41,1.97-6.24,15.61-5.65,15.74
			c-0.29-0.06-1.26,14.14-0.4,16.88C164.36,230.11,164.49,231.62,164.52,233.81z"/>
		<path style="fill:#231F20;" d="M164.6,235.38c-0.32-1.68-0.33-2.96,0.37-4.92c0.64-2.13,5.06-12.33,5.34-12.21
			c-0.29-0.17,6.03-9.4,7.95-10.7c1.41-1.5,2.46-2.08,3.86-3.07c-1.09,1.35-1.95,2.1-3.33,3.59c-1.88,1.29-8.11,10.36-7.83,10.53
			c-0.28-0.14-4.64,9.97-5.29,12.09C165,232.61,164.76,233.65,164.6,235.38z"/>
		<path style="fill:#231F20;" d="M165.01,237.26c-0.4-1.76-0.58-3.06-0.22-5.22c0.12-1.17,0.88-4.66,2.19-7.66
			c1.3-3.03,3.29-5.28,3.22-5.32c-0.29-0.3,8.28-8.4,10.17-9.74c1.64-1.4,2.58-2.17,4.08-3.2c-1.17,1.38-1.95,2.36-3.59,3.77
			c-1.93,1.4-10.39,9.37-10.08,9.64c0.06,0.04-1.87,2.24-3.12,5.17c-1.25,2.89-2.01,6.32-2.13,7.47
			C165.17,234.27,165.09,235.44,165.01,237.26z"/>
		<path style="fill:#231F20;" d="M164.26,233.82c0.43-1.65,0.54-2.73,0.95-4.71c0.14-2.32,4.45-12.35,4.54-12.33
			c-0.29-0.14,5.48-9.59,7.63-10.69c1.44-1.44,2.58-1.89,4.01-2.75c-1.16,1.26-2.1,1.89-3.5,3.3c-2.08,1.06-7.74,10.31-7.46,10.47
			c-0.07-0.07-4.37,10-4.48,12.16C165.53,231.21,165.13,232.37,164.26,233.82z"/>
		<path style="fill:#231F20;" d="M164.37,236.58c-0.16-1.65-0.25-2.77-0.15-4.74c-0.1-2.16,1.56-12.74,1.73-12.72
			c-0.23-0.07,3.12-10.28,4.53-12.03c1.03-1.69,1.78-2.56,2.85-3.81c-0.68,1.53-1.19,2.51-2.2,4.17
			c-1.37,1.71-4.68,11.76-4.46,11.83c-0.17-0.03-1.8,10.44-1.71,12.6C164.85,233.85,164.69,234.95,164.37,236.58z"/>
		<path style="fill:#231F20;" d="M165.85,235.11c0-1.7,0.19-2.88,0.67-4.83c0.46-2.16,3.42-12.69,2.85-12.75
			c0.76-0.02-0.74-10.77-2-12.73c-0.62-1.91-0.95-3.01-1.29-4.68c0.79,1.5,1.37,2.52,2.01,4.45c1.28,1.92,2.81,13,2.03,13.03
			c0.57,0.15-2.41,10.77-2.87,12.87C166.75,232.43,166.33,233.47,165.85,235.11z"/>
		<path style="fill:#231F20;" d="M157.75,235.9c-0.64-1.86-1.05-3.1-1.69-5.34c-1.17-2.36-2.27-15.09-2.06-15.07
			c-0.13,0-0.18-12.68,0.13-15.2c0.13-2.33,0.34-3.65,0.68-5.58c0.13,1.96,0.19,3.29,0.07,5.61c-0.29,2.52-0.26,15.13-0.13,15.13
			c-0.2,0.02,0.88,12.58,2.03,14.91C157.42,232.6,157.58,233.95,157.75,235.9z"/>
		<path style="fill:#231F20;" d="M154.42,235.64c-0.71-1.79-1.16-3.02-1.74-5.25c-0.76-2.42-2.38-14.78-2.32-14.78
			c-0.16,0.03-1.38-12.43-0.73-14.96c0.14-2.32,0.65-3.58,1.22-5.41c-0.11,1.94-0.35,3.2-0.47,5.47c-0.63,2.45,0.56,14.81,0.73,14.8
			c-0.06,0.02,1.57,12.34,2.31,14.7C153.97,232.43,154.17,233.72,154.42,235.64z"/>
		<path style="fill:#231F20;" d="M166.19,236.68c-0.18-2.03-0.31-3.34-0.65-5.71c-0.56-2.52-2.14-15.52-1.94-15.54
			c-0.17,0.02-0.67-13.08-0.21-15.68c0.14-2.41,0.35-3.77,0.69-5.75c0.13,2.03,0.18,3.39,0.06,5.79c-0.45,2.59,0.04,15.6,0.21,15.59
			c-0.2,0.03,1.38,12.91,1.93,15.5C166.62,233.26,166.5,234.69,166.19,236.68z"/>
		<path style="fill:#231F20;" d="M165.23,237.54c-0.06-2.12-0.18-3.51-0.14-6.04c-0.27-2.85,2.44-16.22,2.64-16.21
			c-0.57-0.22,5.17-12.79,7.48-14.58c1.49-2.04,2.48-3.06,3.94-4.6c-1.07,1.82-1.87,3.01-3.33,5.04c-2.3,1.82-7.91,14.1-7.36,14.33
			c-0.18-0.08-2.88,13.33-2.61,16.03C165.79,234.02,165.66,235.48,165.23,237.54z"/>
		<path style="fill:#231F20;" d="M159.5,237.15c0.39-1.61-0.34-2.58-0.58-4.54c0.22-2.24-4.08-11.73-4.61-11.45
			c0.3-0.23-6.71-7.99-8.55-9.13c-1.44-1.29-2.23-2.07-3.31-3.31c1.39,0.87,2.34,1.45,3.8,2.74c1.84,1.12,8.96,9.02,8.67,9.27
			c0.54-0.3,4.98,9.45,4.74,11.78C159.88,234.34,160.38,235.65,159.5,237.15z"/>
		<path style="fill:#231F20;" d="M153.75,188.94c0.87,2.13,1.31,3.64,1.92,6.31c0.7,2.89,3.53,17.48,3.5,17.49
			c0.03-0.01,2.67,14.62,3.04,17.57c0.37,2.72,0.51,4.28,0.39,6.59c-0.36-2.27-0.76-3.77-1.13-6.48c-0.38-2.94-3-17.55-3.03-17.55
			c0.03,0-2.82-14.58-3.5-17.46C154.34,192.74,154.16,191.2,153.75,188.94z"/>
		<path style="fill:#231F20;" d="M162.74,237.55c-0.51-2.1-0.67-3.62-0.63-6.2c0.35-2.76-1.36-16.72-1.52-16.67
			c0.49-0.14-2.97-13.63-5.08-15.79c-1.19-2.27-1.92-3.54-2.83-5.52c1.32,1.72,2.27,2.86,3.49,5.17c2.16,2.18,5.67,15.95,5.16,16.02
			c0.17,0,1.88,13.91,1.53,16.79C162.81,233.95,162.71,235.37,162.74,237.55z"/>
		<path style="fill:#231F20;" d="M161.96,235.82c-0.57-1.88-0.82-3.24-0.93-5.58c0.38-2.59-2.38-14.95-2.67-14.87
			c0.28-0.1-4.47-11.82-6.02-13.89c-1.08-2.07-1.73-3.22-2.51-5.04c1.18,1.57,2.07,2.6,3.17,4.68c1.56,2.07,6.36,13.93,6.07,14.03
			c0.3-0.08,3.1,12.42,2.7,15.05C161.88,232.55,161.86,233.84,161.96,235.82z"/>
		<path style="fill:#231F20;" d="M161.16,234.64c0.08-2.29-0.3-3.78-0.68-6.47c0.27-3.14-5.17-16.83-5.57-16.67
			c0.24-0.13-7.48-12.73-9.31-15.07c-1.53-2.26-2.29-3.62-3.36-5.65c1.48,1.76,2.44,2.97,3.99,5.23c1.84,2.32,9.59,15.01,9.36,15.15
			c0.4-0.2,5.94,13.74,5.64,16.9C161.59,230.76,161.72,232.4,161.16,234.64z"/>
		<path style="fill:#231F20;" d="M161.32,236.64c-0.5-1.67-0.76-2.81-1.1-4.83c-0.22-2.23-3.07-13.01-3.17-12.98
			c0.07-0.02-3.52-10.59-4.4-12.64c-0.73-1.92-1.05-3.05-1.45-4.75c0.85,1.52,1.4,2.56,2.15,4.48c0.9,2.05,4.49,12.67,4.42,12.69
			c0.1-0.03,2.98,10.82,3.19,13.07C161.29,233.72,161.31,234.91,161.32,236.64z"/>
		<path style="fill:#231F20;" d="M160.69,237.45c-0.72-2.16-1.03-3.72-1.33-6.4c0.31-3.01-4.98-16.81-5.05-16.76
			c0.07-0.03-5.84-13.49-6.95-16.23c-1.06-2.5-1.44-4.02-2.05-6.2c1.06,2.02,1.67,3.43,2.74,5.92c1.11,2.71,7.02,16.2,6.95,16.23
			c0.07-0.04,5.39,13.78,5.1,16.95C160.39,233.68,160.43,235.18,160.69,237.45z"/>
		<path style="fill:#231F20;" d="M161.53,238.22c-0.51-1.9-1.37-3.6-2.35-6.11c-0.52-3.11-8.5-16.06-8.81-15.86
			c0.27-0.2-9.4-11.95-11.6-14.07c-1.88-2.09-2.88-3.34-4.28-5.23c1.76,1.57,2.95,2.64,4.84,4.73c2.21,2.11,11.92,13.93,11.66,14.14
			c0.3-0.21,8.38,12.86,8.9,16.03C160.87,234.4,161.48,236.17,161.53,238.22z"/>
		<path style="fill:#231F20;" d="M158.61,236.01c-1.09-2.2-1.83-3.63-3.44-6.02c-1-3.38-13.89-12.47-14.22-11.94
			c0.2-0.43-14.45-6.16-17.68-6.35c-2.82-0.64-4.42-1.02-6.79-1.62c2.44,0.12,4.11,0.25,6.96,0.88c3.26,0.17,18.05,5.97,17.86,6.42
			c0.32-0.56,13.45,8.68,14.49,12.18C157.44,232.03,157.97,233.66,158.61,236.01z"/>
		<path style="fill:#231F20;" d="M161.13,237.63c-0.66-1.77-1.53-2.67-3.1-4.18c-1.38-2.29-12.48-7.07-12.67-6.55
			c0.08-0.42-11.92-1.81-14.35-1.12c-2.23,0.08-3.48,0.25-5.37,0.21c1.82-0.44,3.07-0.87,5.32-0.96c2.46-0.7,14.66,0.72,14.59,1.15
			c0.18-0.54,11.56,4.34,12.99,6.71C160.18,234.46,160.95,235.75,161.13,237.63z"/>
		<path style="fill:#231F20;" d="M166.95,233.24c-0.09-1.27,0.32-2.2,1.25-3.38c0.79-1.65,7.67-6.04,7.81-5.81
			c0.01,0.04,1.86-0.93,4.18-1.14c2.38-0.14,4.67,1.14,5.3,1.63c1.32,0.79,1.72,1.66,2.5,2.61c-1.12-0.62-1.67-1.26-2.91-1.98
			c-0.61-0.46-2.7-1.62-4.85-1.5c-2.12,0.19-3.9,1.1-3.91,1.07c-0.12-0.24-6.83,4.07-7.55,5.6
			C167.91,231.46,167.35,232.04,166.95,233.24z"/>
		<path style="fill:#231F20;" d="M130.22,250.13l-0.46-0.14c6.26-20.71,13.13-26.75,15.79-28.39l0.25,0.41
			C143.19,223.62,136.44,229.58,130.22,250.13z"/>
		<path style="fill:#231F20;" d="M155.56,216.58l0.12,0.08c-0.31,0.32-0.81,0.56-0.97,0.98c0.2-0.17,0.52-0.24,0.74-0.06
			c-0.15,0.29-0.5,0.46-0.77,0.62c-0.33,0.18-0.56,0.37-0.86,0.58c0.04,0,0.33,0.05,0.44,0.08c-0.26,0.04-0.54,0.22-0.81,0.29
			c-0.2,0.06-0.53,0.15-0.68,0.26c0.27-0.07,0.54-0.06,0.83-0.02c-0.31,0.13-0.98,0.12-1.18,0.35c0.2-0.02,0.41-0.05,0.49,0.18
			c-0.26,0.11-0.61,0.13-0.88,0.26l0.21,0.14c-0.3,0.16-0.74,0.12-1.08,0.19c0.11,0.07,0.25,0.12,0.34,0.23
			c-0.64,0.24-1.49,0.19-2.17,0.18c0.32,0.05,0.63,0.11,0.94,0.23c-0.42,0.36-1.04,0.04-1.5,0.16c0.14,0.05,0.28,0.08,0.38,0.17
			c-0.32,0.05-0.81,0.16-1.12,0.06c0.24,0.11,0.54,0.14,0.74,0.32c-0.28,0.28-1.12,0.29-1.51,0.35c-0.43,0.07-0.77,0.09-1.18,0.24
			c-0.33,0.11-0.67,0.23-1.01,0.38c-0.31,0.13-1,0.74-1.39,0.45c-0.3-0.23,0.2-0.75,0.37-0.93c0.64-0.65,1.43-1.14,2.05-1.8
			c0.28-0.3,0.75-1.63,1.26-1.48c0.22,0.07,0.05,0.35,0.25,0.39c0.33,0.07,0.18-0.73,0.51-0.8c0,0.11,0.04,0.23,0.04,0.33
			c0.27-0.27,0.55-0.56,0.82-0.84c0.01,0.06,0.07,0.14,0.06,0.24c0.2-0.15,0.44-0.25,0.65-0.39c0.27-0.17,0.44-0.44,0.68-0.63
			c-0.06,0.16-0.23,0.3-0.11,0.46c0.38-0.09,1.13-1.23,1.22-0.32c0.17-0.07,0.33-0.24,0.52-0.24c0.01,0.11,0.07,0.12,0.11,0.19
			c0.16-0.09,0.63-1.01,0.74-0.42c0.25-0.22,0.55-0.76,0.89-0.83c0.02,0.2-0.11,0.47-0.18,0.65c0.32-0.16,1.41-0.8,1.72-0.52
			c-0.12,0.18-0.37,0.35-0.48,0.54C155.02,216.86,155.32,216.5,155.56,216.58z"/>
		<path style="fill:#231F20;" d="M129.14,252.38c-3.71-31.96-2.07-36.25-1.37-38.09c0.06-0.16,0.11-0.29,0.15-0.43l0.39,0.12
			c-0.04,0.14-0.1,0.29-0.16,0.46c-0.69,1.8-2.3,6.03,1.4,37.89L129.14,252.38z"/>
		<path style="fill:#231F20;" d="M131.37,205.02l0.07,0.05c0.07,0.11-0.02,0.38-0.04,0.5c-0.02,0.18-0.04,0.4,0.03,0.58
			c0.03-0.22,0.2-0.45,0.44-0.45c0.07,0.27-0.06,0.58-0.15,0.82c-0.09,0.27-0.21,0.55-0.24,0.82l0.06,0.39
			c-0.03,0.12-0.12,0.22-0.19,0.31c-0.07,0.1-0.09,0.22-0.15,0.32c0.13-0.2,0.31-0.34,0.51-0.48c-0.12,0.25-0.56,0.63-0.56,0.89
			c0.12-0.12,0.23-0.27,0.41-0.16c-0.11,0.21-0.32,0.42-0.41,0.65l0.22-0.03l-0.26,0.37c-0.07,0.09-0.11,0.18-0.13,0.3
			c-0.02,0.13-0.02,0.28-0.08,0.4c-0.06,0.13-0.16,0.16-0.27,0.24c-0.27,0.21-0.52,0.47-0.78,0.69c0.23-0.15,0.46-0.29,0.73-0.38
			c-0.07,0.49-0.72,0.54-0.69,1.07c0.01,0.17,0,0.28-0.09,0.43c-0.09,0.16-0.19,0.33-0.29,0.48c-0.28,0.4-0.63,0.76-0.87,1.19
			c-0.15,0.26-0.3,0.53-0.43,0.8c-0.12,0.25-0.22,1.03-0.63,1.06c-0.32,0.02-0.3-0.59-0.29-0.8c0.02-0.38,0.08-0.75,0.15-1.12
			c0.03-0.17,0.06-0.33,0.1-0.49c0.03-0.14-0.01-0.28,0.02-0.42l0.04-0.25c-0.01-0.28-0.06-0.55-0.04-0.84
			c0.01-0.11-0.03-0.83,0.16-0.75c0.04-0.06,0.05-0.16,0.14-0.16c0-0.1-0.02-0.22-0.04-0.33l-0.01-0.26l0.21,0.19
			c0.02-0.33,0.03-0.67,0.04-0.99l0.17,0.12c0.05-0.21,0.13-0.41,0.2-0.61c0.08-0.26,0.04-0.52,0.08-0.79
			c0.05,0.13,0.02,0.32,0.19,0.36c0.19-0.28,0.03-1.42,0.59-0.89c0.06-0.11,0.06-0.32,0.14-0.41l0.24,0
			c0.02-0.15,0.05-0.29,0.05-0.43c0-0.18,0.07-0.2,0.2-0.28c0.09-0.06,0.23-0.13,0.28-0.23l0.02-0.2l0.07-0.15l0.1-0.17l0.14-0.06
			c0.08-0.08,0.06-0.25,0.16-0.33c0.11-0.1,0.13,0,0.24,0c0.11,0,0.2-0.12,0.22-0.21C131.2,205.31,131.28,205.03,131.37,205.02z"/>
		<path style="fill:#231F20;" d="M126.5,257.77c-6.03-23.51-12.51-31.13-14.95-34c-0.45-0.53-0.75-0.88-0.88-1.15l0.36-0.18
			c0.12,0.23,0.42,0.58,0.83,1.07c2.46,2.89,8.98,10.56,15.03,34.16L126.5,257.77z"/>
		<path style="fill:#231F20;" d="M103.43,216.5l-0.04,0.08c-0.01,0.14,0.2,0.32,0.27,0.42c0.11,0.15,0.23,0.33,0.25,0.52
			c-0.13-0.18-0.38-0.3-0.6-0.19c0.07,0.27,0.33,0.48,0.53,0.65c0.21,0.19,0.44,0.38,0.6,0.6c-0.05,0.09,0.07,0.3,0.13,0.37
			c0.08,0.1,0.21,0.13,0.32,0.19c0.11,0.05,0.18,0.15,0.29,0.2c-0.21-0.11-0.43-0.15-0.68-0.17c0.23,0.16,0.79,0.28,0.91,0.51
			c-0.16-0.05-0.33-0.12-0.44,0.06c0.19,0.13,0.48,0.22,0.67,0.37l-0.2,0.08l0.41,0.2c0.1,0.05,0.18,0.11,0.26,0.2
			c0.08,0.11,0.15,0.23,0.26,0.32c0.12,0.09,0.22,0.07,0.35,0.08c0.34,0.05,0.68,0.16,1.01,0.23c-0.27-0.02-0.54-0.03-0.82,0.01
			c0.29,0.4,0.9,0.13,1.12,0.61c0.07,0.16,0.14,0.25,0.28,0.34c0.16,0.1,0.33,0.2,0.49,0.28c0.44,0.22,0.92,0.37,1.33,0.62
			c0.25,0.15,0.51,0.32,0.76,0.5c0.23,0.16,0.69,0.8,1.06,0.63c0.29-0.13-0.02-0.66-0.13-0.84c-0.2-0.32-0.43-0.62-0.66-0.91
			c-0.1-0.13-0.21-0.26-0.32-0.39c-0.1-0.11-0.13-0.25-0.22-0.36l-0.15-0.2c-0.13-0.26-0.21-0.51-0.37-0.75
			c-0.06-0.09-0.37-0.75-0.5-0.58l-0.2-0.08c-0.05-0.09-0.09-0.21-0.12-0.3l-0.12-0.24l-0.1,0.27c-0.17-0.28-0.35-0.57-0.51-0.85
			l-0.09,0.19c-0.14-0.17-0.31-0.29-0.46-0.45c-0.19-0.2-0.28-0.44-0.45-0.65c0.02,0.14,0.13,0.29,0,0.4
			c-0.3-0.15-0.7-1.23-0.94-0.5c-0.1-0.07-0.21-0.25-0.32-0.29c-0.11-0.04-0.14,0.11-0.21,0.12c-0.09-0.12-0.18-0.23-0.26-0.36
			c-0.09-0.15-0.15-0.14-0.31-0.15c-0.11-0.01-0.27,0-0.36-0.07l-0.11-0.16l-0.13-0.1l-0.17-0.1l-0.15,0.02
			c-0.11-0.03-0.17-0.18-0.3-0.21c-0.15-0.04-0.12,0.06-0.21,0.12c-0.1,0.06-0.23-0.01-0.3-0.08L103.43,216.5z"/>
		<path style="fill:#231F20;" d="M129.13,256.06c0.14-2.06,0.28-3.49,1.04-5.86c0.4-2.8,7.16-14.41,7.27-14.32
			c-0.54-0.29,7.86-11.07,10.88-11.74c2.09-1.34,3.42-1.86,5.35-2.58c-1.72,1.16-2.9,1.89-4.95,3.21
			c-2.96,0.7-11.11,11.13-10.64,11.51c-0.13-0.07-6.82,11.46-7.2,14.16C130.12,252.76,129.74,254.08,129.13,256.06z"/>
		<path style="fill:#231F20;" d="M122.33,256.25c-0.03-2.37,0.08-3.92-0.11-6.71c0.72-3.19-4.2-17.55-4.9-17.27
			c0.48-0.27-7.86-12.94-10.19-14.95c-1.91-2-3.05-3.06-5.06-4.29c2.22,0.79,3.65,1.74,5.61,3.78c2.38,2.04,10.78,14.83,10.31,15.12
			c0.7-0.32,5.72,14.29,4.98,17.56C123.15,252.34,122.78,253.95,122.33,256.25z"/>
		<path style="fill:#231F20;" d="M122.28,254.33c-0.34-1.31-0.52-2.18-0.65-3.74c0.07-1.76-2.38-9.87-2.58-9.81
			c0.15-0.08-3.84-7.57-5-8.87c-0.92-1.27-1.35-2.06-1.94-3.27c0.97,0.92,1.62,1.56,2.55,2.84c1.18,1.3,5.23,8.92,5.08,9.01
			c0.21-0.07,2.72,8.22,2.63,10.01C122.5,252.09,122.42,253,122.28,254.33z"/>
		<path style="fill:#231F20;" d="M124.17,258.93c-0.21-1.12-0.23-1.84-0.27-3.11c0.25-1.44-1.6-8.19-1.76-8.15
			c0.12-0.05-2.83-6.41-3.73-7.53c-0.69-1.09-1-1.76-1.4-2.81c0.79,0.78,1.33,1.32,2.04,2.42c0.92,1.12,3.91,7.61,3.79,7.66
			c0.16-0.05,2.08,6.87,1.81,8.38C124.68,257.1,124.44,257.87,124.17,258.93z"/>
		<path style="fill:#231F20;" d="M121.52,255.95c-0.26-1.18-0.19-1.92-0.41-3.23c0.23-1.57-3.08-8.17-3.2-8.11
			c0.07-0.05-4.08-6.15-5.13-7.23c-0.84-1.08-1.25-1.75-1.78-2.79c0.91,0.74,1.52,1.25,2.37,2.32c1.06,1.06,5.26,7.26,5.19,7.31
			c0.12-0.08,3.53,6.68,3.3,8.39C122.08,254,121.73,254.85,121.52,255.95z"/>
		<path style="fill:#231F20;" d="M121.71,257.07c-0.36-1.05-0.29-1.7-0.65-2.82c0.1-1.42-3.62-6.91-3.7-6.84
			c0.05-0.04-4.23-5.09-5.19-6.02c-0.82-0.91-1.19-1.53-1.7-2.44c0.87,0.61,1.42,1.04,2.25,1.94c0.96,0.91,5.28,6.03,5.23,6.07
			c0.07-0.07,3.9,5.53,3.83,7.12C122.16,255.27,121.84,256.09,121.71,257.07z"/>
		<path style="fill:#231F20;" d="M122.04,257.22c1.81-0.5,0.97-2.15,0.49-3.85c0.01-2.5-7.24-10.73-7.53-10.45
			c0.27-0.34-8.79-6.5-11.17-6.49c-1.89-0.69-3.02-0.69-4.68-1.19c1.67,0.02,2.94-0.23,4.89,0.46c2.49-0.01,11.74,6.32,11.46,6.66
			c0.27-0.32,7.73,8.15,7.73,10.76C123.86,254.74,124.15,257.29,122.04,257.22z"/>
		<path style="fill:#231F20;" d="M124.78,257.95c0.05-1.4,0.07-2.29-0.06-3.88c0.59-2.01-4.2-9.46-4.54-9.21
			c0.19-0.18-6.36-6.11-7.94-6.99c-1.31-0.97-2.01-1.6-3-2.58c1.26,0.59,2.11,1.01,3.44,1.98c1.59,0.86,8.24,6.9,8.06,7.1
			c0.33-0.29,5.33,7.44,4.72,9.64C125.6,255.7,125.3,256.66,124.78,257.95z"/>
		<path style="fill:#231F20;" d="M131.46,253.43c-0.43-1.42-0.67-2.45-0.53-4.24c-0.37-2.09,3.11-11.13,3.37-11
			c-0.19-0.11,4.79-8.33,6.2-9.68c1.1-1.39,1.87-2.06,3.02-2.99c-0.8,1.26-1.36,2.08-2.43,3.45c-1.38,1.35-6.31,9.44-6.12,9.55
			c-0.26-0.11-3.65,8.75-3.29,10.73C131.54,250.97,131.5,251.94,131.46,253.43z"/>
		<path style="fill:#231F20;" d="M130.11,256.84c0.62-1.55,0.17-2.64,0.38-4.64c-0.1-2.28,3.53-12.36,3.78-12.26
			c-0.16-0.08,4.79-9.55,6.08-11.26c1.02-1.68,1.76-2.53,2.83-3.79c-0.67,1.52-1.19,2.5-2.2,4.18c-1.28,1.72-6.2,11.1-6.03,11.17
			c-0.25-0.11-3.82,9.89-3.72,12.03C131.03,254.13,131.19,255.48,130.11,256.84z"/>
		<path style="fill:#231F20;" d="M129.31,256.86c0.08-1.55,0.16-2.6,0.53-4.41c0.23-2,2.88-11.67,2.86-11.67
			c0.01,0,2.97-9.57,3.8-11.4c0.64-1.73,1.13-2.67,1.88-4.03c-0.31,1.53-0.55,2.56-1.17,4.29c-0.81,1.83-3.78,11.35-3.79,11.35
			c0.01,0-2.61,9.63-2.85,11.62C130.19,254.4,129.86,255.39,129.31,256.86z"/>
		<path style="fill:#231F20;" d="M130.55,255.22c-1.12-1.51-0.7-3.03-0.57-5.06c-0.01-2.36,2-13.84,2.25-13.8
			c-0.22-0.04,3.15-11.26,4.47-13.24c0.89-1.96,1.51-3.02,2.46-4.54c-0.52,1.74-0.9,2.9-1.78,4.84c-1.3,1.96-4.64,13.07-4.42,13.12
			c-0.25-0.04-2.23,11.34-2.23,13.68C130.58,252.36,129.9,253.57,130.55,255.22z"/>
		<path style="fill:#231F20;" d="M121.67,255.63c-0.38-1.49-0.64-2.52-0.79-4.35c-0.41-2,0.3-11.98,0.49-11.96
			c-0.2-0.05,2.15-9.77,3.19-11.54c0.75-1.69,1.32-2.58,2.16-3.87c-0.42,1.5-0.74,2.48-1.47,4.14c-1.01,1.75-3.34,11.33-3.14,11.37
			c-0.19-0.02-0.88,9.82-0.49,11.8C121.77,253.04,121.77,254.07,121.67,255.63z"/>
		<path style="fill:#231F20;" d="M130.25,256.19c0.07-1.26,0.2-2.08,0.51-3.5c0.52-1.52,1.16-9.43,1.06-9.43
			c0.07,0-0.03-7.95-0.27-9.53c-0.11-1.46-0.07-2.3,0.06-3.55c0.35,1.2,0.57,2.02,0.69,3.49c0.24,1.59,0.34,9.6,0.27,9.61
			c0.1,0-0.53,8.02-1.08,9.57C131.17,254.3,130.79,255.07,130.25,256.19z"/>
		<path style="fill:#231F20;" d="M130.1,256.36c0.78-1.76,0.08-2.99-0.1-5.21c-0.57-2.48,0.29-14.65,0.54-14.63
			c-0.23-0.04,2.29-12.01,3.45-14.21c0.71-2.14,1.38-3.25,2.26-4.91c-0.44,1.85-0.86,3.04-1.55,5.16
			c-1.13,2.19-3.64,14.03-3.41,14.07c-0.25-0.04-1.08,12.08-0.54,14.44C130.91,253.2,131.35,254.79,130.1,256.36z"/>
		<path style="fill:#231F20;" d="M131.83,255.35c1-1.36,0.92-2.52,1.11-4.46c0.35-2.2-0.09-12.92-0.44-12.9
			c0.27-0.06-2.49-10.48-3.73-12.33c-0.76-1.84-1.22-2.87-1.72-4.49c0.92,1.4,1.63,2.33,2.41,4.19c1.27,1.86,4.06,12.45,3.78,12.51
			c0.36-0.03,0.82,10.92,0.45,13.06C133.52,252.89,133.22,254.31,131.83,255.35z"/>
		<path style="fill:#231F20;" d="M123.86,253.64c0.69-1.93,0.26-3.33,0.09-5.74c0.15-2.73-2.33-15.69-2.66-15.63
			c0.27-0.09-4.57-12.42-6.33-14.5c-1.18-2.14-1.93-3.3-2.81-5.17c1.28,1.6,2.26,2.64,3.46,4.8c1.79,2.1,6.68,14.57,6.4,14.67
			c0.34-0.08,2.86,13.08,2.69,15.77C124.87,250.23,125.02,251.87,123.86,253.64z"/>
		<path style="fill:#231F20;" d="M130.4,255.87c-0.27-1.9-0.44-3.2-0.48-5.48c-0.15-2.48,0.21-14.88,0.29-14.88
			c-0.11-0.01,1.03-12.38,1.65-14.8c0.42-2.25,0.84-3.5,1.44-5.32c-0.14,1.93-0.3,3.21-0.7,5.45c-0.6,2.41-1.75,14.71-1.64,14.72
			c-0.08,0-0.42,12.36-0.29,14.83C130.7,252.66,130.61,253.95,130.4,255.87z"/>
		<path style="fill:#231F20;" d="M128.63,258.79c-0.26-2.26-0.45-3.81-0.45-6.53c-0.14-2.95,0.47-17.69,0.53-17.69
			c-0.07,0,1.12-14.72,1.81-17.62c0.41-2.69,0.92-4.18,1.56-6.36c-0.17,2.29-0.42,3.8-0.82,6.47c-0.66,2.87-1.87,17.54-1.8,17.55
			c-0.06,0-0.66,14.71-0.53,17.65C128.91,254.98,128.84,256.51,128.63,258.79z"/>
		<path style="fill:#231F20;" d="M130.47,258.43c0.2-1.69,0.61-2.81,1.49-4.62c0.72-2.16,7.43-10.84,7.75-10.57
			c-0.22-0.24,8.21-7.27,10.26-8.14c1.7-1.08,2.77-1.51,4.32-2.18c-1.31,1.08-2.24,1.72-3.92,2.81c-2.04,0.88-10.35,7.8-10.13,8.03
			c-0.31-0.27-6.91,8.29-7.62,10.39C131.76,255.94,131.14,256.88,130.47,258.43z"/>
		<path style="fill:#231F20;" d="M130.92,256.98c0.22-1.41,0.35-2.42,0.96-4.04c0.34-1.99,5.94-9.55,6.15-9.38
			c-0.14-0.16,6.92-6.33,8.71-7.05c1.48-0.88,2.42-1.21,3.78-1.71c-1.13,0.92-1.93,1.47-3.38,2.34c-1.76,0.73-8.7,6.77-8.56,6.93
			c-0.21-0.16-5.66,7.24-6,9.16C131.97,254.8,131.61,255.68,130.92,256.98z"/>
		<path style="fill:#231F20;" d="M130.8,258.74c0.38-1.36,0.56-2.27,1.24-3.82c-0.01-2.41,7.59-7.96,7.92-7.35
			c-0.13-0.51,8.88-2.18,10.71-1.83c1.67-0.06,2.61,0.1,3.99,0.31c-1.38,0.26-2.33,0.36-3.97,0.43c-1.86-0.32-10.6,1.29-10.44,1.78
			c-0.33-0.58-7.55,4.71-7.53,6.97C132.06,256.72,131.61,257.59,130.8,258.74z"/>
		<path style="fill:#231F20;" d="M131.37,256c-0.27-1.12-0.42-1.87-0.46-3.22c-0.41-1.75,2.85-8.47,3.14-8.29
			c-0.15-0.12,4.47-5.85,5.54-6.83c0.91-1,1.51-1.48,2.44-2.15c-0.57,0.99-0.99,1.65-1.88,2.65c-1.08,1.01-5.63,6.64-5.47,6.74
			c-0.3-0.18-3.42,6.39-3.02,7.86C131.69,254.11,131.58,254.87,131.37,256z"/>
		<path style="fill:#231F20;" d="M121.71,257.07c-0.35-1.3-0.69-2.04-1.5-3.33c-0.56-1.68-7.22-6.97-7.39-6.66
			c0.25-0.6-7.83-3.08-9.49-1.71c-1.49,0.34-2.26,0.72-3.56,1.08c1.06-0.77,1.79-1.43,3.38-1.8c1.81-1.47,10.36,1.19,10.05,1.79
			c0.21-0.29,7.01,5.07,7.65,6.91C121.71,254.71,121.85,255.76,121.71,257.07z"/>
		<path style="fill:#231F20;" d="M121.93,259.31c0.14-1.18-0.31-1.76-1.08-2.77c-0.88-1.19-6.45-5.97-6.64-5.65
			c0,0.05-1.56-1.02-3.51-1.16c-1.94-0.16-3.83,1.09-4.39,1.51c-1.09,0.77-1.77,1.18-2.82,1.68c0.76-0.88,1.26-1.48,2.4-2.3
			c0.57-0.42,2.62-1.82,4.88-1.65c2.18,0.17,3.81,1.31,3.82,1.26c0.25-0.29,5.96,4.58,6.85,5.82
			C122.32,257.14,122.59,258.31,121.93,259.31z"/>
		<path style="fill:#231F20;" d="M121.94,259.47c0.12-0.7,0.22-1.06,0.02-1.64c0.21-0.95-3.76-2.69-3.77-2.54
			c0.04-0.1-4.01-1.08-4.85-1.06c-0.76-0.07-1.15-0.24-1.82-0.41c0.62-0.31,1.12-0.4,1.9-0.34c0.88-0.03,5.03,0.99,5.01,1.09
			c-0.03-0.11,4.2,1.52,4.25,3.04C122.96,258.56,122.43,259.08,121.94,259.47z"/>
		<path style="fill:#231F20;" d="M122.41,258.97c-0.15-1.12-0.24-1.82-0.48-3.06c0.26-1.58-3.83-7.3-4.08-7.1
			c0.16-0.16-5.29-4.6-6.64-5.13c-1.11-0.67-1.7-1.11-2.58-1.81c1.08,0.27,1.82,0.5,2.96,1.17c1.38,0.52,6.95,5.07,6.8,5.25
			c0.24-0.23,4.54,5.72,4.28,7.48C122.91,257.11,122.74,257.91,122.41,258.97z"/>
		<path style="fill:#231F20;" d="M122.98,256.39c0.71-1.89,0.54-3.26,0.12-5.52c0.13-2.79-6.94-13.71-7.37-13.35
			c0.46-0.46-9.39-8.83-12.06-9.45c-2.08-1.15-3.34-1.6-5.11-2.6c1.92,0.54,3.32,0.77,5.45,1.93c2.73,0.62,12.75,9.16,12.29,9.63
			c0.44-0.34,7.64,10.71,7.53,13.68C124.29,253.08,124.13,254.72,122.98,256.39z"/>
		<path style="fill:#231F20;" d="M132.67,256.61c0.74-1.8,1.56-2.99,3.3-4.53c0.93-0.81,3.65-3.5,6.64-5.38
			c2.95-1.96,6.12-2.7,6.07-2.81c-0.08-0.5,12.52-2.21,15.06-1.7c2.33-0.01,3.64,0.17,5.58,0.43c-1.94,0.22-3.26,0.3-5.58,0.32
			c-2.57-0.49-14.95,1.19-14.84,1.67c0.05,0.1-3.03,0.83-5.89,2.73c-2.86,1.8-5.58,4.48-6.53,5.3
			C134.74,254.17,133.85,255.03,132.67,256.61z"/>
		<path style="fill:#231F20;" d="M130.87,255.37c0.29-1.58,0.58-2.71,1.67-4.35c0.66-2.47,9.81-7.98,10.01-7.54
			c-0.1-0.31,9.98-3.28,12.12-3.27c1.91-0.29,3.01-0.28,4.63-0.2c-1.57,0.4-2.63,0.65-4.52,0.94c-2.13,0.01-12.05,2.93-11.94,3.22
			c-0.22-0.41-9.09,4.96-9.68,7.28C132.12,253,131.62,253.93,130.87,255.37z"/>
		<path style="fill:#231F20;" d="M122.27,259.94c0.54-1.66,0.4-2.8,0.03-4.75c0.39-2.6-6.51-11.38-6.9-11.02
			c0.27-0.32-8.86-6.67-11.09-7.26c-1.83-0.93-2.89-1.41-4.38-2.33c1.67,0.47,2.84,0.72,4.7,1.65c2.26,0.57,11.54,7.05,11.28,7.39
			c0.38-0.39,7.52,8.65,7.13,11.41C123.44,257.08,123.26,258.5,122.27,259.94z"/>
		<path style="fill:#231F20;" d="M125.29,252.96c0.17-1.74-0.13-2.86-0.7-4.79c-0.39-2.23-5.95-12.01-6.25-11.8
			c0.26-0.2-7.05-8.69-8.88-10.05c-1.48-1.44-2.31-2.27-3.45-3.61c1.45,0.98,2.46,1.62,3.96,3.07c1.85,1.35,9.23,9.96,8.98,10.16
			c0.31-0.19,5.93,9.66,6.35,12C125.9,249.95,125.94,251.33,125.29,252.96z"/>
		<path style="fill:#231F20;" d="M122.39,258.49c-0.71-1.64-1.02-2.89-1.01-5.04c-0.02-2.28,0.36-13.84,0.53-13.82
			c-0.1-0.01,1.12-11.49,1.62-13.74c0.35-2.1,0.67-3.27,1.19-4.98c-0.05,1.79-0.11,3-0.45,5.09c-0.49,2.25-1.72,13.68-1.62,13.68
			c-0.17,0-0.54,11.46-0.53,13.77C122.12,255.57,122.14,256.7,122.39,258.49z"/>
		<path style="fill:#231F20;" d="M130.03,256.41c-0.09-2.2-0.21-3.67-0.09-6.3c-0.33-2.99,3.3-16.78,3.58-16.71
			c-0.57-0.21,5.85-13.16,8.66-14.68c1.76-1.98,3.2-2.64,4.96-3.92c-1.47,1.66-2.71,2.49-4.42,4.44
			c-2.74,1.49-9.04,14.17-8.49,14.41c-0.27-0.11-3.88,13.66-3.54,16.51C130.56,252.74,130.42,254.25,130.03,256.41z"/>
		<path style="fill:#231F20;" d="M129.82,257.97c-0.01-1.71,0.23-2.97,1.29-4.77c1.03-1.97,7.27-11.17,7.53-11
			c-0.25-0.22,7.68-8.11,9.81-9.03c1.66-1.21,2.81-1.59,4.36-2.29c-1.32,1.12-2.31,1.7-3.94,2.91c-2.09,0.91-9.9,8.66-9.65,8.89
			c-0.25-0.19-6.42,8.93-7.46,10.89C130.73,255.32,130.3,256.29,129.82,257.97z"/>
		<path style="fill:#231F20;" d="M129.87,259.89c-0.07-1.8,0-3.12,0.76-5.17c0.33-1.13,1.73-4.41,3.58-7.12
			c1.84-2.73,4.21-4.57,4.16-4.63c-0.23-0.35,9.7-6.71,11.81-7.67c1.87-1.07,2.94-1.65,4.61-2.39c-1.4,1.14-2.36,1.96-4.23,3.03
			c-2.16,1.01-11.95,7.27-11.7,7.6c0.06,0.05-2.25,1.85-4.03,4.49c-1.77,2.61-3.16,5.84-3.49,6.94
			C130.59,256.97,130.29,258.11,129.87,259.89z"/>
		<path style="fill:#231F20;" d="M129.78,256.36c0.73-1.54,1.04-2.58,1.81-4.45c0.57-2.25,6.67-11.3,6.76-11.27
			c-0.26-0.19,7.17-8.4,9.49-9.08c1.68-1.14,2.89-1.37,4.45-1.95c-1.38,1.02-2.42,1.46-4.06,2.59c-2.24,0.66-9.53,8.69-9.28,8.89
			c-0.06-0.08-6.15,9.01-6.67,11.12C131.51,254.04,130.9,255.1,129.78,256.36z"/>
		<path style="fill:#231F20;" d="M129.37,259.1c0.15-1.65,0.27-2.77,0.74-4.68c0.31-2.14,3.91-12.23,4.07-12.17
			c-0.21-0.11,4.99-9.52,6.69-10.97c1.33-1.47,2.23-2.18,3.51-3.21c-0.95,1.37-1.64,2.24-2.93,3.69
			c-1.66,1.43-6.79,10.68-6.58,10.79c-0.16-0.06-3.71,9.93-4.03,12.06C130.36,256.5,129.99,257.56,129.37,259.1z"/>
		<path style="fill:#231F20;" d="M131.1,257.93c0.32-1.67,0.72-2.8,1.56-4.62c0.86-2.04,5.73-11.83,5.18-11.99
			c0.75,0.12,1.28-10.72,0.41-12.88c-0.25-1.99-0.37-3.14-0.4-4.84c0.5,1.62,0.88,2.73,1.14,4.74c0.9,2.13,0.34,13.3-0.43,13.18
			c0.53,0.25-4.38,10.13-5.22,12.11C132.48,255.47,131.88,256.41,131.1,257.93z"/>
		<path style="fill:#231F20;" d="M123,257.19c-0.28-1.95-0.45-3.24-0.66-5.56c-0.71-2.54,0.59-15.25,0.79-15.19
			c-0.13-0.03,2.19-12.49,2.96-14.91c0.57-2.26,1.01-3.52,1.71-5.35c-0.24,1.95-0.43,3.26-0.98,5.53
			c-0.76,2.42-3.08,14.82-2.95,14.84c-0.2-0.02-1.48,12.52-0.79,15.03C123.28,253.89,123.2,255.25,123,257.19z"/>
		<path style="fill:#231F20;" d="M119.77,256.32c-0.36-1.89-0.58-3.19-0.73-5.49c-0.3-2.52,0.42-14.97,0.48-14.95
			c-0.17,0,0.96-12.47,2.07-14.83c0.57-2.25,1.31-3.4,2.21-5.09c-0.47,1.89-0.94,3.08-1.49,5.29c-1.07,2.29-2.21,14.66-2.04,14.67
			c-0.06,0.01-0.76,12.42-0.48,14.88C119.93,253.08,119.88,254.38,119.77,256.32z"/>
		<path style="fill:#231F20;" d="M131.15,259.54c0.2-2.03,0.32-3.34,0.42-5.74c-0.08-2.58,0.79-15.65,0.99-15.63
			c-0.17-0.01,1.78-12.97,2.72-15.44c0.59-2.34,1.04-3.64,1.75-5.52c-0.25,2.02-0.45,3.37-1.02,5.7c-0.92,2.46-2.87,15.33-2.7,15.35
			c-0.2-0.01-1.05,12.94-0.99,15.59C132.2,256.26,131.81,257.63,131.15,259.54z"/>
		<path style="fill:#231F20;" d="M130.04,260.21c0.34-2.09,0.48-3.48,0.99-5.96c0.26-2.85,5.42-15.48,5.61-15.43
			c-0.52-0.32,7.47-11.6,10.07-12.92c1.84-1.73,3.01-2.55,4.73-3.78c-1.39,1.59-2.4,2.61-4.22,4.33
			c-2.6,1.36-10.41,12.38-9.91,12.71c-0.16-0.12-5.32,12.56-5.55,15.26C131.25,256.85,130.84,258.25,130.04,260.21z"/>
		<path style="fill:#231F20;" d="M124.48,258.76c0.69-1.51,0.15-2.6,0.28-4.57c0.63-2.16-1.82-12.29-2.39-12.11
			c0.34-0.17-5.1-9.1-6.69-10.57c-1.18-1.54-1.8-2.45-2.63-3.87c1.2,1.11,2.03,1.87,3.22,3.4c1.6,1.44,7.13,10.53,6.79,10.72
			c0.59-0.2,3.13,10.22,2.46,12.46C125.38,256.06,125.63,257.45,124.48,258.76z"/>
		<path style="fill:#231F20;" d="M127.82,210.31c0.46,2.26,0.61,3.82,0.7,6.56c0.15,2.97,0.21,17.83,0.18,17.83
			c0.04,0-0.1,14.86-0.29,17.83c-0.14,2.74-0.3,4.3-0.84,6.55c0.07-2.29-0.04-3.84,0.09-6.58c0.18-2.96,0.33-17.8,0.29-17.8
			c0.03,0-0.05-14.85-0.18-17.81C127.69,214.16,127.81,212.61,127.82,210.31z"/>
		<path style="fill:#231F20;" d="M127.59,259.75c-0.1-2.16,0.02-3.68,0.54-6.21c0.86-2.65,1.79-16.68,1.62-16.66
			c0.5-0.04-0.37-13.95-2.05-16.46c-0.75-2.46-1.23-3.84-1.75-5.95c0.97,1.94,1.7,3.24,2.46,5.72c1.72,2.55,2.6,16.73,2.09,16.7
			c0.17,0.03-0.74,14.02-1.63,16.79C128.33,256.23,127.97,257.6,127.59,259.75z"/>
		<path style="fill:#231F20;" d="M127.15,257.91c-0.21-1.96-0.2-3.33,0.13-5.65c0.85-2.47,0.45-15.13,0.15-15.11
			c0.29-0.04-2.19-12.45-3.32-14.77c-0.68-2.23-1.1-3.49-1.53-5.42c0.87,1.76,1.54,2.94,2.24,5.19c1.15,2.33,3.65,14.87,3.35,14.92
			c0.31-0.02,0.73,12.78-0.15,15.29C127.68,254.68,127.42,255.94,127.15,257.91z"/>
		<path style="fill:#231F20;" d="M126.58,256.6c0.5-2.23,0.41-3.77,0.53-6.48c0.85-3.04-1.94-17.5-2.36-17.42
			c0.26-0.08-4.97-13.9-6.34-16.55c-1.08-2.51-1.57-3.99-2.25-6.17c1.12,2,1.85,3.37,2.94,5.88c1.37,2.63,6.63,16.54,6.37,16.63
			c0.43-0.12,3.27,14.61,2.4,17.65C127.73,252.86,127.54,254.5,126.58,256.6z"/>
		<path style="fill:#231F20;" d="M126.37,258.59c-0.17-1.74-0.23-2.9-0.18-4.95c0.2-2.23-0.6-13.35-0.7-13.35
			c0.07-0.01-1.48-11.06-1.97-13.24c-0.36-2.03-0.46-3.2-0.54-4.94c0.55,1.65,0.9,2.77,1.28,4.8c0.5,2.18,2.05,13.28,1.98,13.29
			c0.1-0.01,0.92,11.18,0.7,13.44C126.88,255.71,126.67,256.88,126.37,258.59z"/>
		<path style="fill:#231F20;" d="M125.59,259.27c-0.31-2.25-0.32-3.85-0.11-6.53c0.86-2.9-1.76-17.45-1.84-17.41
			c0.08-0.01-3.23-14.34-3.8-17.24c-0.58-2.65-0.66-4.21-0.86-6.48c0.67,2.18,1,3.68,1.59,6.33c0.58,2.87,3.88,17.22,3.8,17.24
			c0.08-0.03,2.73,14.54,1.85,17.6C126.01,255.51,125.77,256.99,125.59,259.27z"/>
		<path style="fill:#231F20;" d="M126.28,260.18c-0.15-1.97-0.68-3.79-1.17-6.44c0.07-3.15-5.36-17.37-5.7-17.22
			c0.3-0.14-7.01-13.49-8.78-15.99c-1.45-2.4-2.2-3.82-3.23-5.94c1.44,1.87,2.41,3.14,3.87,5.55c1.78,2.48,9.11,15.91,8.81,16.06
			c0.33-0.15,5.83,14.2,5.75,17.41C126.34,256.31,126.61,258.16,126.28,260.18z"/>
		<path style="fill:#231F20;" d="M123.82,257.47c-0.66-2.36-1.12-3.91-2.26-6.55c-0.35-3.5-11.32-14.84-11.75-14.38
			c0.27-0.39-13.05-8.75-16.19-9.53c-2.66-1.16-4.15-1.83-6.37-2.86c2.37,0.57,3.99,1.01,6.67,2.17c3.17,0.78,16.62,9.23,16.35,9.63
			c0.42-0.49,11.59,11.04,11.97,14.67C123.41,253.33,123.63,255.04,123.82,257.47z"/>
		<path style="fill:#231F20;" d="M126,259.53c-0.32-1.86-1.01-2.91-2.27-4.68c-0.93-2.51-10.94-9.27-11.22-8.79
			c0.15-0.4-11.37-4-13.89-3.78c-2.2-0.34-3.46-0.41-5.32-0.8c1.87-0.09,3.18-0.28,5.41,0.05c2.54-0.23,14.26,3.44,14.12,3.85
			c0.28-0.49,10.54,6.41,11.51,9.02C125.65,256.24,126.17,257.64,126,259.53z"/>
		<path style="fill:#231F20;" d="M132.53,256.3c0.14-1.27,0.73-2.1,1.86-3.09c1.08-1.47,8.66-4.5,8.75-4.25
			c0,0.04,2.01-0.57,4.32-0.34c2.36,0.31,4.38,1.99,4.91,2.59c1.15,1.02,1.38,1.95,1.97,3.03c-0.99-0.82-1.41-1.55-2.49-2.49
			c-0.51-0.57-2.35-2.1-4.49-2.38c-2.11-0.21-4.04,0.35-4.04,0.32c-0.07-0.26-7.47,2.73-8.46,4.09
			C133.8,254.73,133.14,255.19,132.53,256.3z"/>
		<path style="fill:#231F20;" d="M55.27,277.6l0.57-0.15c-6.65-25.59-14.74-33.29-17.91-35.42l-0.33,0.49
			C40.72,244.61,48.67,252.21,55.27,277.6z"/>
		<path style="fill:#231F20;" d="M25.96,235.41l-0.15,0.09c0.37,0.4,0.96,0.73,1.13,1.25c-0.24-0.21-0.62-0.32-0.9-0.11
			c0.17,0.37,0.59,0.59,0.92,0.79c0.39,0.24,0.67,0.47,1.02,0.75c-0.05,0-0.4,0.05-0.54,0.07c0.32,0.06,0.65,0.29,0.97,0.4
			c0.24,0.08,0.63,0.21,0.81,0.36c-0.32-0.1-0.66-0.1-1.01-0.07c0.37,0.17,1.19,0.19,1.43,0.48c-0.24-0.03-0.5-0.08-0.61,0.2
			c0.31,0.14,0.74,0.19,1.06,0.35l-0.27,0.17c0.36,0.2,0.9,0.18,1.3,0.28c-0.13,0.09-0.32,0.13-0.43,0.26
			c0.78,0.32,1.81,0.31,2.64,0.32c-0.4,0.05-0.78,0.1-1.16,0.23c0.49,0.46,1.27,0.1,1.83,0.27c-0.17,0.06-0.35,0.08-0.47,0.19
			c0.39,0.08,0.98,0.24,1.36,0.13c-0.3,0.12-0.67,0.15-0.92,0.36c0.33,0.36,1.36,0.4,1.83,0.5c0.52,0.11,0.94,0.15,1.43,0.34
			c0.4,0.16,0.81,0.32,1.21,0.51c0.37,0.18,1.19,0.96,1.67,0.61c0.37-0.27-0.2-0.93-0.41-1.16c-0.75-0.82-1.69-1.46-2.42-2.29
			c-0.33-0.38-0.84-2.02-1.46-1.87c-0.28,0.07-0.08,0.42-0.33,0.47c-0.41,0.08-0.18-0.9-0.58-1.01c-0.01,0.13-0.06,0.28-0.06,0.4
			c-0.32-0.35-0.64-0.71-0.95-1.07c-0.02,0.08-0.09,0.17-0.08,0.29c-0.24-0.19-0.52-0.33-0.78-0.51c-0.33-0.22-0.52-0.55-0.8-0.81
			c0.06,0.19,0.26,0.38,0.11,0.57c-0.46-0.13-1.32-1.56-1.47-0.45c-0.2-0.09-0.39-0.31-0.62-0.31c-0.02,0.13-0.09,0.15-0.14,0.23
			c-0.19-0.12-0.73-1.27-0.88-0.54c-0.3-0.29-0.63-0.96-1.05-1.06c-0.03,0.24,0.11,0.58,0.18,0.8c-0.38-0.21-1.68-1.04-2.08-0.72
			c0.14,0.23,0.44,0.44,0.56,0.68C26.6,235.78,26.25,235.34,25.96,235.41z"/>
		<path style="fill:#231F20;" d="M56.49,280.39c6.07-38.84,4.28-44.16,3.51-46.43c-0.07-0.19-0.12-0.36-0.17-0.53l-0.48,0.12
			c0.05,0.18,0.11,0.36,0.18,0.56c0.75,2.24,2.52,7.47-3.53,46.19L56.49,280.39z"/>
		<path style="fill:#231F20;" d="M56.04,222.47l-0.09,0.06c-0.09,0.14,0.01,0.47,0.02,0.61c0.02,0.22,0.03,0.49-0.06,0.71
			c-0.03-0.27-0.22-0.55-0.51-0.57c-0.1,0.33,0.04,0.71,0.14,1.01c0.1,0.33,0.23,0.68,0.26,1.02c-0.11,0.06-0.11,0.36-0.09,0.47
			c0.03,0.15,0.14,0.27,0.22,0.39c0.09,0.13,0.1,0.27,0.17,0.39c-0.15-0.25-0.36-0.43-0.6-0.61c0.14,0.32,0.65,0.79,0.64,1.11
			c-0.13-0.15-0.27-0.34-0.5-0.22c0.12,0.27,0.36,0.53,0.47,0.82l-0.26-0.05l0.3,0.47c0.08,0.12,0.12,0.23,0.14,0.37
			c0.02,0.16,0.02,0.34,0.08,0.49c0.07,0.17,0.19,0.21,0.32,0.31c0.32,0.27,0.61,0.6,0.92,0.88c-0.28-0.19-0.55-0.37-0.87-0.5
			c0.06,0.6,0.86,0.7,0.79,1.34c-0.02,0.21-0.01,0.35,0.08,0.53c0.1,0.2,0.22,0.41,0.33,0.6c0.32,0.5,0.73,0.96,1.01,1.49
			c0.17,0.32,0.34,0.66,0.48,1c0.14,0.32,0.22,1.27,0.72,1.33c0.39,0.04,0.39-0.7,0.39-0.97c-0.01-0.46-0.07-0.92-0.13-1.38
			c-0.03-0.2-0.06-0.4-0.09-0.6c-0.03-0.18,0.02-0.34-0.01-0.52c-0.02-0.1-0.04-0.2-0.03-0.3c0.03-0.35,0.1-0.66,0.09-1.02
			c0-0.13,0.08-1.02-0.16-0.92c-0.04-0.08-0.05-0.2-0.16-0.21c0.01-0.13,0.04-0.27,0.06-0.39l0.02-0.32l-0.27,0.22
			c-0.01-0.4-0.01-0.81,0-1.21l-0.22,0.14c-0.05-0.26-0.14-0.5-0.21-0.76c-0.08-0.33-0.02-0.64-0.06-0.96
			c-0.06,0.16-0.04,0.39-0.25,0.43c-0.22-0.35,0.04-1.73-0.68-1.11c-0.06-0.14-0.06-0.4-0.15-0.51c-0.09-0.11-0.21,0.03-0.3-0.01
			c-0.02-0.18-0.05-0.36-0.04-0.53c0-0.22-0.07-0.24-0.24-0.36c-0.1-0.08-0.27-0.17-0.33-0.29l-0.01-0.24l-0.08-0.18l-0.12-0.22
			L57,223.61c-0.1-0.11-0.06-0.3-0.18-0.41c-0.13-0.13-0.16,0-0.3-0.01c-0.14,0-0.24-0.16-0.26-0.27
			C56.24,222.83,56.15,222.49,56.04,222.47z"/>
		<path style="fill:#231F20;" d="M59.45,287.1c8.5-28.41,16.77-37.39,19.89-40.78c0.57-0.62,0.95-1.04,1.14-1.36l-0.43-0.24
			c-0.15,0.27-0.54,0.69-1.07,1.26c-3.14,3.41-11.47,12.46-20,40.97L59.45,287.1z"/>
		<path style="fill:#231F20;" d="M89.6,237.83l0.04,0.09c0,0.17-0.26,0.38-0.35,0.5c-0.14,0.17-0.29,0.4-0.33,0.62
			c0.17-0.21,0.48-0.34,0.74-0.2c-0.1,0.33-0.42,0.57-0.67,0.77c-0.26,0.22-0.56,0.44-0.77,0.71c0.06,0.12-0.11,0.37-0.18,0.45
			c-0.1,0.11-0.26,0.15-0.4,0.21c-0.14,0.06-0.23,0.17-0.36,0.23c0.26-0.12,0.54-0.16,0.83-0.18c-0.29,0.19-0.97,0.31-1.14,0.58
			c0.2-0.06,0.41-0.13,0.53,0.09c-0.24,0.15-0.6,0.24-0.84,0.42l0.24,0.11l-0.5,0.23c-0.13,0.05-0.23,0.13-0.32,0.23
			c-0.11,0.12-0.2,0.28-0.33,0.37c-0.15,0.1-0.27,0.07-0.44,0.09c-0.41,0.05-0.84,0.17-1.25,0.23c0.34-0.01,0.66-0.01,1,0.05
			c-0.38,0.47-1.1,0.12-1.39,0.69c-0.1,0.19-0.18,0.3-0.36,0.4c-0.2,0.11-0.41,0.23-0.61,0.32c-0.54,0.25-1.14,0.4-1.66,0.7
			c-0.31,0.18-0.64,0.37-0.95,0.58c-0.29,0.19-0.88,0.94-1.33,0.72c-0.35-0.18,0.06-0.8,0.21-1.02c0.26-0.38,0.56-0.73,0.86-1.08
			c0.13-0.16,0.27-0.31,0.41-0.46c0.12-0.12,0.17-0.3,0.29-0.43c0.07-0.07,0.14-0.14,0.19-0.23c0.17-0.31,0.28-0.61,0.49-0.9
			c0.08-0.11,0.49-0.9,0.64-0.68c0.08-0.05,0.15-0.14,0.25-0.08c0.06-0.11,0.12-0.25,0.16-0.37l0.16-0.28
			c0.02,0.1,0.09,0.22,0.1,0.33c0.23-0.33,0.45-0.68,0.67-1.02c0.03,0.06,0.09,0.13,0.11,0.24c0.18-0.19,0.39-0.34,0.59-0.52
			c0.25-0.23,0.37-0.53,0.58-0.77c-0.03,0.17-0.17,0.35-0.03,0.49c0.38-0.17,0.91-1.47,1.18-0.56c0.13-0.08,0.27-0.3,0.41-0.34
			c0.14-0.04,0.16,0.14,0.25,0.15c0.12-0.14,0.24-0.27,0.33-0.42c0.11-0.18,0.19-0.16,0.39-0.17c0.13-0.01,0.32,0.01,0.44-0.07
			l0.14-0.2l0.17-0.11c0.08-0.05,0.11-0.11,0.22-0.12l0.19,0.03c0.14-0.04,0.22-0.21,0.38-0.24c0.18-0.04,0.14,0.08,0.25,0.16
			c0.12,0.08,0.28,0,0.37-0.08C89.24,238.03,89.5,237.79,89.6,237.83z"/>
		<path style="fill:#231F20;" d="M56.32,284.89c-0.07-2.52-0.17-4.27-0.99-7.2c-0.35-3.43-8.05-17.94-8.19-17.83
			c0.67-0.33-9.06-13.89-12.71-14.86c-2.49-1.74-4.09-2.43-6.41-3.41c2.04,1.5,3.45,2.44,5.88,4.16
			c3.58,0.99,13.02,14.12,12.44,14.57c0.16-0.08,7.78,14.32,8.11,17.64C55.26,280.82,55.67,282.44,56.32,284.89z"/>
		<path style="fill:#231F20;" d="M64.61,285.45c0.15-2.89,0.09-4.79,0.46-8.18c-0.72-3.93,5.97-21.22,6.82-20.84
			c-0.57-0.36,10.22-15.41,13.16-17.76c2.43-2.35,3.87-3.58,6.39-4.99c-2.74,0.86-4.54,1.95-7.03,4.35
			c-3.01,2.38-13.88,17.59-13.32,17.97c-0.84-0.43-7.68,17.17-6.93,21.2C63.79,280.64,64.18,282.62,64.61,285.45z"/>
		<path style="fill:#231F20;" d="M64.77,283.11c0.47-1.58,0.74-2.64,0.97-4.54c0-2.15,3.38-11.94,3.62-11.85
			c-0.19-0.1,5.05-9.06,6.53-10.59c1.18-1.51,1.74-2.45,2.52-3.9c-1.23,1.07-2.05,1.83-3.25,3.35c-1.51,1.52-6.82,10.64-6.63,10.75
			c-0.25-0.09-3.72,9.9-3.7,12.09C64.61,280.36,64.66,281.48,64.77,283.11z"/>
		<path style="fill:#231F20;" d="M62.24,288.63c0.31-1.36,0.37-2.23,0.48-3.79c-0.24-1.78,2.35-9.93,2.54-9.86
			c-0.14-0.07,3.77-7.69,4.92-9.01c0.89-1.3,1.31-2.11,1.85-3.37c-1.01,0.91-1.69,1.54-2.61,2.86c-1.18,1.33-5.14,9.1-5,9.17
			c-0.19-0.07-2.86,8.29-2.61,10.14C61.7,286.38,61.96,287.32,62.24,288.63z"/>
		<path style="fill:#231F20;" d="M65.61,285.12c0.38-1.43,0.32-2.33,0.66-3.92c-0.21-1.93,4.15-9.83,4.3-9.74
			c-0.09-0.06,5.28-7.32,6.61-8.58c1.08-1.27,1.61-2.07,2.31-3.32c-1.14,0.86-1.91,1.45-3.01,2.72c-1.34,1.25-6.78,8.61-6.69,8.67
			c-0.14-0.1-4.63,7.98-4.43,10.08C65.03,282.72,65.41,283.77,65.61,285.12z"/>
		<path style="fill:#231F20;" d="M65.33,286.48c0.49-1.26,0.44-2.06,0.93-3.42c-0.05-1.73,4.76-8.26,4.85-8.18
			c-0.06-0.05,5.4-6.01,6.63-7.1c1.05-1.07,1.53-1.81,2.19-2.9c-1.09,0.7-1.78,1.2-2.84,2.26c-1.22,1.06-6.74,7.1-6.68,7.16
			c-0.08-0.09-5.03,6.57-5.02,8.5C64.86,284.26,65.22,285.28,65.33,286.48z"/>
		<path style="fill:#231F20;" d="M64.92,286.65c-2.19-0.7-1.08-2.67-0.41-4.73c0.11-3.05,9.35-12.75,9.69-12.39
			c-0.31-0.42,11.05-7.52,13.95-7.39c2.34-0.75,3.71-0.7,5.77-1.22c-2.04-0.06-3.58-0.42-5.99,0.33
			c-3.04-0.13-14.64,7.14-14.31,7.57c-0.32-0.4-9.83,9.57-9.96,12.76C62.81,283.53,62.34,286.63,64.92,286.65z"/>
		<path style="fill:#231F20;" d="M61.53,287.4c0.01-1.71,0.02-2.8,0.26-4.73c-0.62-2.48,5.58-11.35,5.99-11.03
			c-0.22-0.23,8.05-7.16,10.03-8.15c1.65-1.12,2.53-1.86,3.78-3.01c-1.57,0.66-2.62,1.13-4.3,2.25c-1.98,0.97-10.39,8.03-10.18,8.27
			c-0.39-0.37-6.86,8.83-6.23,11.54C60.64,284.62,60.97,285.81,61.53,287.4z"/>
		<path style="fill:#231F20;" d="M53.6,281.57c0.59-1.71,0.93-2.96,0.85-5.15c0.55-2.54-3.26-13.74-3.58-13.6
			c0.23-0.12-5.44-10.39-7.1-12.11c-1.27-1.74-2.18-2.6-3.55-3.79c0.92,1.57,1.56,2.6,2.81,4.33c1.62,1.71,7.24,11.83,7.01,11.95
			c0.32-0.12,4.03,10.85,3.5,13.26C53.63,278.57,53.62,279.75,53.6,281.57z"/>
		<path style="fill:#231F20;" d="M55.08,285.79c-0.68-1.93-0.07-3.23-0.24-5.68c0.23-2.78-3.71-15.26-4.02-15.15
			c0.2-0.1-5.39-11.89-6.88-14.04c-1.17-2.1-2.03-3.17-3.28-4.76c0.75,1.88,1.33,3.12,2.48,5.21c1.47,2.16,7.03,13.84,6.83,13.93
			c0.31-0.12,4.18,12.26,3.96,14.87C54.1,282.44,53.83,284.09,55.08,285.79z"/>
		<path style="fill:#231F20;" d="M56.06,285.86c-0.02-1.89-0.07-3.19-0.43-5.41c-0.18-2.45-2.95-14.38-2.93-14.39
			c-0.01,0-3.17-11.83-4.09-14.1c-0.7-2.14-1.25-3.31-2.1-5.01c0.3,1.88,0.54,3.15,1.23,5.29c0.91,2.27,4.07,14.04,4.08,14.04
			c-0.01,0,2.72,11.88,2.92,14.32C55.1,282.81,55.46,284.04,56.06,285.86z"/>
		<path style="fill:#231F20;" d="M54.63,283.8c1.44-1.79,1-3.67,0.94-6.14c0.13-2.88-1.77-16.99-2.08-16.95
			c0.27-0.04-3.3-13.9-4.81-16.38c-1-2.43-1.7-3.76-2.79-5.66c0.56,2.15,0.96,3.58,1.94,5.99c1.49,2.46,5.04,16.18,4.77,16.23
			c0.31-0.04,2.18,13.95,2.07,16.81C54.73,280.31,55.5,281.81,54.63,283.8z"/>
		<path style="fill:#231F20;" d="M65.44,284.72c0.54-1.8,0.9-3.05,1.17-5.28c0.59-2.42,0.21-14.64-0.03-14.63
			c0.25-0.05-2.16-12.03-3.34-14.24c-0.83-2.09-1.49-3.21-2.46-4.82c0.44,1.85,0.79,3.06,1.59,5.13c1.15,2.19,3.53,13.99,3.29,14.04
			c0.24-0.01,0.6,12.03,0.02,14.43C65.45,281.56,65.4,282.82,65.44,284.72z"/>
		<path style="fill:#231F20;" d="M54.94,285c-0.03-1.55-0.15-2.55-0.46-4.3c-0.56-1.88-0.96-11.56-0.84-11.57
			c-0.09,0,0.42-9.7,0.78-11.62c0.21-1.78,0.2-2.8,0.1-4.33c-0.48,1.45-0.79,2.44-1.01,4.23c-0.37,1.93-0.88,11.71-0.79,11.71
			c-0.12,0,0.26,9.81,0.85,11.74C53.91,282.64,54.34,283.61,54.94,285z"/>
		<path style="fill:#231F20;" d="M55.12,285.21c-0.86-2.19,0.05-3.65,0.37-6.35c0.81-3,0.35-17.9,0.05-17.89
			c0.29-0.04-2.22-14.77-3.52-17.52c-0.76-2.64-1.53-4.04-2.52-6.11c0.44,2.27,0.9,3.75,1.64,6.37c1.28,2.73,3.77,17.31,3.49,17.35
			c0.3-0.03,0.74,14.8-0.04,17.66C54.28,281.31,53.68,283.23,55.12,285.21z"/>
		<path style="fill:#231F20;" d="M53.05,283.89c-1.15-1.71-1.01-3.13-1.14-5.5c-0.32-2.7,0.74-15.76,1.16-15.73
			c-0.33-0.08,3.54-12.68,5.15-14.88c1.01-2.21,1.63-3.44,2.32-5.39c-1.2,1.67-2.11,2.76-3.14,5c-1.63,2.21-5.55,15-5.22,15.09
			c-0.43-0.06-1.52,13.29-1.18,15.92C51.11,280.81,51.41,282.56,53.05,283.89z"/>
		<path style="fill:#231F20;" d="M62.86,282.19c-0.75-2.39-0.16-4.07,0.16-7.01c-0.06-3.34,3.6-19.04,4-18.95
			c-0.32-0.13,6.18-14.94,8.43-17.4c1.54-2.55,2.51-3.93,3.68-6.18c-1.64,1.89-2.88,3.12-4.45,5.69c-2.29,2.47-8.85,17.46-8.53,17.6
			c-0.41-0.12-4.12,15.83-4.04,19.12C61.8,277.98,61.54,279.98,62.86,282.19z"/>
		<path style="fill:#231F20;" d="M54.77,284.59c0.43-2.31,0.69-3.88,0.85-6.67c0.3-3.02,0.47-18.18,0.37-18.18
			c0.13,0-0.66-15.16-1.3-18.15c-0.4-2.77-0.85-4.31-1.5-6.56c0.07,2.36,0.21,3.93,0.59,6.68c0.62,2.97,1.42,18.04,1.29,18.05
			c0.1,0-0.08,15.1-0.37,18.12C54.57,280.66,54.62,282.25,54.77,284.59z"/>
		<path style="fill:#231F20;" d="M56.8,288.25c0.43-2.75,0.74-4.62,0.86-7.95c0.32-3.6,0.28-21.62,0.21-21.62
			c0.09,0-0.66-18.03-1.36-21.6c-0.37-3.31-0.92-5.15-1.6-7.84c0.1,2.8,0.33,4.65,0.69,7.94c0.67,3.54,1.44,21.51,1.35,21.51
			c0.08,0,0.1,17.98-0.21,21.57C56.63,283.58,56.65,285.46,56.8,288.25z"/>
		<path style="fill:#231F20;" d="M54.56,287.72c-0.16-2.07-0.61-3.46-1.6-5.71c-0.78-2.67-8.55-13.6-8.95-13.28
			c0.28-0.29-9.67-9.27-12.14-10.43c-2.02-1.4-3.31-1.98-5.17-2.86c1.55,1.38,2.66,2.21,4.65,3.62c2.45,1.17,12.26,10.02,11.98,10.3
			c0.39-0.31,8.03,10.45,8.8,13.05C53.12,284.62,53.83,285.79,54.56,287.72z"/>
		<path style="fill:#231F20;" d="M54.09,285.92c-0.2-1.73-0.31-2.97-0.97-4.98c-0.32-2.44-6.79-11.94-7.05-11.75
			c0.18-0.19-8.14-8.06-10.3-9.03c-1.77-1.14-2.9-1.6-4.53-2.26c1.34,1.18,2.28,1.89,4.01,3.03c2.12,0.97,10.3,8.68,10.11,8.87
			c0.26-0.18,6.56,9.11,6.89,11.47C52.92,283.21,53.31,284.31,54.09,285.92z"/>
		<path style="fill:#231F20;" d="M54.14,288.09c-0.39-1.68-0.57-2.79-1.33-4.72c0.12-2.95-8.88-10.08-9.31-9.35
			c0.18-0.62-10.74-3.09-12.98-2.75c-2.03-0.15-3.19,0-4.89,0.19c1.67,0.39,2.82,0.56,4.83,0.72c2.28-0.3,12.88,2.09,12.66,2.67
			c0.43-0.69,8.99,6.12,8.85,8.87C52.71,285.56,53.22,286.64,54.14,288.09z"/>
		<path style="fill:#231F20;" d="M53.59,284.71c0.38-1.35,0.6-2.27,0.72-3.91c0.59-2.12-3.07-10.47-3.44-10.27
			c0.19-0.14-5.17-7.36-6.44-8.61c-1.06-1.26-1.77-1.87-2.88-2.74c0.65,1.24,1.13,2.07,2.17,3.33c1.27,1.28,6.55,8.38,6.36,8.5
			c0.37-0.2,3.86,7.97,3.3,9.74C53.29,282.38,53.39,283.32,53.59,284.71z"/>
		<path style="fill:#231F20;" d="M65.33,286.48c0.49-1.57,0.94-2.45,1.99-3.99c0.77-2.02,9.15-8.16,9.35-7.77
			c-0.28-0.74,9.7-3.39,11.66-1.63c1.8,0.49,2.72,0.98,4.29,1.48c-1.25-0.99-2.11-1.83-4.04-2.36c-2.14-1.88-12.71,0.95-12.35,1.7
			c-0.24-0.37-8.8,5.85-9.67,8.06C65.44,283.6,65.21,284.88,65.33,286.48z"/>
		<path style="fill:#231F20;" d="M64.95,289.2c-0.11-1.44,0.46-2.13,1.45-3.33c1.13-1.41,8.16-6.97,8.38-6.58
			c0,0.06,1.96-1.17,4.34-1.25c2.38-0.1,4.62,1.51,5.29,2.05c1.29,0.99,2.1,1.53,3.37,2.19c-0.89-1.11-1.47-1.87-2.81-2.92
			c-0.67-0.54-3.1-2.35-5.88-2.24c-2.68,0.1-4.72,1.42-4.72,1.35c-0.3-0.37-7.5,5.31-8.65,6.77
			C64.58,286.54,64.2,287.95,64.95,289.2z"/>
		<path style="fill:#231F20;" d="M64.93,289.4c-0.11-0.86-0.21-1.31,0.05-2c-0.21-1.17,4.72-3.1,4.73-2.92
			c-0.04-0.13,4.94-1.13,5.97-1.06c0.93-0.05,1.42-0.24,2.24-0.41c-0.75-0.41-1.34-0.54-2.3-0.5c-1.07-0.08-6.19,0.96-6.17,1.09
			c0.04-0.14-5.2,1.65-5.34,3.5C63.74,288.24,64.35,288.9,64.93,289.4z"/>
		<path style="fill:#231F20;" d="M64.39,288.77c0.23-1.36,0.38-2.21,0.73-3.71c-0.24-1.95,5.03-8.73,5.32-8.47
			c-0.18-0.21,6.68-5.37,8.36-5.94c1.39-0.76,2.13-1.27,3.24-2.09c-1.34,0.28-2.25,0.52-3.67,1.28c-1.71,0.57-8.73,5.86-8.56,6.09
			c-0.28-0.29-5.81,6.77-5.58,8.92C63.86,286.48,64.03,287.46,64.39,288.77z"/>
		<path style="fill:#231F20;" d="M63.81,285.59c-0.78-2.35-0.51-4,0.12-6.74c-0.03-3.41,9.13-16.4,9.64-15.95
			c-0.54-0.58,11.89-10.32,15.18-10.95c2.6-1.3,4.16-1.79,6.37-2.93c-2.37,0.57-4.1,0.78-6.75,2.09
			c-3.36,0.63-16.01,10.56-15.47,11.16c-0.52-0.44-9.85,12.71-9.86,16.34C62.37,281.49,62.48,283.5,63.81,285.59z"/>
		<path style="fill:#231F20;" d="M51.97,285.39c-0.81-2.23-1.76-3.72-3.81-5.68c-1.1-1.04-4.29-4.44-7.84-6.89
			c-3.51-2.53-7.34-3.59-7.27-3.72c0.12-0.61-15.18-3.31-18.31-2.81c-2.84-0.12-4.45,0.04-6.83,0.25c2.36,0.37,3.97,0.53,6.79,0.66
			c3.16-0.47,18.19,2.17,18.04,2.75c-0.07,0.12,3.66,1.17,7.06,3.62c3.41,2.34,6.6,5.73,7.72,6.78
			C49.56,282.31,50.61,283.4,51.97,285.39z"/>
		<path style="fill:#231F20;" d="M54.23,283.97c-0.28-1.95-0.58-3.34-1.83-5.39c-0.68-3.04-11.6-10.22-11.86-9.69
			c0.13-0.37-12.03-4.48-14.64-4.58c-2.31-0.45-3.67-0.49-5.65-0.47c1.9,0.57,3.18,0.91,5.47,1.37c2.59,0.12,14.57,4.15,14.43,4.51
			c0.29-0.5,10.86,6.49,11.47,9.35C52.82,281.01,53.38,282.17,54.23,283.97z"/>
		<path style="fill:#231F20;" d="M64.5,289.96c-0.57-2.05-0.36-3.44,0.19-5.81c-0.36-3.19,8.5-13.58,8.96-13.12
			c-0.31-0.41,11.13-7.72,13.89-8.33c2.28-1.05,3.59-1.58,5.46-2.63c-2.06,0.49-3.51,0.74-5.82,1.79
			c-2.78,0.59-14.43,8.05-14.13,8.48c-0.45-0.49-9.6,10.2-9.25,13.59C63.22,286.42,63.37,288.15,64.5,289.96z"/>
		<path style="fill:#231F20;" d="M61.16,281.29c-0.13-2.14,0.29-3.49,1.09-5.82c0.59-2.7,7.84-14.38,8.19-14.11
			c-0.31-0.25,9.02-10.27,11.32-11.84c1.88-1.69,2.93-2.66,4.38-4.25c-1.81,1.12-3.08,1.86-4.98,3.55
			c-2.32,1.56-11.75,11.71-11.45,11.97c-0.37-0.24-7.7,11.51-8.33,14.35C60.55,277.59,60.44,279.27,61.16,281.29z"/>
		<path style="fill:#231F20;" d="M64.43,288.19c0.95-1.96,1.39-3.49,1.48-6.1c0.14-2.79,0.23-16.92,0.02-16.9
			c0.12-0.01-0.81-14.08-1.32-16.86c-0.32-2.58-0.66-4.02-1.21-6.13c-0.03,2.19-0.01,3.67,0.3,6.24c0.49,2.77,1.44,16.78,1.32,16.79
			c0.21,0,0.11,14.01-0.02,16.84C64.91,284.63,64.82,286.01,64.43,288.19z"/>
		<path style="fill:#231F20;" d="M55.2,285.27c0.22-2.68,0.43-4.47,0.42-7.69c0.55-3.63-3.22-20.65-3.57-20.58
			c0.71-0.23-6.5-16.34-9.86-18.34c-2.06-2.51-3.78-3.38-5.87-5.02c1.72,2.1,3.18,3.17,5.18,5.63c3.27,1.95,10.35,17.74,9.67,18
			c0.33-0.13,4.07,16.86,3.53,20.32C54.73,280.77,54.83,282.62,55.2,285.27z"/>
		<path style="fill:#231F20;" d="M55.38,287.19c0.09-2.09-0.14-3.64-1.34-5.88c-1.16-2.46-8.33-13.99-8.66-13.79
			c0.32-0.26-8.98-10.27-11.54-11.49c-1.97-1.56-3.35-2.08-5.22-3.01c1.56,1.43,2.74,2.19,4.67,3.74
			c2.5,1.21,11.67,11.05,11.36,11.32c0.31-0.22,7.41,11.22,8.58,13.66C54.4,283.91,54.87,285.12,55.38,287.19z"/>
		<path style="fill:#231F20;" d="M55.23,289.53c0.17-2.2,0.15-3.8-0.67-6.35c-0.35-1.39-1.91-5.46-4.02-8.87
			c-2.12-3.42-4.92-5.79-4.85-5.85c0.3-0.42-11.52-8.66-14.05-9.94c-2.24-1.39-3.51-2.15-5.51-3.14c1.66,1.46,2.78,2.5,5.02,3.91
			c2.59,1.34,14.24,9.45,13.91,9.84c-0.07,0.06,2.66,2.37,4.7,5.68c2.04,3.27,3.57,7.28,3.93,8.64
			C54.49,285.94,54.81,287.34,55.23,289.53z"/>
		<path style="fill:#231F20;" d="M55.51,285.23c-0.82-1.92-1.15-3.2-2-5.52c-0.59-2.77-7.6-14.12-7.71-14.08
			c0.33-0.22-8.35-10.61-11.14-11.54c-2-1.48-3.46-1.81-5.34-2.6c1.63,1.31,2.88,1.9,4.83,3.35c2.7,0.91,11.21,11.07,10.91,11.3
			c0.07-0.1,7.08,11.3,7.61,13.89C53.5,282.31,54.2,283.64,55.51,285.23z"/>
		<path style="fill:#231F20;" d="M55.88,288.59c-0.11-2.02-0.19-3.4-0.68-5.75c-0.27-2.62-4.19-15.11-4.39-15.05
			c0.27-0.12-5.63-11.86-7.64-13.72c-1.55-1.86-2.61-2.77-4.13-4.09c1.1,1.72,1.89,2.81,3.4,4.64c1.96,1.83,7.78,13.37,7.52,13.5
			c0.19-0.07,4.05,12.3,4.34,14.91C54.8,285.37,55.2,286.68,55.88,288.59z"/>
		<path style="fill:#231F20;" d="M53.82,287.08c-0.31-2.06-0.74-3.45-1.68-5.71c-0.95-2.53-6.42-14.72-5.74-14.89
			c-0.92,0.11-1.05-13.15,0.12-15.75c0.41-2.42,0.6-3.81,0.72-5.89c-0.69,1.96-1.2,3.29-1.62,5.73c-1.2,2.55-1.05,16.22-0.11,16.11
			c-0.66,0.28,4.85,12.58,5.79,15.03C52.25,284.01,52.95,285.19,53.82,287.08z"/>
		<path style="fill:#231F20;" d="M63.75,286.57c0.44-2.37,0.71-3.94,1.07-6.76c0.99-3.06,0.02-18.64-0.23-18.59
			c0.16-0.03-2.07-15.35-2.9-18.34c-0.58-2.79-1.07-4.34-1.83-6.61c0.2,2.39,0.37,4,0.93,6.79c0.81,2.99,3.04,18.24,2.88,18.26
			c0.25-0.01,1.2,15.36,0.24,18.38C63.56,282.53,63.6,284.18,63.75,286.57z"/>
		<path style="fill:#231F20;" d="M67.74,285.66c0.53-2.29,0.86-3.86,1.16-6.66c0.48-3.06,0.21-18.29,0.14-18.28
			c0.2,0.01-0.58-15.27-1.81-18.2c-0.59-2.78-1.43-4.21-2.45-6.32c0.48,2.33,0.99,3.8,1.56,6.53c1.2,2.84,1.99,18,1.79,18.01
			c0.07,0.02,0.33,15.2-0.14,18.18C67.7,281.7,67.69,283.29,67.74,285.66z"/>
		<path style="fill:#231F20;" d="M53.69,289.04c-0.15-2.49-0.23-4.09-0.24-7.02c0.22-3.15-0.21-19.14-0.46-19.13
			c0.21-0.01-1.55-15.92-2.57-18.98c-0.6-2.88-1.1-4.49-1.88-6.83c0.21,2.47,0.39,4.13,0.98,7c1.01,3.04,2.76,18.86,2.56,18.87
			c0.25,0,0.66,15.85,0.46,19.08C52.56,284.98,52.97,286.68,53.69,289.04z"/>
		<path style="fill:#231F20;" d="M55.01,289.91c-0.32-2.57-0.42-4.28-0.92-7.33c-0.18-3.49-5.88-19.16-6.11-19.11
			c0.65-0.37-8.56-14.52-11.67-16.26c-2.17-2.2-3.55-3.25-5.59-4.85c1.62,2.01,2.8,3.31,4.94,5.49c3.1,1.79,12.11,15.62,11.48,15.99
			c0.2-0.13,5.89,15.59,6.04,18.9C53.69,285.75,54.12,287.49,55.01,289.91z"/>
		<path style="fill:#231F20;" d="M61.86,288.41c-0.76-1.87-0.05-3.18-0.12-5.59c-0.67-2.67,2.81-14.91,3.51-14.67
			c-0.4-0.23,6.67-10.86,8.68-12.58c1.51-1.82,2.32-2.9,3.4-4.59c-1.52,1.3-2.56,2.18-4.1,4c-2.02,1.68-9.21,12.51-8.8,12.76
			c-0.7-0.27-4.31,12.32-3.6,15.09C60.9,285.07,60.53,286.75,61.86,288.41z"/>
		<path style="fill:#231F20;" d="M60.12,229.11c-0.67,2.74-0.93,4.64-1.18,7.97c-0.32,3.62-1.12,21.76-1.08,21.76
			c-0.04,0-0.59,18.15-0.5,21.78c0.04,3.35,0.16,5.27,0.71,8.03c0.03-2.8,0.23-4.69,0.2-8.03c-0.08-3.62,0.46-21.75,0.5-21.75
			c-0.04,0,0.78-18.13,1.08-21.73C60.09,233.81,60.03,231.91,60.12,229.11z"/>
		<path style="fill:#231F20;" d="M58.02,289.47c0.23-2.63,0.16-4.5-0.36-7.6c-0.92-3.27-1.38-20.44-1.17-20.41
			c-0.61-0.08,1.12-17.01,3.29-19.99c1.03-2.96,1.68-4.63,2.42-7.18c-1.28,2.32-2.23,3.87-3.28,6.87
			c-2.22,3.03-3.98,20.29-3.35,20.29c-0.2,0.02,0.23,17.15,1.18,20.57C57.28,285.13,57.66,286.83,58.02,289.47z"/>
		<path style="fill:#231F20;" d="M58.65,287.24c0.35-2.38,0.41-4.06,0.12-6.91c-0.92-3.06,0.18-18.5,0.55-18.45
			c-0.35-0.07,3.27-15.09,4.76-17.87c0.94-2.69,1.51-4.2,2.12-6.54c-1.15,2.11-2.03,3.51-2.98,6.22
			c-1.52,2.79-5.17,17.98-4.81,18.05c-0.37-0.04-1.5,15.56-0.55,18.68C58.16,283.28,58.42,284.83,58.65,287.24z"/>
		<path style="fill:#231F20;" d="M59.41,285.67c-0.5-2.75-0.31-4.63-0.34-7.94c-0.9-3.75,3.21-21.27,3.73-21.15
			c-0.31-0.11,6.74-16.73,8.54-19.9c1.44-3.01,2.11-4.79,3.05-7.43c-1.47,2.39-2.42,4.03-3.87,7.03c-1.8,3.14-8.89,19.87-8.58,19.99
			c-0.51-0.17-4.7,17.68-3.77,21.44C58.18,281.05,58.33,283.06,59.41,285.67z"/>
		<path style="fill:#231F20;" d="M59.57,288.11c0.3-2.11,0.42-3.53,0.46-6.04c-0.14-2.74,1.37-16.27,1.49-16.26
			c-0.09-0.01,2.34-13.43,3.04-16.07c0.54-2.46,0.72-3.88,0.9-6c-0.75,1.99-1.24,3.34-1.79,5.8c-0.72,2.64-3.14,16.12-3.06,16.13
			c-0.12-0.02-1.66,13.61-1.5,16.37C59.08,284.58,59.28,286.01,59.57,288.11z"/>
		<path style="fill:#231F20;" d="M60.48,288.98c0.48-2.74,0.58-4.68,0.45-7.97c-0.91-3.58,2.99-21.22,3.08-21.16
			c-0.09-0.02,4.63-17.35,5.47-20.86c0.83-3.21,1.01-5.11,1.36-7.87c-0.92,2.64-1.4,4.44-2.25,7.65
			c-0.85,3.47-5.57,20.84-5.47,20.87c-0.09-0.04-4.03,17.62-3.11,21.4C60.16,284.37,60.38,286.19,60.48,288.98z"/>
		<path style="fill:#231F20;" d="M59.6,290.06c0.27-2.39,1.01-4.59,1.74-7.81c0.06-3.85,7.38-20.94,7.78-20.75
			c-0.36-0.19,9.21-16.13,11.48-19.1c1.89-2.86,2.87-4.55,4.23-7.09c-1.85,2.21-3.09,3.72-5,6.59
			c-2.29,2.95-11.89,18.99-11.54,19.19c-0.4-0.2-7.8,17.05-7.86,20.97C59.71,285.33,59.3,287.57,59.6,290.06z"/>
		<path style="fill:#231F20;" d="M62.73,286.87c0.92-2.85,1.56-4.72,3.07-7.89c0.59-4.26,14.53-17.57,15.03-16.99
			c-0.32-0.49,16.35-10.05,20.22-10.86c3.3-1.29,5.16-2.04,7.92-3.18c-2.92,0.58-4.92,1.04-8.25,2.32
			c-3.91,0.8-20.74,10.47-20.43,10.97c-0.49-0.61-14.68,12.91-15.32,17.33C63.44,281.84,63.08,283.91,62.73,286.87z"/>
		<path style="fill:#231F20;" d="M59.98,289.28c0.48-2.26,1.37-3.5,2.99-5.61c1.25-3.02,13.8-10.79,14.13-10.19
			c-0.17-0.49,14.08-4.33,17.14-3.95c2.7-0.31,4.24-0.33,6.53-0.72c-2.28-0.2-3.86-0.49-6.6-0.2c-3.09-0.41-17.58,3.51-17.42,4.01
			c-0.32-0.61-13.18,7.32-14.48,10.46C60.56,285.27,59.86,286.96,59.98,289.28z"/>
		<path style="fill:#231F20;" d="M52.15,285.02c-0.12-1.55-0.79-2.59-2.12-3.86c-1.25-1.85-10.35-5.91-10.48-5.61
			c0,0.05-2.42-0.79-5.26-0.62c-2.9,0.27-5.44,2.22-6.12,2.93c-1.45,1.19-1.78,2.31-2.55,3.6c1.24-0.95,1.79-1.83,3.16-2.92
			c0.65-0.67,2.97-2.45,5.59-2.69c2.59-0.16,4.92,0.63,4.91,0.58c0.1-0.31,8.99,3.69,10.13,5.41
			C50.68,283.04,51.46,283.64,52.15,285.02z"/>
	</g>
	<rect style="fill-rule:evenodd;clip-rule:evenodd;fill:none;" width="369.3" height="295.44"/>
</g>
<g id="Layer_2">
</g>
</svg>
