<?xml version="1.0" encoding="utf-8"?>
<!-- Generator: Adobe Illustrator 24.0.0, SVG Export Plug-In . SVG Version: 6.00 Build 0)  -->
<svg version="1.1" id="Layer_4" xmlns="http://www.w3.org/2000/svg" xmlns:xlink="http://www.w3.org/1999/xlink" x="0px" y="0px"
	 viewBox="0 0 369.3 295.44" style="enable-background:new 0 0 369.3 295.44;" xml:space="preserve">
<linearGradient id="SVGID_1_" gradientUnits="userSpaceOnUse" x1="-333.1835" y1="85.6397" x2="-332.1835" y2="85.6397" gradientTransform="matrix(0 -112.8731 112.8731 0 -9978.418 -37594.9961)">
	<stop  offset="0" style="stop-color:#FDC776"/>
	<stop  offset="0.0346" style="stop-color:#FCBC75"/>
	<stop  offset="0.1432" style="stop-color:#F8A074"/>
	<stop  offset="0.2376" style="stop-color:#F68E73"/>
	<stop  offset="0.3067" style="stop-color:#F58873"/>
	<stop  offset="0.5484" style="stop-color:#B57296"/>
	<stop  offset="0.7117" style="stop-color:#8E65AB"/>
	<stop  offset="1" style="stop-color:#6589C6"/>
</linearGradient>
<path style="fill:url(#SVGID_1_);" d="M-342.93-101.45h-101.48l57.53,46.27l48.59-43.07L-342.93-101.45 M-228.34-101.45h-56.37
	l-10.31,6.95l29.12,26.33L-228.34-101.45 M-127.35-101.45h-61.13l-65.41,44.13l46.32,41.88l-3.72,4.73l-55.24-38.08l-51.03,34.43
	l-3.67-4.76l42.76-37.9l-35.66-24.58l-57.42,38.75l45.25,36.4l-3.44,4.93l-54.25-32.94l-72.15,48.68l-3.67-4.76l60.23-53.38
	l-94.72-57.53h-2.35v295.44h369.3V-101.45"/>
<rect y="115.67" style="fill:#231F20;" width="369.3" height="179.77"/>
<linearGradient id="SVGID_2_" gradientUnits="userSpaceOnUse" x1="184.65" y1="115.67" x2="184.65" y2="0">
	<stop  offset="0" style="stop-color:#FDC776"/>
	<stop  offset="0.0346" style="stop-color:#FCBC75"/>
	<stop  offset="0.1432" style="stop-color:#F8A074"/>
	<stop  offset="0.2376" style="stop-color:#F68E73"/>
	<stop  offset="0.3067" style="stop-color:#F58873"/>
	<stop  offset="0.5484" style="stop-color:#B57296"/>
	<stop  offset="0.7117" style="stop-color:#8E65AB"/>
	<stop  offset="1" style="stop-color:#6589C6"/>
</linearGradient>
<rect style="fill:url(#SVGID_2_);" width="369.3" height="115.67"/>
</svg>
