<?xml version="1.0" encoding="utf-8"?>
<!-- Generator: Adobe Illustrator 24.0.0, SVG Export Plug-In . SVG Version: 6.00 Build 0)  -->
<svg version="1.1" id="Layer_1" xmlns="http://www.w3.org/2000/svg" xmlns:xlink="http://www.w3.org/1999/xlink" x="0px" y="0px"
	 viewBox="0 0 369.3 295.44" style="enable-background:new 0 0 369.3 295.44;" xml:space="preserve">
<g id="Layer_4">
	
		<linearGradient id="SVGID_1_" gradientUnits="userSpaceOnUse" x1="-442.6565" y1="458.9536" x2="-441.5414" y2="458.9536" gradientTransform="matrix(13.333 56.667 56.667 -13.333 -19937.8359 31379.623)">
		<stop  offset="0" style="stop-color:#322F3D"/>
		<stop  offset="1" style="stop-color:#231F20"/>
	</linearGradient>
	<path style="fill-rule:evenodd;clip-rule:evenodd;fill:url(#SVGID_1_);" d="M369.3,201c-7.64-3.12-133.84-4.15-141.99-4.09
		c-9.3,0.07-18.67-0.6-27.97-1.09c-7.38-0.39-14.64-1.85-21.97-2.58c-8-0.8-16.4-0.14-24.44-0.09c-11.7,0.08-22.94,1.13-34.58,2.15
		c-5.83,0.51-11.59-0.93-17.45-0.79c-5.69,0.13-11.37-0.02-17.06,0.05c-16.72,0.19-33.25-2.09-49.94-1.46
		c-7.51,0.29-14.51,0.56-21.96,1.91C8.77,195.57,4.25,196.03,0,197v98.44h369.3V201z"/>
</g>
<g id="Layer_2_1_">
</g>
<rect style="fill:none;" width="369.3" height="295.44"/>
</svg>
