<?xml version="1.0" encoding="utf-8"?>
<!-- Generator: Adobe Illustrator 24.0.0, SVG Export Plug-In . SVG Version: 6.00 Build 0)  -->
<svg version="1.1" id="Layer_4" xmlns="http://www.w3.org/2000/svg" xmlns:xlink="http://www.w3.org/1999/xlink" x="0px" y="0px"
	 viewBox="0 0 369.3 295.44" style="enable-background:new 0 0 369.3 295.44;" xml:space="preserve">
<g>
	<path style="fill-rule:evenodd;clip-rule:evenodd;fill:#2E2B4B;" d="M94.71,129.82l0.06-0.06l-0.07-0.19l-0.17-0.02
		c-0.1-0.06-0.05-0.14-0.05-0.23l-0.15,0.04L94,129.12c-0.08-0.09-0.15-0.2,0.06-0.21c0.2-0.01,0.07,0.08,0.16-0.08
		c0.05-0.08,0.11-0.14,0.11-0.23l-0.12-0.01c0.01-0.09-0.04-0.2-0.11-0.25c-0.17,0.13-0.23-0.06-0.19-0.19
		c0.03-0.1,0.35-0.33,0.34-0.38c-0.02-0.14-0.13-0.09-0.2-0.18c-0.09-0.13-0.01-0.13,0.04-0.16c0.08-0.08,0.17-0.03,0.1-0.17
		l-0.16-0.13c-0.25,0.09-0.47,0.04-0.31-0.26l-0.17-0.08c-0.04-0.19-0.54-0.37-0.49-0.11c-0.02-0.1-0.34,0.22-0.43,0.02
		c-0.04-0.1,0.06-0.16,0.14-0.17l0.01-0.15c0.08,0.01,0.22,0,0.15-0.11l-0.24-0.09c0.08-0.15-0.05-0.15-0.15-0.14
		c0.03-0.22-0.41-0.06-0.5-0.11c-0.11-0.05-0.11-0.21-0.03-0.3l-0.24-0.02c-0.08-0.06,0-0.18-0.13-0.23
		c-0.26-0.1-0.18,0.41-0.39,0.21c-0.08,0.06-0.13,0.15-0.24,0.12l-0.07-0.08l-0.14-0.01c-0.11-0.06-0.21-0.17-0.22-0.3
		c-0.1-0.07-0.13,0.05-0.23,0.04l-0.03-0.1c-0.27-0.08-0.16,0.22-0.15,0.32c-0.15,0.04-0.21-0.21-0.37-0.07l-0.06,0.16l-0.15,0.07
		c-0.1,0.07-0.12,0.3-0.23,0.32c-0.1,0.02-0.24-0.17-0.32,0.02c0.01-0.02-0.68,0.04-0.36,0.24l-0.28,0.14
		c-0.07,0.11,0.09,0.18,0.04,0.32c-0.08,0.2-0.43-0.01-0.46,0.22l-0.12,0.13c0.05,0.06,0.14,0.09,0.12,0.19
		c-0.15-0.02-0.26,0.04-0.26,0.22c-0.14-0.01-0.26,0.02-0.21,0.19c0.03,0.1,0.2,0.14,0.09,0.28c-0.08,0.11-0.21-0.01-0.32,0.06
		l-0.12,0.2l-0.2,0.18c-0.09,0.07-0.27,0.16-0.28,0.29c-0.01,0.12,0.22,0.23,0.22,0.22c0,0.1-0.12,0.08-0.12,0.17
		c0,0.23,0.35,0.18,0.47,0.11c0.23,0.13,0.11,0.23,0.08,0.42l0.04,0.25l0.17,0.11c0.01,0.16-0.17,0.15-0.03,0.28
		c0.13,0.13,0.21,0.01,0.34,0.01c0.1,0,0.06,0.08,0.13,0.11c0.1,0.03,0.08-0.04,0.17-0.04c0.14,0,0.16,0.13,0.26,0.2l0.04-0.06
		c0.2,0.13-0.03,0.19,0.01,0.33c0.04,0.17,0.23,0.1,0.32,0.06c0.07,0.17,0.15-0.03,0.22-0.04c0.11-0.02,0.08,0.07,0.18,0.08
		c0.27,0.03,0.19-0.27,0.38-0.34c-0.19,0.3,0.59,0.33,0.56,0.38c0.08-0.12,0.14-0.2,0.31-0.12c0.01,0.2,0.16,0.18,0.3,0.12
		c0.17-0.07,0.18-0.06,0.35-0.02c0.01-0.13,0.13-0.08,0.22-0.07c-0.03-0.23,0.42,0.05,0.51,0.07l0.18,0.04l0.1-0.1l0.18-0.06
		l0.06-0.14c0.11-0.07,0.24,0,0.36,0.02l0.15,0.15l0.03-0.15l0.12-0.01l0.01-0.1c0.15,0,0.16,0.2,0.31,0.21
		c0.14,0.01,0.3-0.14,0.34-0.26c0.05-0.15,0.06-0.09,0.18-0.13c0.09-0.03,0.14-0.07,0.23-0.1c0.19,0.19,0.41-0.07,0.4-0.27l0.15-0.1
		C94.52,129.88,94.63,129.86,94.71,129.82z"/>
	
		<linearGradient id="SVGID_1_" gradientUnits="userSpaceOnUse" x1="-443.2642" y1="459.8922" x2="-442.2642" y2="459.8922" gradientTransform="matrix(1.8137 58.0394 58.0394 -1.8137 -25687.4492 26656.3633)">
		<stop  offset="0" style="stop-color:#8B81B4"/>
		<stop  offset="0.1512" style="stop-color:#847BAD"/>
		<stop  offset="0.3783" style="stop-color:#716A98"/>
		<stop  offset="0.6531" style="stop-color:#514F76"/>
		<stop  offset="0.9627" style="stop-color:#262948"/>
		<stop  offset="1" style="stop-color:#202442"/>
	</linearGradient>
	<path style="fill-rule:evenodd;clip-rule:evenodd;fill:url(#SVGID_1_);" d="M369.3,81.05c-6.27-0.58-15.16,2.72-19.66,3.1
		c-7.26,0.62-15.24-1.44-21.53,2.92c-9.12,6.33-16.47,12.33-27.76,14.72c-11.3,2.39-22.78,0.93-34.2,1.68
		c-12.44,0.82-24.76,3.31-37.16,4.65c-13.54,1.46-27.85,4.21-41.43,4.15c-8.42-0.04-15.91,2.64-23.96,4.56
		c-15.28,3.64-31.68-2.03-46.45,4.63c-3.34,1.51-7.05,3.49-10.75,3.9c-2.39,0.27-4.72,0.59-7.12,0.86c-0.47,0.05-0.94,0.1-1.42,0.15
		c-2.38,0.24-5.1,0.73-7.38,1.44c-2.25,0.7-4.34,1.44-6.27,2.8c-1.81,1.27-3.37,2.75-5.3,3.85c-2.05,1.17-4.32,1.93-6.6,2.56
		c-9.16,2.54-17.8,3.91-25.33,10.09c-3.96,3.24-18.21,12.49-12.3,18.17c4.52,4.33,15.34,4.14,21.07,4.51
		c13.23,0.87,26.38,2.89,39.6,1.52c16.31-1.68,32.37-5.25,48.7-6.85c21.44-2.11,43.36-1.92,64.88-1.08
		c31.9,1.25,64.14,3.81,95.89-0.98c13.58-2.05,30.56-1.9,42.83-8.77c2.97-1.67,5.16-4.31,8.39-5.56c2.21-0.85,4.62-0.9,6.82-1.86
		c2.46-1.07,4.62-2.69,6.45-4.65V81.05H369.3z"/>
	
		<linearGradient id="SVGID_2_" gradientUnits="userSpaceOnUse" x1="-419.6783" y1="471.6663" x2="-418.6783" y2="471.6663" gradientTransform="matrix(0 15.3346 15.3346 0 -7027.5488 6534.4199)">
		<stop  offset="0" style="stop-color:#4F4D75"/>
		<stop  offset="1" style="stop-color:#353A60"/>
	</linearGradient>
	<path style="fill-rule:evenodd;clip-rule:evenodd;fill:url(#SVGID_2_);" d="M318.79,98.67l-15.12,12.6l-21.93,1.26l-8.32,5.29
		l-10.84,0.25l-9.33-4.79h-3.28l-6.01,6.87l-0.8-1.58l-14.12-0.22l-1.45,1.32l-4.09-3.87l-1.26-1.01l-2.27,1.01l-2.19,4.76
		l-12.35-0.71l-9.11,0.26l-2.82-0.28l-0.5-4.79l-1.26-1.01l-1.76,1.51l-1.78,4.9l-13.6-0.36l-19.41,0.25l-21.93,1.26l-0.76-3.02
		l-1.26-0.5l-5.29,4.03l-12.35,1.01l-4.6,2.87l-2.46,0.91l-15,0.25l17.01-7.31l9.8-5.24c0,0,15.16-3.84,18.68-4.34
		c3.53-0.5,11.85,0,15.88,0.76s17.65-1.01,22.94-2.02c5.29-1.01,20.17-6.05,24.7-5.8c4.54,0.25,21.68,0.76,26.47,1.76
		c4.79,1.01,20.42,0.5,25.96-0.25c5.55-0.76,15.88,1.76,22.18,0.5s16.13-4.79,22.18-5.8S321.06,93.88,318.79,98.67z"/>
	
		<linearGradient id="SVGID_3_" gradientUnits="userSpaceOnUse" x1="-436.0017" y1="463.7343" x2="-435.0017" y2="463.7343" gradientTransform="matrix(0 31.0856 31.0856 0 -14309.5996 13650.4336)">
		<stop  offset="0" style="stop-color:#AEABB7"/>
		<stop  offset="1" style="stop-color:#50546E"/>
	</linearGradient>
	<polygon style="fill:url(#SVGID_3_);" points="106.31,127.79 105.39,127.75 105.42,124.51 106.33,124.54 	"/>
	
		<linearGradient id="SVGID_4_" gradientUnits="userSpaceOnUse" x1="-436.0017" y1="463.7306" x2="-435.0017" y2="463.7306" gradientTransform="matrix(0 31.0856 31.0856 0 -14314.4688 13650.5488)">
		<stop  offset="0" style="stop-color:#AEABB7"/>
		<stop  offset="1" style="stop-color:#50546E"/>
	</linearGradient>
	<polygon style="fill:url(#SVGID_4_);" points="104.87,126 96.92,126.21 96.88,125.2 104.83,124.98 	"/>
	
		<linearGradient id="SVGID_5_" gradientUnits="userSpaceOnUse" x1="-436.0017" y1="463.7426" x2="-435.0017" y2="463.7426" gradientTransform="matrix(0 31.0855 31.0855 0 -14314.9346 13650.1611)">
		<stop  offset="0" style="stop-color:#AEABB7"/>
		<stop  offset="1" style="stop-color:#50546E"/>
	</linearGradient>
	<polygon style="fill:url(#SVGID_5_);" points="104.73,122.43 96.78,122.67 96.74,121.66 104.68,121.41 	"/>
	
		<linearGradient id="SVGID_6_" gradientUnits="userSpaceOnUse" x1="-436.0017" y1="463.7505" x2="-435.0017" y2="463.7505" gradientTransform="matrix(0 31.0855 31.0855 0 -14315.3252 13649.9111)">
		<stop  offset="0" style="stop-color:#AEABB7"/>
		<stop  offset="1" style="stop-color:#50546E"/>
	</linearGradient>
	<polygon style="fill:url(#SVGID_6_);" points="104.58,118.69 96.64,118.96 96.6,117.95 104.54,117.67 	"/>
	
		<linearGradient id="SVGID_7_" gradientUnits="userSpaceOnUse" x1="-436.0017" y1="463.7487" x2="-435.0017" y2="463.7487" gradientTransform="matrix(0 31.0856 31.0856 0 -14314.4062 13650.0488)">
		<stop  offset="0" style="stop-color:#AEABB7"/>
		<stop  offset="1" style="stop-color:#50546E"/>
	</linearGradient>
	<polygon style="fill:url(#SVGID_7_);" points="105.49,105.63 97.54,106.03 97.51,105.02 105.45,104.61 	"/>
	
		<linearGradient id="SVGID_8_" gradientUnits="userSpaceOnUse" x1="-436.0017" y1="463.7503" x2="-435.0017" y2="463.7503" gradientTransform="matrix(0 31.0856 31.0856 0 -14314.6152 13649.9863)">
		<stop  offset="0" style="stop-color:#AEABB7"/>
		<stop  offset="1" style="stop-color:#50546E"/>
	</linearGradient>
	<polygon style="fill:url(#SVGID_8_);" points="105.33,101.73 97.39,102.17 97.35,101.16 105.29,100.71 	"/>
	
		<linearGradient id="SVGID_9_" gradientUnits="userSpaceOnUse" x1="-436.0017" y1="463.7463" x2="-435.0017" y2="463.7463" gradientTransform="matrix(0 31.0855 31.0855 0 -14314.6064 13650.0508)">
		<stop  offset="0" style="stop-color:#AEABB7"/>
		<stop  offset="1" style="stop-color:#50546E"/>
	</linearGradient>
	<polygon style="fill:url(#SVGID_9_);" points="105.17,97.58 97.23,98.05 97.19,97.05 105.13,96.56 	"/>
	
		<linearGradient id="SVGID_10_" gradientUnits="userSpaceOnUse" x1="-436.0017" y1="463.7336" x2="-435.0017" y2="463.7336" gradientTransform="matrix(0 31.0856 31.0856 0 -14314.2188 13650.4805)">
		<stop  offset="0" style="stop-color:#AEABB7"/>
		<stop  offset="1" style="stop-color:#50546E"/>
	</linearGradient>
	<polygon style="fill:url(#SVGID_10_);" points="101.06,125.22 100.16,125.15 101.38,97.17 102.28,97.21 	"/>
	
		<linearGradient id="SVGID_11_" gradientUnits="userSpaceOnUse" x1="-436.9831" y1="463.256" x2="-435.9831" y2="463.256" gradientTransform="matrix(0 33.1316 33.1316 0 -15233.0654 14569.4678)">
		<stop  offset="0" style="stop-color:#AEABB7"/>
		<stop  offset="1" style="stop-color:#50546E"/>
	</linearGradient>
	<polygon style="fill:url(#SVGID_11_);" points="115.69,125.84 114.77,125.77 115,120.1 115.92,120.16 	"/>
	
		<linearGradient id="SVGID_12_" gradientUnits="userSpaceOnUse" x1="-436.9831" y1="463.2546" x2="-435.9831" y2="463.2546" gradientTransform="matrix(0 33.1316 33.1316 0 -15229.2002 14569.5205)">
		<stop  offset="0" style="stop-color:#AEABB7"/>
		<stop  offset="1" style="stop-color:#50546E"/>
	</linearGradient>
	<polygon style="fill:url(#SVGID_12_);" points="119.52,124.53 118.58,124.46 118.81,118.76 119.75,118.82 	"/>
	
		<linearGradient id="SVGID_13_" gradientUnits="userSpaceOnUse" x1="-436.983" y1="463.2554" x2="-435.983" y2="463.2554" gradientTransform="matrix(0 33.1315 33.1315 0 -15227.1826 14569.4395)">
		<stop  offset="0" style="stop-color:#AEABB7"/>
		<stop  offset="1" style="stop-color:#50546E"/>
	</linearGradient>
	<polygon style="fill:url(#SVGID_13_);" points="121.23,118.77 120.29,118.71 121.1,97.01 122.04,97.04 	"/>
	
		<linearGradient id="SVGID_14_" gradientUnits="userSpaceOnUse" x1="-436.9831" y1="463.274" x2="-435.9831" y2="463.274" gradientTransform="matrix(0 33.1316 33.1316 0 -15227.6289 14568.9365)">
		<stop  offset="0" style="stop-color:#AEABB7"/>
		<stop  offset="1" style="stop-color:#50546E"/>
	</linearGradient>
	<polygon style="fill:url(#SVGID_14_);" points="118.09,101.19 118.04,100.16 124.66,99.7 124.72,100.74 	"/>
	
		<linearGradient id="SVGID_15_" gradientUnits="userSpaceOnUse" x1="-436.9831" y1="463.2722" x2="-435.9831" y2="463.2722" gradientTransform="matrix(0 33.1316 33.1316 0 -15228.2002 14568.999)">
		<stop  offset="0" style="stop-color:#AEABB7"/>
		<stop  offset="1" style="stop-color:#50546E"/>
	</linearGradient>
	<polygon style="fill:url(#SVGID_15_);" points="117.46,104.83 117.41,103.8 124.03,103.37 124.09,104.41 	"/>
	
		<linearGradient id="SVGID_16_" gradientUnits="userSpaceOnUse" x1="-436.983" y1="463.27" x2="-435.983" y2="463.27" gradientTransform="matrix(0 33.1315 33.1315 0 -15228.2236 14569.0342)">
		<stop  offset="0" style="stop-color:#AEABB7"/>
		<stop  offset="1" style="stop-color:#50546E"/>
	</linearGradient>
	<polygon style="fill:url(#SVGID_16_);" points="117.32,108.88 117.27,107.85 123.89,107.45 123.94,108.49 	"/>
	
		<linearGradient id="SVGID_17_" gradientUnits="userSpaceOnUse" x1="-436.983" y1="463.2728" x2="-435.983" y2="463.2728" gradientTransform="matrix(0 33.1315 33.1315 0 -15228.2236 14568.9395)">
		<stop  offset="0" style="stop-color:#AEABB7"/>
		<stop  offset="1" style="stop-color:#50546E"/>
	</linearGradient>
	<polygon style="fill:url(#SVGID_17_);" points="117.42,113 117.36,111.97 123.98,111.6 124.04,112.64 	"/>
	
		<linearGradient id="SVGID_18_" gradientUnits="userSpaceOnUse" x1="-436.9831" y1="463.258" x2="-435.9831" y2="463.258" gradientTransform="matrix(0 33.1316 33.1316 0 -15221.4824 14569.4365)">
		<stop  offset="0" style="stop-color:#AEABB7"/>
		<stop  offset="1" style="stop-color:#50546E"/>
	</linearGradient>
	<polygon style="fill:url(#SVGID_18_);" points="128.5,95.03 127.55,94.95 127.81,91.66 125.25,92.04 125.13,91.01 128.86,90.46 	
		"/>
	
		<linearGradient id="SVGID_19_" gradientUnits="userSpaceOnUse" x1="-436.983" y1="463.2681" x2="-435.983" y2="463.2681" gradientTransform="matrix(0 33.1315 33.1315 0 -15218.6826 14569.0869)">
		<stop  offset="0" style="stop-color:#AEABB7"/>
		<stop  offset="1" style="stop-color:#50546E"/>
	</linearGradient>
	<polygon style="fill:url(#SVGID_19_);" points="130.85,114.38 129.89,114.4 129.32,95.51 130.28,95.47 	"/>
	<polygon style="fill:#706D83;" points="142.58,106.69 141.05,88.61 141.92,88.48 143.46,106.59 	"/>
	<polygon style="fill:#706D83;" points="171.75,112.61 170.8,112.61 170.6,91.5 171.54,91.48 	"/>
	<polygon style="fill:#706D83;" points="188.2,120.46 187.22,120.43 187.42,88.72 188.41,88.72 	"/>
	<polygon style="fill:#706D83;" points="179.58,120.38 178.62,120.33 179.29,84.85 180.26,84.86 	"/>
	<polygon style="fill:#706D83;" points="184,85.28 175.42,85.93 175.37,84.83 183.95,84.16 	"/>
	<polygon style="fill:#706D83;" points="183.88,89.76 175.3,90.37 175.25,89.26 183.83,88.64 	"/>
	<polygon style="fill:#706D83;" points="188.12,98.73 179.45,99.25 179.4,98.14 188.07,97.61 	"/>
	<polygon style="fill:#706D83;" points="188.09,103.33 179.41,103.8 179.36,102.69 188.03,102.21 	"/>
	<polygon style="fill:#706D83;" points="187.8,107.95 179.13,108.37 179.08,107.25 187.75,106.82 	"/>
	<polygon style="fill:#706D83;" points="188.02,112.73 179.34,113.1 179.29,111.98 187.97,111.6 	"/>
	<polygon style="fill:#706D83;" points="188.07,117.52 179.39,117.84 179.34,116.72 188.02,116.39 	"/>
	<polygon style="fill:#706D83;" points="217.44,118.99 202.15,119.41 202.11,118.27 217.39,117.82 	"/>
	<polygon style="fill:#706D83;" points="217.37,114.02 202.09,114.53 202.05,113.38 217.32,112.85 	"/>
	<polygon style="fill:#706D83;" points="217.5,109.43 202.22,110.02 202.17,108.88 217.45,108.26 	"/>
	<polygon style="fill:#706D83;" points="200.7,91.86 200.62,90.72 215.7,89.2 215.78,90.36 	"/>
	<polygon style="fill:#706D83;" points="200.38,86.83 200.29,85.69 215.36,84.09 215.44,85.25 	"/>
	<polygon style="fill:#706D83;" points="217.78,120.58 216.72,120.55 216.72,95.32 217.78,95.32 	"/>
	<polygon style="fill:#706D83;" points="206.47,119.86 205.44,119.87 205.11,105.75 206.14,105.73 	"/>
	<polygon style="fill:#706D83;" points="243.97,120.16 242.84,120.09 243.99,82.07 228.46,83.69 227.6,119.69 226.51,119.63 
		227.4,82.62 245.15,80.74 	"/>
	<polygon style="fill:#706D83;" points="227.26,118.27 227.19,117.08 243.58,116.4 243.66,117.61 	"/>
	<polygon style="fill:#706D83;" points="225.91,107.58 225.84,106.4 242.17,105.51 242.24,106.71 	"/>
	<polygon style="fill:#706D83;" points="226.45,102.23 226.39,101.06 242.73,100.07 242.8,101.27 	"/>
	<polygon style="fill:#706D83;" points="225.87,97.94 225.81,96.76 242.12,95.7 242.19,96.89 	"/>
	<polygon style="fill:#706D83;" points="225.95,94.1 225.89,92.92 242.2,91.79 242.27,92.98 	"/>
	<polygon style="fill:#706D83;" points="236.28,112.12 235.17,112.08 235.51,88.2 236.61,88.21 	"/>
	<polygon style="fill:#706D83;" points="247.85,111.2 246.2,85.41 247.33,85.31 248.99,111.14 	"/>
	<polygon style="fill:#706D83;" points="260.18,84.54 259.01,84.57 258.94,79.22 277.64,77.23 277.46,82.22 276.24,82.18 
		276.38,78.62 260.12,80.32 	"/>
	<polygon style="fill:#706D83;" points="268.27,109.87 267.08,109.85 267.09,85.02 268.28,85.01 	"/>
	<polygon style="fill:#706D83;" points="262.51,91.11 262.42,89.89 272.69,89.02 272.78,90.25 	"/>
	<polygon style="fill:#706D83;" points="262.45,95.52 262.37,94.29 272.64,93.47 272.73,94.71 	"/>
	<polygon style="fill:#706D83;" points="262.41,100.03 262.32,98.8 272.59,98.04 272.68,99.27 	"/>
	<polygon style="fill:#706D83;" points="262.59,105.15 262.5,103.92 272.78,103.21 272.87,104.45 	"/>
	<polygon style="fill:#706D83;" points="305.58,75.13 305.14,70.99 293.12,72.57 292.99,71.32 306.29,69.55 306.86,74.97 	"/>
	<polygon style="fill:#706D83;" points="291.85,83.23 291.75,81.97 302.59,80.99 302.69,82.27 	"/>
	<polygon style="fill:#706D83;" points="291.26,87.61 291.17,86.34 302,85.41 302.1,86.69 	"/>
	<polygon style="fill:#706D83;" points="291.38,93.09 291.28,91.83 302.12,90.96 302.22,92.24 	"/>
	<polygon style="fill:#706D83;" points="291.38,98.49 291.28,97.22 302.12,96.42 302.22,97.7 	"/>
	<polygon style="fill:#706D83;" points="297.63,102.99 296.36,102.97 296.52,77.14 297.79,77.12 	"/>
	<polygon style="fill:#706D83;" points="312.21,96.77 309.46,74.84 310.75,74.66 313.51,96.62 	"/>
	
		<linearGradient id="SVGID_20_" gradientUnits="userSpaceOnUse" x1="-435.3627" y1="463.1691" x2="-434.3627" y2="463.1691" gradientTransform="matrix(1.3351 30.4517 30.4517 -1.3351 -13422.8281 13971.0488)">
		<stop  offset="0" style="stop-color:#FFFFFF"/>
		<stop  offset="0.1166" style="stop-color:#FFFFFF"/>
		<stop  offset="0.319" style="stop-color:#FFEEDB"/>
		<stop  offset="1" style="stop-color:#C7C6D4"/>
	</linearGradient>
	<polygon style="fill-rule:evenodd;clip-rule:evenodd;fill:url(#SVGID_20_);" points="110.24,95.7 109,125.99 102.62,126.16 
		103.27,114.94 98.37,115.28 97.73,126.43 91.58,126.73 92.89,97.42 99.29,96.88 98.91,107.94 103.48,107.43 103.87,96.31 	"/>
	
		<linearGradient id="SVGID_21_" gradientUnits="userSpaceOnUse" x1="-434.807" y1="463.394" x2="-433.807" y2="463.394" gradientTransform="matrix(1.2932 29.4944 29.4944 -1.2932 -12984.7529 13513.2266)">
		<stop  offset="0" style="stop-color:#FFFFFF"/>
		<stop  offset="0.1166" style="stop-color:#FFFFFF"/>
		<stop  offset="0.319" style="stop-color:#FFEEDB"/>
		<stop  offset="1" style="stop-color:#C7C6D4"/>
	</linearGradient>
	<path style="fill-rule:evenodd;clip-rule:evenodd;fill:url(#SVGID_21_);" d="M112.09,118.42l4.16,4.24l8.38-1.06l4.65-4.74
		l1.09-22.07l-4.35-3.86l-8.35,0.77l-4.42,5.66L112.09,118.42z M118.36,114.61l1.44,1.19l1.72-0.14l1.65-1.98l0.35-13.99l-1.33-1.61
		l-1.46,0.16l-1.52,1.77L118.36,114.61z"/>
	
		<linearGradient id="SVGID_22_" gradientUnits="userSpaceOnUse" x1="-436.3279" y1="462.7569" x2="-435.3279" y2="462.7569" gradientTransform="matrix(1.4186 32.3555 32.3555 -1.4186 -14212.1904 14858.8115)">
		<stop  offset="0" style="stop-color:#FFFFFF"/>
		<stop  offset="0.1166" style="stop-color:#FFFFFF"/>
		<stop  offset="0.319" style="stop-color:#FFEEDB"/>
		<stop  offset="1" style="stop-color:#C7C6D4"/>
	</linearGradient>
	<polygon style="fill-rule:evenodd;clip-rule:evenodd;fill:url(#SVGID_22_);" points="141.97,88.13 135.13,88.88 134.08,120.33 
		151.59,119.32 151.82,112.27 141.21,112.82 	"/>
	
		<linearGradient id="SVGID_23_" gradientUnits="userSpaceOnUse" x1="-436.5001" y1="462.7027" x2="-435.5001" y2="462.7027" gradientTransform="matrix(1.4335 32.6963 32.6963 -1.4335 -14340.4141 15017.9277)">
		<stop  offset="0" style="stop-color:#FFFFFF"/>
		<stop  offset="0.1166" style="stop-color:#FFFFFF"/>
		<stop  offset="0.319" style="stop-color:#FFEEDB"/>
		<stop  offset="1" style="stop-color:#C7C6D4"/>
	</linearGradient>
	<polygon style="fill-rule:evenodd;clip-rule:evenodd;fill:url(#SVGID_23_);" points="154.61,118.98 173.2,118.38 173.27,110.77 
		162.08,111.59 162.4,86.49 155.22,87.04 	"/>
	
		<linearGradient id="SVGID_24_" gradientUnits="userSpaceOnUse" x1="-436.5183" y1="462.6687" x2="-435.5183" y2="462.6687" gradientTransform="matrix(1.4369 32.7722 32.7722 -1.4369 -14355.751 15051.4805)">
		<stop  offset="0" style="stop-color:#FFFFFF"/>
		<stop  offset="0.1166" style="stop-color:#FFFFFF"/>
		<stop  offset="0.319" style="stop-color:#FFEEDB"/>
		<stop  offset="1" style="stop-color:#C7C6D4"/>
	</linearGradient>
	<polygon style="fill-rule:evenodd;clip-rule:evenodd;fill:url(#SVGID_24_);" points="176.26,84.8 168.5,85.48 174.68,107.48 
		174.71,119.11 183.03,118.81 183.17,108.17 191.17,83.32 183.2,84.18 179.24,97 	"/>
	
		<linearGradient id="SVGID_25_" gradientUnits="userSpaceOnUse" x1="-437.0434" y1="462.4601" x2="-436.0434" y2="462.4601" gradientTransform="matrix(1.4862 33.898 33.898 -1.4862 -14819.9932 15582.1641)">
		<stop  offset="0" style="stop-color:#FFFFFF"/>
		<stop  offset="0.1166" style="stop-color:#FFFFFF"/>
		<stop  offset="0.319" style="stop-color:#FFEEDB"/>
		<stop  offset="1" style="stop-color:#C7C6D4"/>
	</linearGradient>
	<polygon style="fill-rule:evenodd;clip-rule:evenodd;fill:url(#SVGID_25_);" points="193.75,86.09 196.33,120.13 202.45,119.93 
		205.78,108.69 208.5,119.56 213.62,119.55 220.56,83.44 213.53,84.21 211.15,94.81 208.81,84.57 204,85.09 202.39,95.76 
		201.25,85.37 	"/>
	
		<linearGradient id="SVGID_26_" gradientUnits="userSpaceOnUse" x1="-437.7787" y1="462.1347" x2="-436.7787" y2="462.1347" gradientTransform="matrix(1.5644 35.681 35.681 -1.5644 -15570.2725 16418.1543)">
		<stop  offset="0" style="stop-color:#FFFFFF"/>
		<stop  offset="0.1166" style="stop-color:#FFFFFF"/>
		<stop  offset="0.319" style="stop-color:#FFEEDB"/>
		<stop  offset="1" style="stop-color:#C7C6D4"/>
	</linearGradient>
	<path style="fill-rule:evenodd;clip-rule:evenodd;fill:url(#SVGID_26_);" d="M231.16,82.14l-7.25,5.96l-0.7,25.54l5.84,4.73
		l10.37-0.61l7.75-6.01l0.37-26.48l-6.37-3.88L231.16,82.14z M237.06,89.05l-2.89,0.19l-2.27,2.93l-0.32,16.51l1.73,1.78l2.73-0.12
		l2.47-2.4l0.35-16.13L237.06,89.05z"/>
	
		<linearGradient id="SVGID_27_" gradientUnits="userSpaceOnUse" x1="-438.3226" y1="461.8728" x2="-437.3226" y2="461.8728" gradientTransform="matrix(1.6282 37.1353 37.1353 -1.6282 -16171.4893 17100.2773)">
		<stop  offset="0" style="stop-color:#FFFFFF"/>
		<stop  offset="0.1166" style="stop-color:#FFFFFF"/>
		<stop  offset="0.319" style="stop-color:#FFEEDB"/>
		<stop  offset="1" style="stop-color:#C7C6D4"/>
	</linearGradient>
	<path style="fill-rule:evenodd;clip-rule:evenodd;fill:url(#SVGID_27_);" d="M261.64,79.49l-6.86,5.87l-0.43,26.88l8.43,4.64
		l10.1-0.35l7.81-6.5l0.52-27.31l-7.15-4.51L261.64,79.49z M269.07,86.37l-3.1,0.3l-2.23,2.07l-0.44,17.81l1.86,1.93l4.04-0.09
		l2.39-2.66l-0.05-17.5L269.07,86.37z"/>
	
		<linearGradient id="SVGID_28_" gradientUnits="userSpaceOnUse" x1="-438.7307" y1="461.7204" x2="-437.7307" y2="461.7204" gradientTransform="matrix(1.677 38.2497 38.2497 -1.677 -16629.0527 17618.1133)">
		<stop  offset="0" style="stop-color:#FFFFFF"/>
		<stop  offset="0.1166" style="stop-color:#FFFFFF"/>
		<stop  offset="0.319" style="stop-color:#FFEEDB"/>
		<stop  offset="1" style="stop-color:#C7C6D4"/>
	</linearGradient>
	<path style="fill-rule:evenodd;clip-rule:evenodd;fill:url(#SVGID_28_);" d="M283.59,72.67l0.04,38.57l19.28-1.13l7.84-7.02
		l-0.01-28.97l-7.51-4.23L283.59,72.67z M298.95,78.83l-5.8,0.61l-0.19,22.51l4.92-0.15l2.64-2.67l0.26-18.43L298.95,78.83z"/>
	<path style="fill-rule:evenodd;clip-rule:evenodd;fill:#3D3A5F;" d="M90.22,127.49l-0.04-0.04l0.05-0.14l0.12-0.01l0.04-0.17
		l0.11,0.03l0.23-0.17c0.06-0.07,0.11-0.14-0.04-0.15c-0.14-0.01-0.05,0.06-0.11-0.06l-0.08-0.17h0.09l0.08-0.18
		c0.12,0.09,0.16-0.04,0.14-0.14l-0.24-0.27c0.01-0.1,0.09-0.06,0.14-0.13c0.07-0.09,0-0.09-0.03-0.12
		c-0.06-0.05-0.12-0.02-0.07-0.12l0.11-0.1c0.18,0.06,0.33,0.03,0.22-0.19l0.12-0.05c0.03-0.13,0.39-0.27,0.35-0.08
		c0.02-0.07,0.25,0.16,0.31,0.01l-0.1-0.12v-0.1l-0.11-0.08l0.17-0.06c-0.06-0.11,0.03-0.11,0.11-0.1
		c-0.02-0.16,0.29-0.04,0.36-0.08l0.02-0.21l0.17-0.01c0.05-0.04,0-0.13,0.09-0.17c0.19-0.08,0.13,0.29,0.28,0.15l0.17,0.09
		l0.05-0.06l0.1-0.01c0.08-0.04,0.15-0.12,0.15-0.21l0.17,0.03l0.02-0.07c0.19-0.06,0.12,0.15,0.11,0.23
		c0.11,0.03,0.15-0.15,0.27-0.05l0.04,0.11l0.11,0.05l0.17,0.23c0.07,0.02,0.17-0.12,0.23,0.01c-0.01-0.02,0.49,0.03,0.26,0.17
		l0.2,0.1c0.05,0.08-0.07,0.13-0.03,0.23c0.06,0.14,0.31-0.01,0.33,0.16l0.08,0.1l-0.08,0.14c0.11-0.02,0.18,0.03,0.19,0.16
		c0.1-0.01,0.18,0.01,0.15,0.14c-0.02,0.07-0.14,0.1-0.07,0.2l0.23,0.04l0.09,0.14l0.14,0.13c0.07,0.05,0.19,0.11,0.2,0.21
		l-0.15,0.16l0.09,0.12c0,0.17-0.25,0.13-0.34,0.08c-0.16,0.09-0.08,0.16-0.06,0.3l-0.03,0.18l-0.12,0.08
		c-0.01,0.11,0.12,0.1,0.02,0.2c-0.09,0.09-0.15,0-0.24,0.01l-0.1,0.08l-0.12-0.03c-0.1,0-0.11,0.09-0.19,0.14l-0.03-0.04
		c-0.14,0.1,0.02,0.14-0.01,0.24c-0.03,0.12-0.17,0.07-0.23,0.04c-0.05,0.12-0.11-0.02-0.16-0.03l-0.13,0.06
		c-0.19,0.02-0.13-0.19-0.27-0.25c0.13,0.21-0.42,0.23-0.4,0.27c-0.06-0.09-0.1-0.14-0.22-0.09c-0.01,0.14-0.12,0.13-0.22,0.09
		c-0.12-0.05-0.13-0.04-0.25-0.02c-0.01-0.09-0.09-0.05-0.16-0.05c0.02-0.17-0.3,0.04-0.36,0.05l-0.13,0.03l-0.07-0.07l-0.13-0.04
		l-0.04-0.1l-0.26,0.01l-0.11,0.11l-0.02-0.11h-0.09v-0.07c-0.1,0-0.11,0.14-0.22,0.15c-0.1,0.01-0.22-0.1-0.25-0.18
		c-0.04-0.11-0.04-0.06-0.13-0.09l-0.17-0.07c-0.14,0.14-0.3-0.05-0.29-0.19l-0.1-0.07C90.36,127.53,90.27,127.52,90.22,127.49z"/>
	<path style="fill-rule:evenodd;clip-rule:evenodd;fill:#3D3A5F;" d="M99.1,127.75l0.04-0.04l-0.04-0.11l-0.1-0.01l-0.03-0.14
		l-0.09,0.02l-0.2-0.14c-0.05-0.06-0.09-0.12,0.04-0.12c0.12,0,0.04,0.05,0.1-0.05l0.07-0.14h-0.07l-0.07-0.15
		c-0.1,0.08-0.14-0.04-0.11-0.12l0.2-0.23l-0.12-0.11l0.02-0.1l0.06-0.1l-0.1-0.08c-0.15,0.05-0.28,0.03-0.18-0.16l-0.1-0.05
		c-0.02-0.11-0.33-0.22-0.29-0.06c-0.01-0.06-0.21,0.13-0.26,0.01l0.09-0.1v-0.09l0.09-0.07l-0.15-0.05l-0.09-0.08
		c0.02-0.13-0.24-0.04-0.3-0.07l-0.02-0.18l-0.14-0.01l-0.08-0.14c-0.16-0.06-0.11,0.25-0.24,0.12l-0.14,0.08l-0.04-0.05l-0.08-0.01
		l-0.13-0.18l-0.14,0.02L96.48,125c-0.16-0.05-0.1,0.13-0.09,0.19c-0.09,0.02-0.13-0.12-0.22-0.04l-0.03,0.09l-0.09,0.04l-0.14,0.19
		c-0.06,0.01-0.14-0.1-0.19,0.01c0.01-0.01-0.41,0.02-0.22,0.15l-0.17,0.08l0.02,0.19c-0.05,0.12-0.26-0.01-0.28,0.13L95,126.11
		l0.07,0.12c-0.09-0.01-0.15,0.03-0.16,0.13c-0.08,0-0.15,0.01-0.13,0.11l0.05,0.17l-0.2,0.04l-0.07,0.12l-0.12,0.11l-0.17,0.17
		l0.13,0.13l-0.07,0.1c0,0.14,0.21,0.11,0.28,0.07c0.14,0.08,0.06,0.14,0.05,0.25l0.02,0.15l0.1,0.07c0,0.1-0.1,0.09-0.02,0.17
		l0.2,0.01l0.08,0.06l0.1-0.02l0.16,0.12l0.02-0.04c0.12,0.08-0.02,0.11,0,0.2c0.03,0.1,0.14,0.06,0.19,0.03
		c0.04,0.1,0.09-0.02,0.13-0.02l0.11,0.05c0.16,0.02,0.11-0.16,0.23-0.21c-0.11,0.18,0.36,0.2,0.34,0.23
		c0.05-0.07,0.08-0.12,0.18-0.07c0,0.12,0.1,0.11,0.18,0.08c0.1-0.04,0.11-0.03,0.21-0.01l0.13-0.04c-0.02-0.14,0.25,0.03,0.3,0.04
		l0.11,0.03l0.06-0.06l0.11-0.04l0.03-0.08l0.22,0.01l0.09,0.09l0.02-0.09h0.07v-0.06c0.09,0,0.09,0.12,0.18,0.13l0.21-0.15
		c0.03-0.09,0.03-0.05,0.11-0.08l0.14-0.06c0.12,0.11,0.25-0.04,0.24-0.16l0.09-0.06L99.1,127.75z"/>
</g>
<rect style="fill:none;" width="369.3" height="295.44"/>
<rect style="fill:none;" width="369.31" height="295.44"/>
<rect y="176" style="fill:#231F20;" width="369.31" height="119.44"/>
</svg>
