<?xml version="1.0" encoding="utf-8"?>
<!-- Generator: Adobe Illustrator 24.0.0, SVG Export Plug-In . SVG Version: 6.00 Build 0)  -->
<svg version="1.1" id="Layer_4" xmlns="http://www.w3.org/2000/svg" xmlns:xlink="http://www.w3.org/1999/xlink" x="0px" y="0px"
	 viewBox="0 0 369.3 295.44" style="enable-background:new 0 0 369.3 295.44;" xml:space="preserve">
<linearGradient id="SVGID_1_" gradientUnits="userSpaceOnUse" x1="-323.2006" y1="86.5673" x2="-322.2006" y2="86.5673" gradientTransform="matrix(5.4976 29.9312 -29.9312 5.4976 4552.4316 9274.6602)">
	<stop  offset="0" style="stop-color:#777295"/>
	<stop  offset="0.2229" style="stop-color:#716C8E"/>
	<stop  offset="0.5574" style="stop-color:#5F5A79"/>
	<stop  offset="0.9601" style="stop-color:#423D58"/>
	<stop  offset="1" style="stop-color:#3F3A54"/>
</linearGradient>
<path style="fill-rule:evenodd;clip-rule:evenodd;fill:url(#SVGID_1_);" d="M369.3,61.63c-2.2-0.61-4.65-0.77-6.79-1.03
	c-4.7-0.56-8.48,0.15-13.06,1.04c-4.46,0.87-8.28,0.01-12.73-0.22c-9.44-0.49-17.24,4.11-26.86,1.98
	c-9.28-2.06-17.59-2.18-26.39,2.11c-3.95,1.93-7.04,4.83-11.59,5.26c-5.69,0.54-11.63-0.23-17.36-0.11c-3.42,0.07-6.58-0.2-9.98,0.6
	c-3.49,0.82-6.17,1.74-9.78,1.68c-4.78-0.08-8.19,0.93-12.69,2.08c-4.45,1.14-7.83-0.4-12.24-0.54c-3.95-0.12-7.23,1.41-11.02,2.18
	c-8.17,1.65-16.47,2.51-24.76,2.59c-3.74,0.04-7.23,1.5-10.54,3.15c-2.17,1.09-4.66,3.72-6.4,5.43c-2.47,2.41-5.14,5.69-8.11,7.46
	c-1.2,0.71-2.61,1.11-3.85,1.77c-4.73,2.52-9.94,3.05-14.66,5.38c-5.3,2.62-9.42,6.96-13.82,10.88c-2.51,2.23-4.02,5.13-6.94,6.97
	c-2.35,1.48-5.08,2.32-7.43,3.81c-2.14,1.35-6.06,1.82-8.33,2.96c-4.75,2.38-7.09,5.92-11.71,8.54
	c-10.67,6.06-21.4,12.03-32.22,17.84c-11.72,6.29-23.5,12.57-35.66,17.98c0,0,312.31-28.31,354.91-32.17V61.63H369.3z"/>
<rect style="fill:none;" width="369.3" height="295.44"/>
<rect y="176.29" style="fill:#231F20;" width="369.3" height="119.15"/>
</svg>
