<?xml version="1.0" encoding="utf-8"?>
<!-- Generator: Adobe Illustrator 24.0.0, SVG Export Plug-In . SVG Version: 6.00 Build 0)  -->
<svg version="1.1" id="Layer_4" xmlns="http://www.w3.org/2000/svg" xmlns:xlink="http://www.w3.org/1999/xlink" x="0px" y="0px"
	 viewBox="0 0 369.3 295.44" style="enable-background:new 0 0 369.3 295.44;" xml:space="preserve">
<linearGradient id="SVGID_1_" gradientUnits="userSpaceOnUse" x1="-323.6385" y1="87.2582" x2="-322.6385" y2="87.2582" gradientTransform="matrix(7.9045 31.6186 -31.6186 7.9045 5439.2124 9634.6963)">
	<stop  offset="0" style="stop-color:#615979"/>
	<stop  offset="0.2539" style="stop-color:#5A5373"/>
	<stop  offset="0.6353" style="stop-color:#454261"/>
	<stop  offset="1" style="stop-color:#2B2C4B"/>
</linearGradient>
<path style="fill-rule:evenodd;clip-rule:evenodd;fill:url(#SVGID_1_);" d="M0,182.88c97.74-12.28,275.5-57.13,275.5-57.13
	l-33.73-48c-1.08-2.01-6.07-7.48-9.19-6.04c-0.96-2.32-5.16-1.86-7.11-1.72c-2.15,0.15-3.32-1.32-5.42-1.3
	c-2.07,0.02-3.52,0.74-5.6,0.3c-0.99-0.21-1.66-0.59-2.72-0.45c-1.12,0.15-1.78,1.14-2.85,1.11c-0.22-2.41-1.71-3.29-4.14-2.86
	c-0.96,0.17-1.5,0.88-2.32,1.29c-0.29,0.14-0.51,0.15-0.79,0.37c-0.21,0.18-0.4,0.46-0.69,0.52c-0.22,0.04-0.48-0.11-0.7-0.15
	c-0.33-0.06-0.49,0.07-0.78,0.08c-0.48,0.02-0.51-0.29-0.85-0.56c-0.44-0.33-1.15-0.44-1.64-0.31c-0.42,0.12-1.05,0.44-1.22,0.88
	c-0.14,0.37-0.04,0.78-0.2,1.18c-0.14,0.36-0.35,0.78-0.79,0.8c-0.41,0.02-0.73-0.47-1.15-0.43c-0.36,0.04-0.69,0.29-1.09,0.32
	c-0.56,0.03-0.64,0.06-1,0.47c-0.49,0.04-0.98-0.45-1.46-0.56c-0.44-0.1-0.92,0.03-1.27,0.33c-0.55,0.48-0.59,1.37-1.07,1.84
	c-0.25-0.21-0.87-0.17-1.17-0.2c-0.65-0.07-1.08,0.03-1.69,0.13c-0.53,0.08-0.84-0.38-1.36-0.43c-0.81-0.08-1.21-0.06-1.65,0.59
	c-0.38,0.55-1.02,0.34-1.64,0.45c-0.59,0.11-1.14,0.44-1.59-0.15c-0.32-0.42-0.34-0.83-0.92-1.01c-0.41-0.12-0.72,0.11-1.16,0.13
	c-0.52,0.02-0.9-0.23-1.37-0.3c-0.51-0.07-1.03,0.24-1.46,0.44c-0.61,0.29-1.25,0.48-1.89,0.18c-0.63-0.3-1.11-0.48-1.84-0.59
	c-0.32-0.05-0.36-0.25-0.69-0.36c-0.36-0.12-0.77,0.08-1.12,0.17c-0.75,0.22-1.31,0.59-1.47,1.42c-0.12,0.63-0.18,1.01-0.79,1.38
	c0.22,0.71-0.3,1.13-0.67,1.63c-0.31,0.42-0.38,0.96-0.8,1.32c-0.53,0.46-1.39,0.51-2.04,0.73c-0.71,0.24-1.3,0.66-2,0.91
	c-0.61,0.22-1.11,0.02-1.62,0.59c-0.32,0.36-0.31,0.89-0.35,1.34c-0.07,0.77-0.54,0.31-1.11,0.33c-0.25,0.01-0.66,0.1-0.79,0.32
	c-0.13,0.22,0.07,0.35-0.21,0.55c-0.3,0.21-1.23,0.32-1.57,0.34c-0.56,0.02-0.78-0.12-1.05,0.46c-0.21,0.44,0.04,0.85-0.57,0.93
	c-0.24,0.03-0.41-0.04-0.65,0.04c-0.28,0.09-0.37,0.28-0.59,0.42c-0.34,0.21-0.8,0.12-1.12-0.09c-0.21-0.13-0.42-0.52-0.71-0.47
	c-0.37,0.06-1.08,0.25-1.38,0.46c-0.32,0.24-0.39,0.7-0.58,1.04c-0.27,0.47-0.28,1.34-0.87,1.56s-1.28-0.1-1.82-0.29
	c-0.68-0.24-1.1,0.54-1.77,0.68c-0.3,0.06-0.55-0.09-0.84-0.07c-0.52,0.03-1.5,0.37-1.87,0.75c-0.2,0.21-0.68,1.11-1.03,0.66
	c-0.57,0.35-0.7,0.87-1.38,1.05c-0.56,0.15-1.1,0.22-1.65,0.38c-0.3,0.09-0.59,0.17-0.79,0.43c-0.16,0.2-0.16,0.52-0.35,0.72
	c-0.17,0.17-0.46,0.26-0.66,0.43c-0.33,0.28-0.3,0.36-0.39,0.7c-0.27,1.06-1.58,1.74-2.54,2.02c-1.16,0.33-2.22,0.52-3.19,1.3
	c-1.47,1.19-2,1.38-3.77,1.86c-2.35,0.63-3.01,2.73-5.02,4.17c-1.22,0.87-1.58,0.49-2.91,0.97c-1.16,0.42-1.85,1.92-3.15,1.89
	c-1.32-0.03-1.6-1.27-3.12-0.96c-1.28,0.25-1.6,1.23-2.42,1.98c-2.19,2.02-3.75,1.21-6.32,2.01c-1.31,0.41-2.15,0.95-3.58,0.84
	c-1.13-0.08-2.17-0.74-3.34-0.6c-1.18,0.14-2.07,1.17-3.24,1.28c-1.11,0.1-1.83-0.78-2.85-0.67c-1.34,0.14-1.54,1.66-2.66,1.97
	c-1.4,0.38-3.45-1.26-4.53-1.98c-0.59-0.39-6.21-3.24-4.7-0.93c-1.07-0.47-3.5-0.06-4.79-0.25c-0.94-0.14-1.63-0.16-2.64,0.06
	c-1.46,0.32-1.12,0.44-1.93,1.18c-1.21,1.09-0.2,0.98-2.04,1.23c-1.1,0.15-1.78-0.08-2.78,0.39c-1.72,0.82-0.34,1.09-2.29,0.44
	c-0.84-0.28-1.12-0.93-2.5-0.86c0.02-1.16-1.43-1.81-2.53-1.68c-1.65,0.19-1.55,1.52-2.7,2.25c-1.4,0.87-5.1-0.62-6.57-1.32
	c-0.52-0.24-0.63-0.9-1.33-1.03c-0.65-0.13-1.21,0.74-1.7,0.65c-1.51-0.3-1.22-1.88-2.79-1.93c-1.49-0.05-1.97,1.58-2.92,2.18
	c-0.7,0.44-2.71,0.76-3.55,0.63c-1.4-0.23-1.53-1.14-2.78-1.6c-1.23-0.45-2.09-0.03-3.26-0.67c-0.97-0.53-1.14-1.27-2.66-1.37
	c-2.4-0.17-0.88,0.74-2.39,1.61c-0.89,0.52-2.02-0.24-3-0.15c-1.36,0.12-2.69,1.08-4.11,1.23c-1.91,0.2-4.21,0.39-6.19,1.03
	c-1.07,0.34-1.56,1.46-2.5,1.86c-0.84,0.36-2.42,0.46-3.28,0.52c-1.38,0.09-1.31-0.08-2.73-0.42c-0.12-0.03-0.63,0.08-1.33,0.25
	v70.94H0z"/>
<rect style="fill:none;" width="369.3" height="295.44"/>
<rect x="1" y="181" style="fill:#231F20;" width="368.3" height="114.44"/>
</svg>
